<svg xmlns="http://www.w3.org/2000/svg" xmlns:xlink="http://www.w3.org/1999/xlink" width="245" height="111" viewBox="0 0 245 111"><defs><style>.a{opacity:0.5;}.a,.c,.d{fill:url(#a);}.b{opacity:0.6;fill:url(#b);}.d{opacity:0.2;}.e{fill:url(#e);}</style><linearGradient id="a" x1="0.5" x2="0.5" y2="1" gradientUnits="objectBoundingBox"><stop offset="0" stop-color="#41f8e6" stop-opacity="0"/><stop offset="1" stop-color="#41f8e6"/></linearGradient><radialGradient id="b" cx="0.5" cy="0.5" r="0.5" gradientUnits="objectBoundingBox"><stop offset="0" stop-color="#4cccff" stop-opacity="0"/><stop offset="0.741" stop-color="#4cccff" stop-opacity="0"/><stop offset="1" stop-color="#4cccff" stop-opacity="0.502"/></radialGradient><radialGradient id="e" cx="0.5" cy="0.5" r="0.5" gradientUnits="objectBoundingBox"><stop offset="0" stop-color="#41f8e6"/><stop offset="1" stop-color="#41f8e6" stop-opacity="0"/></radialGradient></defs><g transform="translate(-1643 -212)"><g transform="translate(343 -39)"><path class="a" d="M75.5,1A285.578,285.578,0,0,0,46.215,2.449,179.156,179.156,0,0,0,22.351,6.39c-6.841,1.676-12.2,3.619-15.917,5.774C3.955,13.6,1,15.866,1,18.5s2.955,4.9,5.434,6.336c3.72,2.155,9.076,4.1,15.917,5.774a179.156,179.156,0,0,0,23.864,3.941A285.578,285.578,0,0,0,75.5,36a285.578,285.578,0,0,0,29.285-1.449,179.156,179.156,0,0,0,23.864-3.941c6.841-1.676,12.2-3.619,15.917-5.774C147.045,23.4,150,21.134,150,18.5s-2.955-4.9-5.434-6.336c-3.72-2.155-9.076-4.1-15.917-5.774a179.156,179.156,0,0,0-23.864-3.941A285.578,285.578,0,0,0,75.5,1m0-1C117.2,0,151,8.283,151,18.5S117.2,37,75.5,37,0,28.717,0,18.5,33.8,0,75.5,0Z" transform="translate(1346 299)"/><ellipse class="b" cx="60" cy="17" rx="60" ry="17" transform="translate(1361 299)"/><path class="c" d="M60,1A196.251,196.251,0,0,0,36.764,2.329,124.561,124.561,0,0,0,17.846,5.941,45.332,45.332,0,0,0,5.272,11.214,12.635,12.635,0,0,0,2.03,14.159,4.86,4.86,0,0,0,1,17a4.86,4.86,0,0,0,1.03,2.841,12.635,12.635,0,0,0,3.242,2.946,45.332,45.332,0,0,0,12.575,5.272,124.561,124.561,0,0,0,18.918,3.612A196.251,196.251,0,0,0,60,33a196.251,196.251,0,0,0,23.236-1.329,124.561,124.561,0,0,0,18.918-3.612,45.332,45.332,0,0,0,12.575-5.272,12.635,12.635,0,0,0,3.242-2.946A4.86,4.86,0,0,0,119,17a4.86,4.86,0,0,0-1.03-2.841,12.635,12.635,0,0,0-3.242-2.946,45.332,45.332,0,0,0-12.575-5.272A124.561,124.561,0,0,0,83.236,2.329,196.251,196.251,0,0,0,60,1m0-1c33.137,0,60,7.611,60,17S93.137,34,60,34,0,26.389,0,17,26.863,0,60,0Z" transform="translate(1361 299)"/><path class="d" d="M87.5,1c-11.78,0-23.206.54-33.96,1.606A216.591,216.591,0,0,0,25.856,6.978C17.91,8.84,11.687,11,7.361,13.4a17.99,17.99,0,0,0-4.83,3.631A5.353,5.353,0,0,0,1,20.5a5.353,5.353,0,0,0,1.531,3.474A17.99,17.99,0,0,0,7.361,27.6c4.327,2.4,10.549,4.556,18.5,6.417A216.591,216.591,0,0,0,53.54,38.394C64.294,39.46,75.72,40,87.5,40s23.206-.54,33.96-1.606a216.591,216.591,0,0,0,27.683-4.372c7.946-1.862,14.169-4.021,18.5-6.417a17.99,17.99,0,0,0,4.83-3.631A5.353,5.353,0,0,0,174,20.5a5.353,5.353,0,0,0-1.531-3.474,17.99,17.99,0,0,0-4.83-3.631c-4.327-2.4-10.549-4.556-18.5-6.417A216.591,216.591,0,0,0,121.46,2.606C110.706,1.54,99.28,1,87.5,1m0-1C135.825,0,175,9.178,175,20.5S135.825,41,87.5,41,0,31.822,0,20.5,39.175,0,87.5,0Z" transform="translate(1334 299)"/></g><path class="e" d="M-1745-2393h-78.493a55.119,55.119,0,0,0,39.22-16.274A55.124,55.124,0,0,0-1768-2448.5a55.563,55.563,0,0,0-55.5-55.5h78.5v111Zm-166.975,0H-1990v-111h78.5a55.13,55.13,0,0,0-39.226,16.274A55.123,55.123,0,0,0-1967-2448.5a55.657,55.657,0,0,0,55.026,55.5Z" transform="translate(3633 2716)"/></g></svg>