<svg xmlns="http://www.w3.org/2000/svg" xmlns:xlink="http://www.w3.org/1999/xlink" width="144.406" height="108.491" viewBox="0 0 144.406 108.491">
  <defs>
    <linearGradient id="linear-gradient" x1="0.5" x2="0.5" y2="1" gradientUnits="objectBoundingBox">
      <stop offset="0" stop-color="#fc6b19"/>
      <stop offset="1" stop-color="#ffb300" stop-opacity="0.02"/>
    </linearGradient>
  </defs>
  <g id="经营性房屋鉴定到期提醒" transform="translate(-28.594 -536.119)">
    <g id="组_8740" data-name="组 8740" transform="translate(-884.625 -816.748)">
      <path id="路径_9214" data-name="路径 9214" d="M1046.436,1461.358l-5.035-3.263a63.4,63.4,0,0,0,10.225-34.548c0-35.665-29.7-64.68-66.2-64.68s-66.2,29.015-66.2,64.68a63.4,63.4,0,0,0,10.225,34.548l-5.035,3.263a69.385,69.385,0,0,1-11.19-37.811c0-38.973,32.39-70.68,72.2-70.68s72.2,31.707,72.2,70.68A69.382,69.382,0,0,1,1046.436,1461.358Z" opacity="0.8" fill="url(#linear-gradient)"/>
      <path id="路径_9217" data-name="路径 9217" d="M923.96,1439.638c-.184-.284-.367-.573-.546-.86l1.7-1.056c.172.276.349.555.526.828Zm99.187-6.812-1.816-.839c.137-.3.272-.6.4-.895l1.831.8C1023.429,1432.207,1023.289,1432.519,1023.147,1432.826Zm-103.507-1.261c-.134-.311-.267-.626-.395-.939l1.851-.758c.123.3.251.606.38.9Zm106.631-7.348-1.931-.52c.085-.314.167-.634.246-.95l1.941.484C1026.444,1423.558,1026.358,1423.89,1026.271,1424.216Zm-109.533-1.338c-.08-.328-.157-.662-.23-.993l1.952-.434c.071.318.145.639.222.956Zm111.156-7.676-1.991-.186c.03-.324.058-.653.082-.978l1.994.149C1027.953,1414.525,1027.925,1414.866,1027.893,1415.2Zm-112.548-1.377c-.023-.337-.043-.679-.06-1.017l2-.1c.016.325.035.655.057.98Zm110.641-7.632c-.024-.325-.052-.654-.082-.978l1.991-.185c.031.337.06.678.085,1.016Zm-108.507-1.325-1.99-.2c.034-.337.071-.677.111-1.013l1.986.236C917.547,1404.216,917.511,1404.544,917.479,1404.868Zm107.113-7.384c-.078-.316-.161-.635-.246-.95l1.932-.519c.088.327.174.658.255.987ZM919.1,1396.2l-1.928-.532c.09-.326.184-.656.28-.98l1.918.568C919.272,1395.566,919.182,1395.884,919.1,1396.2Zm102.65-7.061c-.131-.3-.266-.6-.4-.895l1.816-.838c.142.307.282.62.418.929Zm-99.591-1.211-1.81-.85c.144-.306.292-.615.441-.918l1.794.884C922.436,1387.333,922.293,1387.631,922.154,1387.925Zm95.381-6.541c-.179-.272-.363-.547-.546-.816l1.651-1.128c.191.279.381.564.567.846Zm-90.976-1.1-1.644-1.139c.192-.278.39-.557.588-.832l1.623,1.169C926.935,1379.743,926.744,1380.013,926.559,1380.281Zm85.54-5.849c-.221-.239-.447-.48-.673-.715l1.444-1.384c.234.244.469.493.7.742Zm-79.932-.967-1.435-1.393c.235-.242.476-.486.716-.724l1.41,1.419C932.625,1373,932.393,1373.232,932.166,1373.465Zm73.434-5.008c-.257-.2-.519-.4-.78-.6l1.2-1.6c.27.2.542.411.808.619Zm-66.79-.806-1.191-1.607c.271-.2.548-.4.823-.6l1.162,1.628C939.339,1367.263,939.071,1367.458,938.81,1367.652Zm59.412-4.042c-.286-.156-.577-.312-.866-.464l.928-1.772c.3.157.6.318.9.48Zm-51.917-.625-.917-1.778c.3-.155.606-.309.909-.458l.885,1.794C946.889,1362.687,946.594,1362.836,946.3,1362.985Zm43.854-2.973c-.307-.108-.62-.215-.929-.318l.631-1.9c.32.107.644.218.963.33Zm-35.706-.428-.619-1.9c.321-.1.648-.208.97-.307l.585,1.912C955.077,1359.384,954.762,1359.483,954.452,1359.584Zm27.17-1.831c-.321-.058-.646-.114-.968-.166l.32-1.974c.333.054.671.112,1,.172Zm-18.582-.221-.308-1.976c.334-.052.672-.1,1.007-.148l.273,1.981C963.69,1357.434,963.363,1357.482,963.041,1357.532Zm9.792-.653c-.326-.007-.656-.011-.983-.012l.006-2c.338,0,.68.005,1.017.012Z" transform="translate(13.747 12.316)" opacity="0.8" fill="url(#linear-gradient)"/>
    </g>
  </g>
</svg>
