<svg xmlns="http://www.w3.org/2000/svg" xmlns:xlink="http://www.w3.org/1999/xlink" width="118.598" height="96.967" viewBox="0 0 118.598 96.967"><defs><style>.a{fill:url(#a);}.b{fill:url(#b);}.c{opacity:0.8;fill:url(#c);}.d{fill:url(#d);}.e{fill:url(#e);}.f{fill:url(#f);}</style><linearGradient id="a" x1="0.5" y1="0.41" x2="0.5" y2="1" gradientUnits="objectBoundingBox"><stop offset="0" stop-color="#5b89fe" stop-opacity="0"/><stop offset="1" stop-color="#5b89fe"/></linearGradient><linearGradient id="b" x1="0.5" y1="0.323" x2="0.5" y2="1" gradientUnits="objectBoundingBox"><stop offset="0" stop-color="#41f8e6" stop-opacity="0"/><stop offset="1" stop-color="#41f8e6"/></linearGradient><linearGradient id="c" x1="0.5" x2="0.5" y2="1" gradientUnits="objectBoundingBox"><stop offset="0" stop-color="#1f44a1"/><stop offset="0.51" stop-color="#233c7d"/><stop offset="0.556" stop-color="#41f8e6"/><stop offset="1" stop-color="#67fbec"/></linearGradient><linearGradient id="d" x1="0.5" x2="0.5" y2="0.676" gradientUnits="objectBoundingBox"><stop offset="0" stop-color="#081d53" stop-opacity="0.4"/><stop offset="1" stop-color="#081d53" stop-opacity="0"/></linearGradient><linearGradient id="e" x1="0.5" x2="0.487" y2="0.645" gradientUnits="objectBoundingBox"><stop offset="0" stop-color="#5b89fe"/><stop offset="1" stop-color="#5b89fe" stop-opacity="0"/></linearGradient><linearGradient id="f" y1="0.5" xlink:href="#a"/></defs><g transform="translate(-4413 -3597)"><path class="a" d="M54.078.746A114.327,114.327,0,0,0,33.165,2.609,77.659,77.659,0,0,0,16.14,7.673,35.452,35.452,0,0,0,4.788,15.094C2.106,17.893.746,20.845.746,23.869s1.36,5.976,4.042,8.775A35.452,35.452,0,0,0,16.14,40.064a77.659,77.659,0,0,0,17.025,5.064,114.327,114.327,0,0,0,20.913,1.863,114.327,114.327,0,0,0,20.913-1.863,77.659,77.659,0,0,0,17.025-5.064,35.452,35.452,0,0,0,11.352-7.421c2.682-2.8,4.042-5.751,4.042-8.775s-1.36-5.976-4.042-8.775A35.452,35.452,0,0,0,92.016,7.673,77.659,77.659,0,0,0,74.991,2.609,114.327,114.327,0,0,0,54.078.746m0-.746c29.866,0,54.078,10.686,54.078,23.869S83.944,47.738,54.078,47.738,0,37.051,0,23.869,24.211,0,54.078,0Z" transform="translate(4418.221 3638.771)"/><path class="b" d="M59.3.746A125.752,125.752,0,0,0,36.354,2.785,85.393,85.393,0,0,0,17.669,8.329a50.075,50.075,0,0,0-7.134,3.806A30.441,30.441,0,0,0,5.2,16.461C2.244,19.536.746,22.781.746,26.107s1.5,6.57,4.452,9.645a30.441,30.441,0,0,0,5.337,4.326,50.075,50.075,0,0,0,7.134,3.806,85.393,85.393,0,0,0,18.685,5.544A125.752,125.752,0,0,0,59.3,51.467a125.752,125.752,0,0,0,22.945-2.039,85.393,85.393,0,0,0,18.685-5.544,50.075,50.075,0,0,0,7.134-3.806,30.441,30.441,0,0,0,5.337-4.326c2.954-3.075,4.452-6.32,4.452-9.645s-1.5-6.57-4.452-9.645a30.441,30.441,0,0,0-5.337-4.326,50.076,50.076,0,0,0-7.134-3.806A85.393,85.393,0,0,0,82.245,2.785,125.752,125.752,0,0,0,59.3.746M59.3,0c32.75,0,59.3,11.688,59.3,26.107S92.049,52.213,59.3,52.213,0,40.525,0,26.107,26.549,0,59.3,0Z" transform="translate(4413 3641.754)"/><path class="c" d="M52.261,47h-.656c-.6,0-1.183-.008-1.744-.019h-.207l-.445-.01L49.35,41l2.65.032,2.288-.024.122,5.967c-.575.012-1.156.02-1.728.023h-.42Zm2.966-.044h0l-.164-5.966c1.63-.045,3.286-.128,4.923-.248l.434,5.952c-.419.031-.793.056-1.145.079h-.045l-.039,0H59.15l-.041,0h-.041l-.041,0h-.044l-.038,0h-.122l-.041,0h-.164l-.04,0h-.041l-.04,0h-.082l-.041,0-.041,0-.041,0h-.122c-.959.052-1.948.092-2.939.119Zm-6.835-.011h0l-.215-.007-.216-.007h-.388c-.965-.037-1.936-.086-2.888-.147h-.009l-.03,0H44.6l-.035,0h-.038l-.037,0-.037,0-.024,0h-.056l-.039,0H44.3l-.039,0-.033,0h0c-.395-.027-.719-.051-1.02-.074l.455-5.951c1.626.125,3.281.214,4.921.265l-.183,5.965Zm12.843-.314h0l-.477-5.948c1.629-.132,3.272-.3,4.886-.514l.764,5.919c-1.294.169-2.613.315-3.922.436h-.006l-.017,0-.017,0H62.4l-.017,0-.017,0h-.048l-.028,0H62.2l-.016,0-.016,0h-.04l-.039,0h-.014l-.027,0-.04,0-.02,0-.02,0h-.006l-.034,0-.018,0-.03,0h-.036l-.044,0-.041,0-.04,0-.02,0-.02,0-.041,0H61.55l-.02,0-.02,0-.02,0-.02,0-.02,0-.02,0-.041,0-.021,0-.02,0-.021,0-.02,0-.02,0-.02,0h-.031ZM42.385,46.6h0c-.254-.021-.487-.042-.715-.063h-.011l-.027,0-.037,0-.018,0-.021,0-.037,0-.028,0H41.4l-.036,0-.037,0h-.007l-.037,0h-.007l-.033,0-.042,0-.04,0c-1.028-.1-2.06-.213-3.065-.338l-.039,0h-.006l-.015,0-.017,0H38l-.029,0h-.012l-.013,0-.013,0H37.9l-.018,0h-.013l-.651-.085L38,40.121c1.6.214,3.241.393,4.883.531l-.5,5.947Zm24.831-.621h0l-.81-5.912c1.631-.225,3.254-.492,4.824-.794l1.118,5.862c-1.353.26-2.735.495-4.11.7h-.009l-.031,0h0l-.035.005h-.005l-.016,0-.018,0h-.007l-.016,0-.017,0h-.007l-.015,0-.015,0H68l-.01,0-.01,0-.018,0-.024,0h-.012c-.228.034-.461.067-.712.1Zm-30.809-.053h0c-1.248-.177-2.491-.377-3.693-.595l-.018,0-.017,0h0l-.032-.006h-.006l-.032-.005h0l-.042-.008-.041-.008h-.007l-.015,0-.012,0-.013,0-.026-.005H32.43l-.012,0-.012,0h-.017l-.016,0h0l-.012,0-.012,0-.014,0-.024,0-.014,0-.011,0-.014,0-.013,0-.026,0h-.013l-.028-.005h-.011l-.015,0-.015,0h-.009l-.016,0-.016,0h0l-.019,0-.016,0h-.007l-.03-.005h-.006l-.02,0-.017,0h0l-.019,0-.018,0-.665-.128L32.42,39.2c1.551.306,3.172.579,4.817.813l-.831,5.909Zm36.742-.95h0L71.98,39.123c1.611-.324,3.2-.693,4.723-1.1L78.215,43.8c-.971.257-1.967.5-2.961.726h0l-.007,0-.007,0h0l-.007,0-.007,0h-.006l-.012,0h-.018l-.01,0-.01,0h-.021l-.015,0h0l-.007,0-.009,0h-.026l-.011,0h0l-.01,0h-.012l-.016,0-.017,0h-.006l-.029.007-.03.007-.01,0-.009,0-.021,0c-.278.062-.578.127-.945.2l-.014,0-.066.014h0l-.007,0-.007,0h-.005l-.013,0h-.008l-.012,0-.008,0-.008,0H73.8l-.01,0-.01,0-.034.007-.017,0-.011,0-.007,0H73.7l-.008,0h-.02l-.011,0-.008,0-.5.1ZM30.477,44.9h0c-1.724-.355-3.426-.757-5.059-1.2l1.539-5.765c1.518.409,3.1.784,4.713,1.115L30.478,44.9ZM79,43.586l-1.57-5.755c1.575-.433,3.11-.912,4.565-1.425l1.97,5.631c-1.552.548-3.191,1.061-4.87,1.525l-.027.007-.04.011h-.005l-.011,0-.007,0h0Zm-54.376-.1h0c-.682-.191-1.376-.4-2.062-.609l-.02-.007-.015,0-.014,0-.028-.009-.005,0-.007,0-.007,0h-.005l-.012,0-.007,0-.013,0-.005,0-.014,0H22.4l-.006,0-.005,0h-.017l-.005,0-.005,0-.007,0-.005,0-.005,0h0L22.32,42.8l-.021-.007-.009,0-.007,0c-.875-.276-1.754-.571-2.611-.879l2-5.62c1.441.518,2.972,1.005,4.553,1.448l-1.6,5.747ZM84.737,41.76h0L82.7,36.153c1.513-.554,2.965-1.158,4.317-1.795l2.525,5.4-.354.166-.019.009-.018.008,0,0-.013.005-.007,0-.01,0-.01.005-.008,0-.015.007-.005,0-.006,0-.006,0,0,0-.008,0-.008,0,0,0L89.028,40l0,0-.006,0-.007,0-.006,0-.007,0-.007,0-.007,0,0,0,0,0-.01,0-.005,0-.01,0,0,0-.017.008-.018.008,0,0-.005,0-.005,0,0,0-.017.008-.017.008,0,0-.011.005-.021.009L88.8,40.1l-.009,0-.006,0,0,0-.008,0-.006,0-.025.011-.006,0-.008,0c-.639.289-1.311.576-2,.854l-.086.035-.089.036-.057.023-.031.012-.028.011-.03.012-.029.012c-.524.209-1.077.42-1.645.629ZM18.9,41.627h0l-.255-.1-.01,0-.008,0h0l-.008,0-.027-.01-.007,0-.012,0-.005,0-.007,0-.007,0-.009,0-.013,0,0,0,0,0-.007,0-.011,0-.006,0-.029-.011-.009,0-.01,0-.006,0c-1.519-.581-2.976-1.205-4.33-1.856l2.565-5.384c1.332.64,2.777,1.252,4.295,1.819L18.9,41.626Zm71.374-2.22h0l-2.611-5.361a36.785,36.785,0,0,0,3.9-2.2l3.243,5a42.914,42.914,0,0,1-4.528,2.56Zm-76.9-.17h0l-.01,0-.016-.008-.006,0-.017-.008-.017-.008,0,0L13.3,39.2l0,0-.021-.011a42.209,42.209,0,0,1-4.085-2.34l-.012-.008-.021-.014-.008-.006,0,0-.006,0-.015-.01-.007,0,0,0,0,0-.014-.009,0,0-.006,0,0,0,0,0,0,0,0,0-.005,0,0,0-.005,0-.005,0,0,0,0,0-.005,0-.013-.009,0,0-.01-.007,0,0-.015-.01,0,0L8.974,36.7l-.01-.007-.007,0-.009-.006-.006,0-.032-.022-.021-.015-.012-.008,3.3-4.967A35.834,35.834,0,0,0,16.033,33.9l-2.652,5.34Zm82.1-2.846h0l-3.357-4.924a21.79,21.79,0,0,0,3.153-2.592L99.5,33.081l-.013.012-.014.015-.008.008-.005.005-.009.009,0,0-.011.011,0,0-.013.013,0,0-.009.009-.008.008-.006.006-.007.007-.007.006,0,0-.009.009-.01.01,0,0-.013.013-.014.013-.009.01,0,0-.013.013-.007.007-.006.006-.006.006-.009.009,0,0-.009.009-.005,0-.009.009-.015.014-.013.013-.009.009,0,0-.015.014-.013.013-.014.013-.014.014-.014.013-.007.006-.007.006-.013.013-.014.013-.008.008-.007.006-.014.014-.013.012,0,0-.012.011-.015.014L99,33.564l-.014.014-.028.026-.014.013-.028.026-.008.008-.006.006-.029.027-.014.013-.026.025,0,0-.006.006-.006.006-.016.015-.012.011-.013.013-.029.027,0,0-.006.005-.007.006-.007.007-.006.006-.007.006-.007.006,0,0-.013.011,0,0-.011.011-.014.013,0,0-.012.011-.014.012-.014.013,0,0-.006.005-.006.005,0,0-.006.005-.006.005-.008.007-.006.006,0,0-.013.011-.008.007-.006.005,0,0L98.536,34,98.53,34l0,0-.013.011-.008.007-.006.005,0,0-.006.005-.006.005,0,0-.006.005-.006.005-.013.012,0,0-.006.005-.006.005,0,0-.012.011,0,0-.01.009,0,0-.006.005-.006.005,0,0-.006.005-.006.005-.008.007-.005,0,0,0-.011.011,0,0-.012.011,0,0-.005,0-.005,0,0,0,0,0-.009.008,0,0-.006.005-.006.005,0,0-.01.008,0,0-.006.005-.006.005,0,0-.005,0-.005,0-.005,0,0,0,0,0,0,0-.011.009-.005,0-.005,0,0,0,0,0-.005,0,0,0,0,0-.006.005-.005,0,0,0-.01.009-.006.006,0,0,0,0-.005,0-.005,0-.005,0,0,0,0,0-.007.007,0,0,0,0-.007.007-.005,0,0,0-.006.005,0,0,0,0,0,0,0,0-.007.006-.006,0,0,0-.006.005,0,0-.005,0-.006.005,0,0,0,0-.007.006,0,0,0,0L98,34.466l0,0-.007.006,0,0-.006.005,0,0-.007.006-.006,0,0,0-.006.005,0,0-.007.006-.006.005,0,0,0,0,0,0,0,0-.007.006-.007.005-.01.008,0,0,0,0,0,0,0,0-.005,0-.005,0-.007.005-.006.006-.005,0-.005,0,0,0,0,0-.006.005-.005,0-.005,0,0,0,0,0-.007.006-.005,0-.005,0,0,0,0,0,0,0,0,0,0,0-.005,0,0,0,0,0,0,0,0,0-.007.007-.005,0-.005,0,0,0-.006,0-.005,0,0,0h0l0,0-.007.006-.007.007-.01.008,0,0-.006,0-.006.005,0,0-.006,0,0,0-.008.007-.008.007,0,0-.008.007-.008.006-.024.02-.006,0L97.6,34.8l-.008.006-.007.006,0,0,0,0-.013.011,0,0-.017.013-.006.005,0,0-.006.005-.012.01-.011.009-.008.007-.017.014-.011.009-.011.009-.009.007-.009.007-.017.014,0,0-.023.019-.023.018-.024.019-.005,0-.019.015-.049.039-.243.193c-.164.128-.325.251-.479.366l-.051.038-.039.029-.012.009-.1.075-.026.019-.025.018-.011.008-.021.015-.007.005-.012.009-.008.006-.013.009-.006.005,0,0-.01.007-.01.007-.031.023-.016.012,0,0,0,0-.018.013-.01.007-.016.012,0,0-.012.009,0,0-.015.011,0,0L96.04,36l-.012.009-.009.007-.006,0,0,0,0,0L96,36.032l-.007.005-.005,0,0,0,0,0-.005,0-.005,0-.008.005,0,0,0,0-.013.009-.006,0-.006,0-.006,0,0,0-.006,0,0,0,0,0,0,0-.01.007,0,0,0,0,0,0-.014.01,0,0,0,0-.008.006-.005,0,0,0-.01.007-.005,0,0,0-.009.006-.005,0-.006,0-.006,0-.006,0-.011.007,0,0,0,0-.007,0-.007,0-.005,0-.006,0-.006,0-.005,0-.013.009,0,0-.013.009-.005,0-.009.006,0,0-.017.012,0,0-.007.005-.007.005,0,0-.011.008,0,0-.01.007-.008.005,0,0-.015.011-.019.013-.016.011-.019.013-.018.012-.017.012-.01.007-.008.006ZM8.2,36.173h0a29.4,29.4,0,0,1-2.615-2.066l-.03-.027-.03-.027-.015-.014L5.5,34.026l-.015-.013-.029-.025-.006-.006-.01-.008-.043-.04-.011-.009,0,0-.013-.012-.015-.014-.015-.014-.008-.007-.007-.007-.007-.006-.007-.007,0,0-.011-.01-.011-.01-.018-.017-.009-.007L5.246,33.8l-.028-.027L5.2,33.759l-.014-.014-.014-.012-.008-.008-.006-.006L5.143,33.7l-.012-.011-.008-.007-.006-.006L5.1,33.664l-.013-.012-.011-.01,0,0-.008-.007-.008-.007-.013-.013L5.032,33.6l-.008-.007-.008-.007-.01-.01,0,0-.015-.014-.015-.014-.013-.013-.014-.013-.008-.007L4.931,33.5l-.007-.007-.006-.006L4.9,33.476l0,0-.012-.011-.015-.014-.013-.013-.008-.008-.007-.006-.007-.007-.007-.006L4.826,33.4l-.007-.006-.005-.005-.009-.009-.014-.013-.013-.013-.014-.014-.027-.027-.008-.008L4.723,33.3l-.011-.01L4.7,33.272l-.014-.013-.015-.015-.013-.013-.008-.007-.006-.006L4.626,33.2l-.013-.013L4.6,33.176l-.009-.009-.018-.018-.013-.013-.041-.042L4.5,33.08l-.027-.027-.24-.247,4.289-4.132a20.974,20.974,0,0,0,3.089,2.613L8.2,36.172Zm91.861-3.685h0l-4.372-4.042c.211-.23.413-.465.6-.7A14.794,14.794,0,0,0,97.8,25.853l5.164,2.331a15.278,15.278,0,0,1-1.907,3.125c-.308.395-.643.791-1,1.178ZM3.682,32.2h0a17.991,17.991,0,0,1-1.519-1.973l0,0,0,0-.006-.009,0,0,0,0,0,0,0,0,0-.006,0,0-.005-.008,0,0,0,0-.006-.008,0,0,0,0,0,0,0,0L2.1,30.134l0,0,0,0,0,0,0,0,0,0,0,0L2.078,30.1l-.005-.008-.005-.009,0,0,0-.005,0-.005,0,0-.005-.008,0-.008-.006-.01-.009-.013-.008-.013,0,0,0,0-.011-.017L2,29.969c-.037-.059-.074-.117-.109-.175l0-.008-.006-.01,0,0,0,0,0-.006,0,0,0,0,0,0,0-.006,0,0,0-.005,0,0v0h0l0,0-.005-.009,0-.005,0,0,0-.006,0,0-.005-.009,0-.006,0,0,0-.007-.005-.009L1.8,29.655l0-.006,0,0-.005-.009-.005-.009,0-.009-.005-.009,0-.005,0,0,0,0,0,0-.005-.009-.005-.009-.005-.009,0,0,0,0L1.74,29.55l-.005-.009-.005-.009,0,0,0-.005,0-.005,0,0-.005-.009,0,0,0,0,0-.005,0,0,0-.008,0-.005,0-.007,0-.005,0-.006,0,0,0-.007,0,0,0-.006-.061-.106,0,0,0,0,0-.007,0,0,0-.007,0,0,0,0a.035.035,0,0,1,0-.009l0-.005,0,0,0-.005,0,0,0-.005,0,0,0-.009,0-.005,0,0,0-.007,0,0,0,0,0,0,0-.006,0,0,0-.008,0,0,0,0,0-.009,0-.009,0-.009,0-.009-.005-.009a.034.034,0,0,0,0-.009l0-.009,0-.005h0l0,0,0-.009,0,0,0-.005,0,0,0-.006,0-.008,0-.005,0,0,0,0,0-.006,0-.008-.006-.009,0-.006,0,0,0-.008c-.212-.4-.4-.8-.571-1.207l5.491-2.283a9.833,9.833,0,0,0,1.757,2.7L3.682,32.2Zm99.6-4.778h0l-5.224-1.96a10.341,10.341,0,0,0,1.171-2.64l4.708-.531c.041.364.063.735.067,1.1v.071a.038.038,0,0,0,0,0,.043.043,0,0,1,0,0v.193a.066.066,0,0,0,0,.011v.027a.07.07,0,0,0,0,.011v.023a.036.036,0,0,0,0,0v.019a.038.038,0,0,1,0,.005.032.032,0,0,0,0,0v.017a.063.063,0,0,0,0,.009v.011a.033.033,0,0,1,0,.009v.039a.038.038,0,0,0,0,.009v.009a.063.063,0,0,0,0,.009V23.9a.049.049,0,0,0,0,.009v.018a.033.033,0,0,1,0,.009.169.169,0,0,1,0,.019v.009a.061.061,0,0,0,0,.009c0,.005,0,.009,0,.012s0,.006,0,.009a.036.036,0,0,1,0,.005.032.032,0,0,0,0,0v.028s0,.007,0,.011v.009a.051.051,0,0,0,0,.009.038.038,0,0,1,0,.009s0,.007,0,.01,0,.006,0,.009a.054.054,0,0,0,0,.009v.009a.032.032,0,0,1,0,.009c0,.005,0,.008,0,.011s0,.006,0,.009a.054.054,0,0,0,0,.009v.011a.036.036,0,0,1,0,.008.048.048,0,0,1,0,.01V24.2c0,.01,0,.014,0,.019a.042.042,0,0,0,0,.009.051.051,0,0,0,0,.009v.029a.041.041,0,0,0,0,.009.055.055,0,0,0,0,.009v.029a.045.045,0,0,0,0,.009.054.054,0,0,0,0,.009v.02a.038.038,0,0,1,0,.009.043.043,0,0,1,0,.009V24.4a.049.049,0,0,0,0,.009v.048c0,.012,0,.023,0,.035a.1.1,0,0,1,0,.013c0,.006,0,.013,0,.019s0,.012,0,.019v.009c0,.009,0,.019,0,.028a.037.037,0,0,1,0,0,.04.04,0,0,0,0,0V24.6l0,.017c0,.007,0,.013,0,.02v.013c0,.005,0,.01,0,.016a.036.036,0,0,1,0,0,.032.032,0,0,0,0,0v.01l0,.013,0,.015a.036.036,0,0,1,0,.006v0c0,.013,0,.024,0,.037a.036.036,0,0,1,0,0,.039.039,0,0,0,0,0c0,.013,0,.026,0,.038l-.006.047,0,.022,0,.025c-.043.333-.1.671-.178,1.006-.042.188-.092.387-.149.59a.034.034,0,0,0,0,.007l0,.009c0,.014-.007.026-.011.038s-.007.025-.011.037v.009l0,.005v0l0,.01,0,.009,0,0v0l0,.005v0l0,.015,0,.013,0,0h0v.013l0,.014,0,.013v.018l0,.009,0,.009,0,.009v.009l0,.006v0l0,.009,0,.009,0,.006v0l0,.005v0l0,.014v0l0,.005v.005a.022.022,0,0,0,0,.006l0,.006v0l0,.01,0,.009,0,.006V26.9a.044.044,0,0,0,0,.01h0v.008a.01.01,0,0,0,0,0,.012.012,0,0,0,0,0v0l0,0,0,.01a.044.044,0,0,0,0,.01l0,.006,0,.006,0,0,0,.006a.027.027,0,0,1,0,.006.009.009,0,0,1,0,0,.038.038,0,0,1,0,.008.01.01,0,0,1,0,0v.005l0,.006v.02l0,.006v0l0,0h0v.009l0,0,0,.006,0,0a.179.179,0,0,1-.007.021l0,0,0,0,0,.006-.005.015,0,.014,0,.005,0,.005v0l0,0h0l-.006.017,0,0,0,.006,0,.006v0l0,.007-.005.016,0,.014,0,.007-.007.02-.006.018-.006.015-.01.03-.025.069-.013.036ZM.594,27.064h0l-.008-.026c0-.008-.005-.015-.007-.021l0-.006,0-.015,0-.013-.005-.014,0-.012,0-.015,0-.012L.541,26.9l0-.015,0-.012,0-.015,0-.006,0-.006v0a.061.061,0,0,0,0-.01.085.085,0,0,0,0-.013l0-.009,0-.006a.111.111,0,0,1,0-.013v0l0,0,0-.005,0-.008,0-.005v-.014l0-.007,0-.006a.009.009,0,0,1,0,0l0,0,0,0,0-.008,0-.005v0a.038.038,0,0,0,0-.008v-.015a.013.013,0,0,1,0,0v-.014a.049.049,0,0,1,0-.009l0,0v-.013a.05.05,0,0,1,0-.009v0l0-.006,0-.006V26.6l0-.005,0-.007,0-.006v-.009l0-.005,0-.007,0-.006v-.009l0-.005v-.007l0-.005a.04.04,0,0,0,0-.01v-.01l0-.006v0a.061.061,0,0,0,0-.009v-.005a.019.019,0,0,1,0-.006l0-.006,0-.006,0-.007,0-.009a.068.068,0,0,0,0-.009v-.006l0-.006,0-.005a.083.083,0,0,1,0-.011l0-.005a.026.026,0,0,0,0-.007v-.008a.057.057,0,0,1,0-.009v0l0-.007v0l0-.012,0-.007v-.006c0-.007,0-.012,0-.018v-.012l0-.011,0-.012v0l0-.012,0-.012v0l0-.012,0-.012v0l0-.009,0-.016,0-.007v0l0-.008,0-.008,0-.006c0-.007,0-.015-.005-.021v0c0-.006,0-.014-.005-.021h0l0-.006,0-.008,0-.016,0-.007v0l0-.009,0-.007V26.06l0-.009,0-.008,0-.007v0l0-.009,0-.008v0a.039.039,0,0,1,0-.007.141.141,0,0,1,0-.017l0-.007v0c0-.007,0-.012,0-.017l0-.008v-.005a.139.139,0,0,1,0-.014.009.009,0,0,1,0,0v-.007l0-.01,0-.006a.012.012,0,0,0,0,0,.023.023,0,0,1,0-.007l0-.01,0-.007,0-.007v-.009l0-.012,0-.006v0c0-.006,0-.012,0-.017V25.81c0-.007,0-.012,0-.017l0-.008v-.01a.085.085,0,0,1,0-.01l0-.006v0c0-.006,0-.013,0-.017a.033.033,0,0,1,0-.006v-.009l0-.013a.041.041,0,0,0,0-.007v0a.123.123,0,0,1,0-.015v-.011c0-.007,0-.013,0-.017v-.01l0-.008,0-.01v-.009l0-.011V25.6a.034.034,0,0,1,0-.006v0l0-.01V25.56c0-.007,0-.013,0-.019v-.009c0-.008,0-.014,0-.019V25.5c0-.007,0-.015,0-.022s0-.009,0-.012v-.007a.05.05,0,0,1,0-.009.165.165,0,0,1,0-.019l0-.009,0-.013,0-.015a.169.169,0,0,1,0-.019l0-.009c0-.006,0-.009,0-.011l0-.008a.028.028,0,0,0,0-.008h0v0a.114.114,0,0,0,0-.016.034.034,0,0,0,0-.008h0v-.02a.039.039,0,0,0,0-.008l0-.013,0-.015v-.008c0-.007,0-.014,0-.02l0-.019v-.012l0-.016V25.17h0v0a.206.206,0,0,0,0-.024v0c0-.008,0-.016,0-.024a.009.009,0,0,1,0,0V25.1h0c0-.007,0-.011,0-.016a.013.013,0,0,0,0-.005c0-.007,0-.015,0-.023a.011.011,0,0,0,0,0,.031.031,0,0,0,0,0,.034.034,0,0,1,0-.008l0-.011a.01.01,0,0,0,0,0V25a.019.019,0,0,0,0-.006v-.006a.058.058,0,0,1,0-.011.01.01,0,0,1,0,0v-.007a.016.016,0,0,0,0-.006v-.016a.065.065,0,0,1,0-.007v-.006a.035.035,0,0,0,0-.007.045.045,0,0,0,0-.008.026.026,0,0,0,0-.007v-.021a.025.025,0,0,1,0-.007.017.017,0,0,1,0-.005.065.065,0,0,1,0-.011.011.011,0,0,1,0,0v-.007a.016.016,0,0,0,0-.006.044.044,0,0,0,0-.008.034.034,0,0,0,0-.008.026.026,0,0,0,0-.007v-.016a.017.017,0,0,0,0-.005.064.064,0,0,1,0-.007v-.015a.019.019,0,0,0,0-.006v-.022a.019.019,0,0,0,0-.006v-.013a.034.034,0,0,0,0,0,.032.032,0,0,1,0,0v-.007a.016.016,0,0,0,0-.006.032.032,0,0,0,0-.008c0-.006,0-.007,0-.008v-.013a.022.022,0,0,1,0-.007v-.008a.021.021,0,0,0,0-.007v-.006a.021.021,0,0,0,0-.007.037.037,0,0,0,0,0,.062.062,0,0,1,0-.011.023.023,0,0,1,0-.007.019.019,0,0,1,0-.006v-.009a.021.021,0,0,0,0-.007.017.017,0,0,0,0-.006.028.028,0,0,0,0-.007.026.026,0,0,0,0-.007.031.031,0,0,0,0,0v-.007a.049.049,0,0,0,0-.01c0-.005,0-.006,0-.007s0-.006,0-.007v-.013a.041.041,0,0,0,0,0s0,0,0,0v-.016a.024.024,0,0,1,0,0c0-.006,0-.007,0-.008v-.01a.048.048,0,0,0,0-.01.028.028,0,0,0,0-.007.032.032,0,0,0,0-.008.019.019,0,0,0,0-.006.023.023,0,0,0,0-.007V24.43a.031.031,0,0,1,0-.007v-.006s0,0,0-.005,0,0,0,0V24.4a.029.029,0,0,0,0-.007v-.021a.03.03,0,0,1,0-.007v-.005s0,0,0,0a.05.05,0,0,1,0-.005.013.013,0,0,0,0-.005.033.033,0,0,0,0-.008v0s0,0,0-.005,0,0,0-.005v-.005a.026.026,0,0,0,0-.007v0a.061.061,0,0,1,0-.011.017.017,0,0,1,0-.005v0a.031.031,0,0,1,0,0v0a.066.066,0,0,1,0-.011.01.01,0,0,1,0,0,.031.031,0,0,0,0,0,.034.034,0,0,1,0,0v0a.065.065,0,0,1,0-.011.012.012,0,0,1,0,0,.025.025,0,0,0,0-.007v0a.066.066,0,0,1,0-.011.013.013,0,0,0,0,0V24.2a.009.009,0,0,1,0,0s0,0,0-.005a.061.061,0,0,1,0-.006v0a.033.033,0,0,1,0-.008.007.007,0,0,0,0,0,.066.066,0,0,0,0-.011v0a.044.044,0,0,0,0-.009.1.1,0,0,0,0-.01s0,0,0-.005v0a.047.047,0,0,1,0-.009V24.1s0,0,0-.006a.067.067,0,0,0,0-.013.082.082,0,0,0,0-.015v0a.031.031,0,0,0,0,0,.033.033,0,0,1,0,0v0s0,0,0-.006,0,0,0-.006a.061.061,0,0,0,0-.008.042.042,0,0,1,0,0v0s0,0,0-.005,0,0,0-.006v0a.04.04,0,0,0,0,0,.043.043,0,0,1,0,0v0s0,0,0-.005,0,0,0-.006v0a.04.04,0,0,0,0,0,.042.042,0,0,1,0,0v0s0,0,0-.005a.06.06,0,0,1,0-.006v0a.039.039,0,0,0,0-.009v-.015a.009.009,0,0,1,0,0V23.91a.074.074,0,0,1,0-.012.06.06,0,0,0,0-.008.051.051,0,0,1,0-.005.1.1,0,0,0,0-.015v-.013a.148.148,0,0,1,0-.015.067.067,0,0,0,0-.013v-.016A.09.09,0,0,1,0,23.8v-.1a.066.066,0,0,0,0-.008.051.051,0,0,1,0-.005v-.029a.093.093,0,0,0,0-.009s0,0,0-.006V23.5H5.734c.074.2.157.413.248.621a5.318,5.318,0,0,0,.241,1.032L.595,27.064Zm98.753-4.735h0a8.5,8.5,0,0,0-.071-3.927l2.518-1.694c.271.407.519.819.737,1.225l0,0,0,0c.039.073.078.147.116.22a12.249,12.249,0,0,1,1.159,3.321l-4.463.847ZM5.381,22.261h0L.266,21.106A11.936,11.936,0,0,1,.8,19.358a.035.035,0,0,0,0-.009l0-.006v0l0,0,0,0,0-.009c.03-.077.064-.16.107-.262l0,0,0,0,0-.005,0,0,0-.009a14.522,14.522,0,0,1,1.484-2.642l3.015,2.133a8.5,8.5,0,0,0-.055,3.736Zm.243-4.407h0L2.908,15.732c.2-.26.408-.512.612-.749l.043-.05,0,0,0,0,0,0,0,0,0-.005,0,0,.017-.019.012-.014,0,0,0,0,.007-.008.007-.008.024-.028.02-.023.017-.019.035-.039.007-.008,0,0,0,0,0,0,0,0,.016-.018.014-.016,0,0,0,0,0,0,0,0,.007-.008,0,0,0,0,.015-.016.015-.017,0-.005,0,0,0,0,0,0,0,0,0,0,0,0,0,0,.091-.1A24.369,24.369,0,0,1,6.579,12.05l1.407,1.756a11.8,11.8,0,0,0-2.362,4.048Zm93.449-.138h0a12.046,12.046,0,0,0-2.465-4.079l1.108-1.344c.594.493,1.157,1,1.673,1.52l0,0,0,0,.006.005,0,0,.032.032,0,0,0,0,0,0,0,0,.006.006.006.007,0,0,.011.011.021.021.005.005,0,0,0,0,0,0,.008.008.007.007.006.006,0,0,.012.012.012.012.008.009,0,0,0,0,.007.007,0,0,0,0,.009.009.012.013.012.012.008.008,0,0,0,0,0,0,0,0,0,0,0,.005.005.005.006.006.009.009.012.012.012.012,0,0,0,0,0,.005,0,0,.008.007,0,.006,0,0,.009.009.013.013,0,0,.007.008.007.008,0,.005,0,0,0,0,0,0h0l0,0,0,0,.008.009,0,.005,0,0,0,0,0,0,.007.008,0,.005,0,0,0,0,0,0,0,0,0,0,0,0,0,0,0,0,0,0,0,0,0,0,0,0,.005.005,0,0,.006.006,0,0,0,0,0,0,0,0,0,0,0,0,0,0,0,0,0,0,0,.005,0,0,0,.005,0,0,.007.007.008.009,0,0,0,0,.007.008,0,.005,0,0,0,0,0,0,0,0,0,.005,0,0,0,0,0,0,0,0,.015.017.009.009.007.007,0,0,0,0,0,0,0,.006,0,0,0,0,0,0,0,.005.022.023,0,0,.006.006,0,0,0,0,0,0,0,0,0,0,0,0,.008.009.023.026.007.007,0,.005,0,0,.006.007.005.005,0,0,0,0,0,0,.027.03,0,0,.007.008.007.008,0,0,.012.013.025.028,0,0,0,0,0,0,0,0,.007.008.007.009,0,0,0,0,.027.031.031.035,0,0,0,0,.022.024.007.009.007.008,0,0,0,0,0,0,0,0c.3.342.582.694.846,1.047l0,.005,0,0,.007.009.019.025.019.026,0,.005-2.248,1.679ZM8.5,13.235h0l-1.279-1.69c.716-.547,1.49-1.086,2.3-1.605l.033-.02L9.592,9.9l0,0,.031-.02.034-.021.018-.012.016-.01.016-.01.018-.012.006,0L9.751,9.8l.007,0,.005,0,.021-.013L9.8,9.767l.015-.009.006,0,.035-.022.009-.005,0,0,.021-.013,0,0,.03-.019.005,0,0,0,0,0,.006,0,.006,0,0,0,0,0,0,0,0,0,.008,0,.007,0,0,0,.009-.006.005,0,.013-.009.007,0,.009-.005,0,0,0,0,.013-.008.007,0,.009,0,.007,0,.013-.008.007,0,.006,0,.006,0,0,0,0,0,.008-.006.007,0,.005,0,0,0,.008,0,.005,0,.005,0,0,0,0,0,.008,0,.009-.005.005,0,.005,0,0,0,0,0,.007,0,.007,0,.007,0,.006,0L10.23,9.5l0,0,0,0,.007,0,.007,0,.005,0,.005,0,.005,0,.006,0,.007,0,.007,0,.006,0,.009-.006,0,0,.01-.006.007,0,.005,0,.005,0,.006,0,.005,0,.014-.009.005,0,.006,0,.006,0,.005,0,.013-.008.006,0,.005,0,.005,0,0,0,0,0,.01-.006h0l0,0,.009-.006.005,0,.005,0,.013-.008,0,0,.005,0,.01-.006.006,0,.012-.007,0,0,.007,0,.008,0,0,0,.006,0,.006,0,.005,0,.014-.009.006,0,.011-.007.005,0,.005,0,.009-.005,0,0,.012-.007,0,0,0,0,.011-.007.005,0,.013-.007,0,0,.009-.006.006,0,0,0,.007,0,.007,0,.013-.008,0,0,0,0,.014-.008,0,0,.015-.009.005,0,.014-.009.017-.01,0,0,.016-.009.005,0,.011-.007,0,0,.016-.009.006,0,.011-.007h0l0,0,.016-.009.009-.005.009-.005.011-.006L10.9,9.1l.017-.009.013-.008.006,0,.01-.006.008,0,.01-.006.008-.005.011-.006.008-.005.018-.01.02-.011.018-.01.074-.042.019-.011.018-.01.428-.242.745,1.348A22.593,22.593,0,0,0,8.5,13.234Zm87.576-.169h0a23.222,23.222,0,0,0-3.9-3.161L92.747,8.9c.789.449,1.542.912,2.24,1.374l.017.011.016.011.016.011.016.011.012.008.02.014,0,0,.009.006.009.006.006,0,0,0,.005,0,.007,0,.007,0,.005,0,.006,0,0,0,.014.009,0,0,0,0,0,0,0,0,.006,0,.006,0,.006,0,0,0,0,0,0,0,0,0,.005,0,.01.006.006,0,.007,0,0,0,.011.008.008,0,0,0,0,0,0,0,0,0,.005,0,.005,0,.007,0,0,0,0,0,.009.006,0,0,0,0,0,0,0,0,0,0,0,0,.008.006,0,0,0,0,.006,0,.006,0,.006,0,0,0,.005,0,.005,0,.006,0,.013.009.005,0,0,0,.006,0,.006,0,.009.007,0,0,0,0,.009.006.007,0,0,0,.009.006,0,0,.006,0,0,0,0,0,.007,0,.007,0,0,0,.006,0,.006,0,.01.006.007.005,0,0,.012.009,0,0,.006,0,.006,0,0,0,.01.007.005,0,.008.005.007.005.01.007.007.005.012.008,0,0,.017.011.009.006.008.005,0,0,.012.008.033.024.016.012.016.011c.453.318.9.647,1.32.978l-1,1.287ZM13,9.626h0l-.691-1.306c1.466-.782,3.05-1.523,4.709-2.2l.45,1.1A38.416,38.416,0,0,0,13,9.625Zm78.51-.151h0a39.286,39.286,0,0,0-4.513-2.386l.344-.828c1.066.446,2.1.919,3.082,1.4l.085.042.059.029.018.009.036.018.035.018.006,0,.012.006.035.018.013.006.04.02.032.016.02.01.02.01.018.009.019.009.035.018.053.027.018.009.017.009c.352.18.7.365,1.042.551l-.525.973ZM18.2,6.889h0l-.423-1.08c1.552-.614,3.2-1.192,4.909-1.72l.3.964c-1.682.562-3.29,1.18-4.78,1.836Zm68.058-.127h0c-1.5-.647-3.113-1.258-4.807-1.814L81.68,4.2c.324.1.635.2.953.307l.048.016.011,0,.012,0,.006,0,.005,0,.006,0,.009,0,.012,0,.009,0h.005l.013,0,.006,0,.006,0,0,0H82.8l0,0,0,0,.008,0,.017.006.01,0h.008l.009,0,.008,0,.005,0,.005,0h0l.041.014c1.256.421,2.487.873,3.658,1.345l-.324.812ZM23.745,4.8h0l-.28-.949c1.25-.372,2.546-.721,3.85-1.04h0l.006,0,.007,0h.023l.014,0,.007,0,.038-.009.017,0,.01,0,.01,0h.018l.006,0,.006,0h.006l.016,0c.285-.069.6-.143.992-.234l.2.881c-1.707.416-3.372.883-4.95,1.388Zm56.934-.1h0c-1.58-.5-3.251-.958-4.967-1.368l.165-.713.044.01.036.009.018,0h.006l.007,0,.007,0H76l.007,0,.008,0h.017l.006,0,.006,0h.019l.012,0,.011,0,.01,0,.01,0h0l.008,0,.008,0c1.637.389,3.244.821,4.774,1.284l-.222.738Zm-51.2-1.475h0l-.19-.871c1.666-.366,3.385-.693,5.11-.974l.133.828c-1.719.294-3.419.636-5.053,1.017Zm45.44-.078h0c-1.633-.373-3.336-.709-5.062-1l.117-.707.063.01.044.007.029.005h.012l.015,0,.015,0h.012l.013,0,.013,0,.009,0,.009,0,.021,0,.011,0,.011,0,.016,0,.012,0,.012,0,.009,0,.009,0,.024,0h.016l.027,0h.013l.03.005h.01l.017,0,.014,0h.009l.017,0,.015,0h.008l.017,0,.017,0h.006l.038.007h0l.035.006h.006l.035.006h0l.018,0,.018,0,.038.007h0l.055.01.067.011c1.437.254,2.852.536,4.207.841l-.158.71ZM35.333,2.075h0l-.126-.822C36.9.992,38.631.77,40.366.59l.081.793c-1.723.188-3.443.421-5.113.692Zm33.725-.056h0c-1.667-.264-3.39-.491-5.119-.674L64.014.63c1.744.186,3.478.415,5.155.681l-.111.707Zm-27.8-.72h0L41.179.51l.181-.017.081-.008.019,0,.019,0,.017,0h.028l.029,0h.121l.033,0,.02,0,.02,0,.039,0,.02,0,.02,0h.038l.029,0H41.9l.031,0h.047l.018,0,.018,0h.022l.018,0h.022l.018,0h.009l.031,0,.04,0,.04,0,.04,0,.021,0,.019,0,.02,0,.02,0,.021,0,.019,0L42.4.4l.019,0,.019,0,.021,0h.007l.034,0,.02,0,.02,0,.041,0,.039,0,.021,0,.02,0,.02,0,.02,0,.02,0,.02,0,.036,0h.044l.02,0h.021l.02,0,.019,0,.02,0,.02,0h0l.036,0h.045l.035,0h.006l.033,0h.047l.033,0h.094l.025,0h.01l.03,0h.04l.02,0,.02,0h.039l.02,0,.02,0h.04l.037,0,.021,0,.02,0h.04L43.7.3l.035,0h0l.038,0C44.624.231,45.5.179,46.365.136L46.4.9c-1.723.091-3.454.224-5.148.4ZM63.13,1.263h0C61.44,1.1,59.706.97,57.978.884l.038-.728c.376.019.732.04,1.089.062l.039,0h.11l.04,0H59.3l.037,0h.078l.04,0,.041,0,.04,0,.035,0h.043l.02,0h.02c1.191.079,2.384.178,3.548.294l-.07.715ZM47.213.863h0L47.182.1c.424-.017.767-.03,1.081-.04h6.355l.322.007h.082c.7.018,1.434.044,2.177.077l-.032.731c-1.576-.067-3.189-.1-4.795-.1-1.721,0-3.456.039-5.157.117Z" transform="translate(4420 3632)"/><ellipse class="d" cx="48.5" cy="45" rx="48.5" ry="45" transform="translate(4423 3597)"/><path class="e" d="M48.906.886a51.979,51.979,0,0,0-18.841,3.48,49.9,49.9,0,0,0-8.209,4.077,47.921,47.921,0,0,0-7.138,5.389,45.436,45.436,0,0,0-5.872,6.512A42.81,42.81,0,0,0,4.43,27.789a40.288,40.288,0,0,0,0,33.93,42.81,42.81,0,0,0,4.417,7.445,45.436,45.436,0,0,0,5.872,6.512,47.921,47.921,0,0,0,7.138,5.389,49.9,49.9,0,0,0,8.209,4.077,52.742,52.742,0,0,0,37.681,0,49.9,49.9,0,0,0,8.209-4.077,47.921,47.921,0,0,0,7.138-5.389,45.436,45.436,0,0,0,5.872-6.512,42.81,42.81,0,0,0,4.417-7.445,40.288,40.288,0,0,0,0-33.93,42.81,42.81,0,0,0-4.417-7.445,45.436,45.436,0,0,0-5.872-6.512,47.921,47.921,0,0,0-7.138-5.389,49.9,49.9,0,0,0-8.209-4.077A51.979,51.979,0,0,0,48.906.886m0-.886c27.01,0,48.906,20.037,48.906,44.754s-21.9,44.754-48.906,44.754S0,69.471,0,44.754,21.9,0,48.906,0Z" transform="translate(4422.647 3597)"/><path class="f" d="M29.836,1.119A64.748,64.748,0,0,0,18.42,2.1,43.4,43.4,0,0,0,9.176,4.744a18.951,18.951,0,0,0-6.039,3.79A5.953,5.953,0,0,0,1.119,12.68a5.953,5.953,0,0,0,2.019,4.147,18.951,18.951,0,0,0,6.039,3.79,43.4,43.4,0,0,0,9.244,2.646,64.748,64.748,0,0,0,11.416.979,64.748,64.748,0,0,0,11.416-.979A43.4,43.4,0,0,0,50.5,20.617a18.951,18.951,0,0,0,6.039-3.79,5.953,5.953,0,0,0,2.019-4.147,5.953,5.953,0,0,0-2.019-4.147A18.951,18.951,0,0,0,50.5,4.744,43.4,43.4,0,0,0,41.252,2.1a64.748,64.748,0,0,0-11.416-.979m0-1.119C46.314,0,59.672,5.677,59.672,12.68s-13.358,12.68-29.836,12.68S0,19.683,0,12.68,13.358,0,29.836,0Z" transform="translate(4442.09 3638.771)"/></g></svg>