<svg xmlns="http://www.w3.org/2000/svg" width="40" height="40" viewBox="0 0 40 40"><defs><style>.a,.c{fill:#12c49b;}.b{opacity:0.2;}.c{stroke:rgba(0,0,0,0);}.d{fill:rgba(255,255,255,0);}</style></defs><g transform="translate(0 -2.5)"><g transform="translate(-1394.365 -961.615)"><path class="a" d="M1433.515,985.589a1.178,1.178,0,0,1-.335-.043,18.946,18.946,0,0,1-17.422,17.433,1.413,1.413,0,0,1,.031.286,1.7,1.7,0,0,1-.012.18,19.4,19.4,0,0,0,17.868-17.862A.946.946,0,0,1,1433.515,985.589Zm.167-2.3a.789.789,0,0,0-.167-.018.779.779,0,0,0-.3.056c.012.267.018.527.018.794s-.006.528-.018.794a.778.778,0,0,0,.3.056.793.793,0,0,0,.167-.018c.013-.273.019-.553.019-.832S1433.695,983.56,1433.682,983.286Zm-18.544-18.538c-.273-.012-.546-.019-.82-.019s-.546.007-.819.019a.858.858,0,0,0-.031.217.659.659,0,0,0,.044.249c.266-.013.54-.019.806-.019s.54.006.807.019a.659.659,0,0,0,.044-.249A.858.858,0,0,0,1415.138,964.748Zm.639.037a1.706,1.706,0,0,1,.012.18,1.085,1.085,0,0,1-.031.286,18.947,18.947,0,0,1,17.422,17.44,1.178,1.178,0,0,1,.335-.044.937.937,0,0,1,.13.006A19.415,19.415,0,0,0,1415.777,964.785Zm-2.9,38.194a18.943,18.943,0,0,1-17.422-17.409,1.51,1.51,0,0,1-.242.019,1.293,1.293,0,0,1-.223-.019,19.41,19.41,0,0,0,17.868,17.875,1.7,1.7,0,0,1-.012-.18A1.4,1.4,0,0,1,1412.879,1002.979Zm-.031-38.014a1.706,1.706,0,0,1,.012-.18,19.416,19.416,0,0,0-17.868,17.881,1.293,1.293,0,0,1,.223-.019,1.51,1.51,0,0,1,.242.019,18.944,18.944,0,0,1,17.422-17.415A1.08,1.08,0,0,1,1412.848,964.965Zm-17.633,18.3a.609.609,0,0,0-.26.049q-.019.4-.019.8t.019.8a.609.609,0,0,0,.26.049.582.582,0,0,0,.205-.031q-.018-.41-.018-.819t.018-.819A.58.58,0,0,0,1395.215,983.268Zm19.91,19.748c-.267.013-.54.019-.807.019s-.54-.006-.806-.019a.659.659,0,0,0-.044.249.858.858,0,0,0,.031.217c.273.012.546.019.819.019s.547-.007.82-.019a.858.858,0,0,0,.031-.217A.659.659,0,0,0,1415.125,1003.016Z"/><g class="b"><circle class="c" cx="15.897" cy="15.897" r="15.897" transform="translate(1398.422 968.219)"/></g><path class="a" d="M1415.169,964.965a.659.659,0,0,1-.044.249.841.841,0,0,1-1.613,0,.659.659,0,0,1-.044-.249.858.858,0,0,1,.031-.217.847.847,0,0,1,1.639,0A.858.858,0,0,1,1415.169,964.965Z"/><path class="a" d="M1415.169,1003.265a.858.858,0,0,1-.031.217.847.847,0,0,1-1.639,0,.858.858,0,0,1-.031-.217.659.659,0,0,1,.044-.249.847.847,0,0,1,.806-.6.836.836,0,0,1,.807.6A.659.659,0,0,1,1415.169,1003.265Z"/><path class="a" d="M1434.365,984.118a.847.847,0,0,1-.683.832.793.793,0,0,1-.167.018.778.778,0,0,1-.3-.056.855.855,0,0,1-.553-.794.843.843,0,0,1,.553-.794.779.779,0,0,1,.3-.056.789.789,0,0,1,.167.018A.842.842,0,0,1,1434.365,984.118Z"/><path class="a" d="M1396.066,984.118a.84.84,0,0,1-.646.819.582.582,0,0,1-.205.031.609.609,0,0,1-.26-.049.843.843,0,0,1-.59-.8.832.832,0,0,1,.59-.8.609.609,0,0,1,.26-.049.58.58,0,0,1,.205.031A.835.835,0,0,1,1396.066,984.118Z"/></g><g transform="translate(-1042.926 -840.314)"><rect class="d" width="18" height="18" transform="translate(1053.927 855.503)"/><path class="a" d="M1069.9,857.246a18.287,18.287,0,0,1-3.658.515,10.521,10.521,0,0,1-3.373-.682,9.99,9.99,0,0,1-3.315.682,17.415,17.415,0,0,1-3.655-.515,11.284,11.284,0,0,0-.345,2.972c0,4.572,1.708,7.488,3.717,9.142a39.042,39.042,0,0,0,3.6,2.571s2.746-1.656,3.943-2.63c2-1.658,3.491-4.512,3.491-9.142A13.453,13.453,0,0,0,1069.9,857.246ZM1059.841,868.5a8.734,8.734,0,0,1-2.622-4h5.649v-6.229a11.059,11.059,0,0,0,3.315.629,14.557,14.557,0,0,0,2.859-.345,11.954,11.954,0,0,1,.115,1.658,15.2,15.2,0,0,1-.574,4.288h-5.714v6.17A33.329,33.329,0,0,1,1059.841,868.5Z"/></g></g></svg>