<svg xmlns="http://www.w3.org/2000/svg" xmlns:xlink="http://www.w3.org/1999/xlink" width="80" height="89.308" viewBox="0 0 80 89.308"><defs><style>.a{fill:#08785e;isolation:isolate;}.a,.c{opacity:0.5;}.b{fill:url(#a);}.d{fill:#074134;}.e{fill:#158a6f;}.f{fill:#45fed3;}.g{fill:#12c49b;}.h{opacity:0;}.i{stroke:rgba(0,0,0,0);stroke-miterlimit:10;fill:url(#b);}</style><linearGradient id="a" x1="0.5" x2="0.5" y2="1" gradientUnits="objectBoundingBox"><stop offset="0" stop-color="#fff"/><stop offset="1" stop-color="#158a6f"/></linearGradient><linearGradient id="b" x1="0.594" y1="1" x2="0.61" y2="0.033" gradientUnits="objectBoundingBox"><stop offset="0" stop-color="#12c49b"/><stop offset="1" stop-color="#f2fffc"/></linearGradient></defs><g transform="translate(-239.5 -618)"><g transform="translate(-753.521 -308.434)"><path class="a" d="M993.909,992.977l37.911,21.9,37.081-21.4.841-.833-75.835-43.423Z"/><path class="a" d="M1069.729,992.977l-37.912,21.9-37.077-21.4-.842-.833,75.825-43.423Z"/><path class="b" d="M1022.785,1009.664l9.015,5.208,9.018-5.208Z"/><g class="c"><path class="d" d="M1031.8,927.308,993.889,949.2l37.912,21.712,37.913-21.712Z"/></g><path class="e" d="M1031.8,1015.249l-38.248-22.074V949.007l38.247-22.081,38.246,22.081v44.169Zm-37.581-22.468,37.581,21.7,37.581-21.7v-43.39l-37.581-21.7-37.581,21.7Z"/><path class="f" d="M994.23,958.69h-.666v-9.683l7.9-4.565.333.577-7.579,4.37Z"/><path class="f" d="M1065.11,999.356l-.334-.576,7.579-4.37v-9.3h.666V994.8Z"/><circle class="g" cx="0.878" cy="0.878" r="0.878" transform="translate(1068.847 948.32)"/><circle class="g" cx="0.878" cy="0.878" r="0.878" transform="translate(993.021 948.32)"/><circle class="g" cx="0.878" cy="0.878" r="0.878" transform="translate(1030.935 926.433)"/><circle class="g" cx="0.878" cy="0.878" r="0.878" transform="translate(1030.935 1013.986)"/><circle class="g" cx="0.878" cy="0.878" r="0.878" transform="translate(1068.847 992.09)"/><circle class="g" cx="0.878" cy="0.878" r="0.878" transform="translate(993.021 992.09)"/><rect class="f" width="0.665" height="9.545" transform="translate(1048.089 937.092) rotate(-59.999)"/></g><g transform="translate(262.744 616.495)"><rect class="h" width="32" height="32" transform="translate(-0.744 16.505)"/><path class="i" d="M10.437,29.16A17.622,17.622,0,0,1,0,13.029V6.105a.681.681,0,0,1,.4-.621L12.562.058A.689.689,0,0,1,12.837,0a.674.674,0,0,1,.273.058L25.272,5.485a.68.68,0,0,1,.4.621v6.924A17.622,17.622,0,0,1,15.237,29.16a6.455,6.455,0,0,1-2.4.685A6.46,6.46,0,0,1,10.437,29.16Zm1.8-20.495L6.56,13.314A.949.949,0,0,0,7.161,15h.314v5.449a.95.95,0,0,0,.949.949H17.25a.95.95,0,0,0,.948-.949V15h.314a.949.949,0,0,0,.6-1.683L13.439,8.665a.95.95,0,0,0-1.2,0Zm-.861,6.257a.508.508,0,1,1,0-1.016H14.3a.508.508,0,1,1,0,1.016Z" transform="translate(2.822 17.601)"/></g></g></svg>