<svg xmlns="http://www.w3.org/2000/svg" xmlns:xlink="http://www.w3.org/1999/xlink" width="80" height="89.308" viewBox="0 0 80 89.308"><defs><style>.a{fill:#a47300;isolation:isolate;}.a,.c{opacity:0.5;}.b{fill:url(#a);}.d{fill:#573d01;}.e{fill:#775505;}.f{fill:#ffb300;}.g{opacity:0;}.h{stroke:rgba(0,0,0,0);stroke-miterlimit:10;fill:url(#b);}</style><linearGradient id="a" x1="0.546" y1="1" x2="0.546" gradientUnits="objectBoundingBox"><stop offset="0" stop-color="#775505"/><stop offset="1" stop-color="#fff"/></linearGradient><linearGradient id="b" x1="0.561" y1="1" x2="0.585" y2="-0.24" gradientUnits="objectBoundingBox"><stop offset="0" stop-color="#ffb300"/><stop offset="1" stop-color="#f2fffc"/></linearGradient></defs><g transform="translate(-366 -618)"><g transform="translate(-743.066 -325.035)"><path class="a" d="M1109.953,1009.578l37.912,21.9,37.081-21.4.841-.833-75.835-43.424Z"/><path class="a" d="M1185.774,1009.578l-37.912,21.9-37.077-21.4-.843-.833,75.826-43.424Z"/><path class="b" d="M1138.829,1026.266l9.016,5.207,9.017-5.207Z"/><g class="c"><path class="d" d="M1147.847,943.91,1109.933,965.8l37.912,21.711,37.914-21.711Z"/></g><path class="e" d="M1147.847,1031.85l-38.248-22.073V965.609l38.246-22.081,38.246,22.081v44.168Zm-37.581-22.467,37.581,21.7,37.581-21.7V965.992l-37.581-21.7-37.581,21.7Z"/><path class="f" d="M1110.275,975.291h-.667v-9.682l7.906-4.566.332.578-7.579,4.37Z"/><path class="f" d="M1181.155,1015.958l-.335-.576,7.579-4.37v-9.3h.667v9.686Z"/><circle class="f" cx="0.878" cy="0.878" r="0.878" transform="translate(1184.892 964.922)"/><circle class="f" cx="0.878" cy="0.878" r="0.878" transform="translate(1109.066 964.922)"/><circle class="f" cx="0.878" cy="0.878" r="0.878" transform="translate(1146.98 943.035)"/><circle class="f" cx="0.878" cy="0.878" r="0.878" transform="translate(1146.98 1030.588)"/><circle class="f" cx="0.878" cy="0.878" r="0.878" transform="translate(1184.892 1008.692)"/><circle class="f" cx="0.878" cy="0.878" r="0.878" transform="translate(1109.066 1008.692)"/><rect class="f" width="0.665" height="9.545" transform="translate(1164.133 953.694) rotate(-59.999)"/></g><g transform="translate(371 636.919)"><rect class="g" width="32" height="32" transform="translate(18 -3.919)"/><g transform="translate(18.387 -1.467)"><path class="h" d="M.99,26.951a.977.977,0,0,1-.856-.495.974.974,0,0,1,0-.986L14.553.494a.988.988,0,0,1,1.711,0L30.685,25.47a.988.988,0,0,1-.856,1.481Zm13.79-15.41L9.7,15.7a.85.85,0,0,0,.538,1.507h.282v4.875a.851.851,0,0,0,.849.851h7.9a.852.852,0,0,0,.849-.851V17.206H20.4a.849.849,0,0,0,.537-1.507l-5.079-4.158a.845.845,0,0,0-1.075,0Zm-.9,5.169a.5.5,0,1,1,0-1h2.875a.5.5,0,1,1,0,1Z"/></g></g></g></svg>