<svg xmlns="http://www.w3.org/2000/svg" width="36" height="48.195" viewBox="0 0 36 48.195"><defs><style>.a{opacity:0.74;}.b,.c,.d{fill:#12c49b;}.c{opacity:0.5;}.d{opacity:0.3;}.e,.f{fill:#fff;}.e{opacity:0;}</style></defs><g transform="translate(-115 -26.902)"><g class="a" transform="translate(115 26.902)"><path class="b" d="M-3053.7,374.953V354.725l-17.2-10.115-17.2,10.115v20.228l17.2,10.115Z" transform="translate(3088.9 -340.742)"/><g transform="translate(0 2.945)"><path class="c" d="M-3070.9,384.934l17.1-10.048V354.792l-17.1-10.048-17.1,10.048v20.095l17.1,10.048m0,1.058-18-10.577V354.263l18-10.576,18,10.576v21.152Z" transform="translate(3088.896 -343.687)"/></g><path class="d" d="M-3079.692,346.052l6.8-3.92,6.8,3.92v-1.386l-6.2-3.578-.6-.346-.6.346-6.2,3.578Z" transform="translate(3090.897 -340.742)"/><path class="d" d="M-3066.1,378.272l-6.8,3.92-6.8-3.92v1.386l6.2,3.578.6.346.6-.346,6.2-3.578Z" transform="translate(3090.895 -335.387)"/></g><g transform="translate(123.241 16.718)"><rect class="e" width="22" height="22" transform="translate(-1.241 23.282)"/><path class="f" d="M13.958,35.361h0a2.463,2.463,0,1,0-.007,3.49l.013-.013a2.46,2.46,0,0,0-.006-3.476Z"/><path class="f" d="M18.215,41.745V31.583a1.4,1.4,0,0,0-.591-1.141l-7.1-4.812a1.366,1.366,0,0,0-1.54,0l-7.1,4.812A1.4,1.4,0,0,0,1.3,31.583V41.8a1.37,1.37,0,0,0,1.375,1.375H16.84a1.22,1.22,0,0,0,.4-.083l-2.654-2.64A4.109,4.109,0,0,1,9.305,34.2a4.211,4.211,0,0,1,5.816,0,4.062,4.062,0,0,1,.592,5.046ZM5.8,41.03a.681.681,0,0,1-.688.687H3.64a.68.68,0,0,1-.687-.687V39.558a.68.68,0,0,1,.687-.687H5.111a.681.681,0,0,1,.688.687Z"/></g></g></svg>