<svg xmlns="http://www.w3.org/2000/svg" width="16" height="16" viewBox="0 0 16 16">
  <defs>
    <style>
      .cls-1 {
        fill: #e5e5e5;
        opacity: 0;
      }

      .cls-2 {
        fill: inherit;
      }
    </style>
  </defs>
  <g id="组_950" data-name="组 950" transform="translate(-1742.533 -465.497)">
    <rect id="矩形_1067" data-name="矩形 1067" class="cls-1" width="16" height="16" transform="translate(1742.533 465.497)"/>
    <path id="路径_4228" data-name="路径 4228" class="cls-2" d="M29.333,35.246a.522.522,0,0,1,.522.522v1.043a.522.522,0,1,1-1.043,0V35.768A.522.522,0,0,1,29.333,35.246Zm-4.181-1.732a.522.522,0,0,1,0,.738l-.738.738a.522.522,0,0,1-.738-.737l.737-.738a.522.522,0,0,1,.738,0Zm9.1,0,.738.738a.522.522,0,0,1-.737.738l-.738-.737a.522.522,0,0,1,.738-.738Zm-4.919-9.05a4.87,4.87,0,1,1-4.87,4.87A4.87,4.87,0,0,1,29.333,24.464Zm0,1.043a3.826,3.826,0,1,0,3.826,3.826A3.826,3.826,0,0,0,29.333,25.507Zm-6.435,3.3a.522.522,0,0,1,0,1.043H21.855a.522.522,0,1,1,0-1.043Zm13.913,0a.522.522,0,1,1,0,1.043H35.768a.522.522,0,1,1,0-1.043Zm-12.4-5.135.738.737a.522.522,0,1,1-.738.738l-.738-.738a.522.522,0,0,1,.737-.738Zm10.576,0a.522.522,0,0,1,0,.737l-.737.738a.522.522,0,0,1-.738-.738l.738-.738A.522.522,0,0,1,34.99,23.677Zm-5.657-2.343a.522.522,0,0,1,.522.522V22.9a.522.522,0,0,1-1.043,0V21.855A.522.522,0,0,1,29.333,21.333Z" transform="translate(1721.2 444.163)"/>
  </g>
</svg>
