<svg xmlns="http://www.w3.org/2000/svg" xmlns:xlink="http://www.w3.org/1999/xlink" width="20" height="20" viewBox="0 0 20 20"><defs><style>.a{opacity:0;}.b{fill:url(#a);}.c{fill:#fff;}</style><linearGradient id="a" x1="0.5" x2="0.5" y2="1" gradientUnits="objectBoundingBox"><stop offset="0" stop-color="#11cf9c"/><stop offset="1" stop-color="#02cac8"/></linearGradient></defs><g transform="translate(0 0)"><rect class="a" width="20" height="20" transform="translate(0 0)"/><g transform="translate(2 2)"><path class="b" d="M33.385,6.062h7.378l-.458-4.7A1.251,1.251,0,0,0,39.061.237H33.916Z" transform="translate(-26.433 -0.237)"/><path class="b" d="M31.879,6.062l.53-5.825h-3.47a1.251,1.251,0,0,0-1.244,1.129l-.458,4.7Z" transform="translate(-26.433 -0.237)"/><path class="b" d="M31.742,7.561H27.091l-.652,6.695a1.25,1.25,0,0,0,1.244,1.371h3.325Z" transform="translate(-26.433 -0.237)"/><path class="b" d="M33.249,7.561l-.735,8.066h7.8a1.25,1.25,0,0,0,1.244-1.371l-.652-6.695Z" transform="translate(-26.433 -0.237)"/><g transform="translate(10.227 8.918)"><path class="c" d="M37.409,14.38a.75.75,0,0,1-.749-.749V9.9a.75.75,0,1,1,1.5,0v3.726A.75.75,0,0,1,37.409,14.38Z" transform="translate(-36.66 -9.155)"/></g><g transform="translate(8.728 10.601)"><path class="c" d="M37.483,13.3a.752.752,0,0,1-.391-.108L35.52,12.23a.75.75,0,0,1,.781-1.281l1.162.709,1.026-.691a.75.75,0,0,1,.837,1.245L37.9,13.17A.749.749,0,0,1,37.483,13.3Z" transform="translate(-35.16 -10.838)"/></g></g></g></svg>