<svg xmlns="http://www.w3.org/2000/svg" width="16" height="16" viewBox="0 0 16 16"><defs><style>.a,.b{fill:#a3a6b5;}.a{opacity:0;}</style></defs><rect class="a" width="16" height="16"/><g transform="translate(0.533 2.025)"><path class="b" d="M-100.38,35.132a8.057,8.057,0,0,0-5.1-2.022,8.057,8.057,0,0,0-5.1,2.022,5.748,5.748,0,0,0-2.362,3.952,5.8,5.8,0,0,0,2.245,3.939,8.055,8.055,0,0,0,5.23,2.037,8.033,8.033,0,0,0,5.211-2.034,5.793,5.793,0,0,0,2.249-3.942A5.748,5.748,0,0,0-100.38,35.132Zm-.666,6.93a6.843,6.843,0,0,1-4.43,1.738,6.846,6.846,0,0,1-4.445-1.738l-.006,0a4.632,4.632,0,0,1-1.813-2.972,4.706,4.706,0,0,1,1.913-2.972,6.88,6.88,0,0,1,4.343-1.741,6.882,6.882,0,0,1,4.344,1.741,4.7,4.7,0,0,1,1.913,2.972A4.713,4.713,0,0,1-101.046,42.062Z" transform="translate(112.951 -33.11)"/><path class="b" d="M-106.484,35.875a2.213,2.213,0,0,0-2.21,2.21,2.213,2.213,0,0,0,2.21,2.211,2.213,2.213,0,0,0,2.21-2.211A2.213,2.213,0,0,0-106.484,35.875Zm0,3.371a1.162,1.162,0,0,1-1.16-1.161,1.161,1.161,0,0,1,1.16-1.16,1.162,1.162,0,0,1,1.161,1.16A1.163,1.163,0,0,1-106.484,39.246Z" transform="translate(113.951 -32.11)"/></g></svg>