<svg xmlns="http://www.w3.org/2000/svg" width="18" height="18" viewBox="0 0 18 18">
  <defs>
    <style>
      .cls-1, .cls-2 {
        fill: inherit;
      }

      .cls-1 {
        opacity: 0;
      }
    </style>
  </defs>
  <g id="组_885" data-name="组 885" transform="translate(-1743 -465.964)">
    <rect id="矩形_1067" data-name="矩形 1067" class="cls-1" width="18" height="18" transform="translate(1743 465.964)"/>
    <path id="路径_3996" data-name="路径 3996" class="cls-2" d="M64.947,56.889a8.058,8.058,0,1,0,8.058,8.058A8.082,8.082,0,0,0,64.947,56.889ZM63.436,69.48c-.5,0-.907-.2-.907-.806a6.739,6.739,0,0,1,.6-2.115l1.007-2.619c.1-.3,0-.4-.1-.4-.5,0-1.209,1.309-1.511,1.309a.217.217,0,0,1-.2-.2c0-.3.6-.907.806-1.108A3.051,3.051,0,0,1,65.35,62.53c.6,0,1.309.4.806,1.813l-1.007,2.82a2.371,2.371,0,0,0-.2.806.217.217,0,0,0,.2.2c.4,0,1.209-1.209,1.41-1.209a.217.217,0,0,1,.2.2,4.611,4.611,0,0,1-3.324,2.317Zm2.518-7.454a.952.952,0,0,1-1.007-1.007,1.209,1.209,0,0,1,1.209-1.108.952.952,0,0,1,1.007,1.007,1.14,1.14,0,0,1-1.209,1.108Z" transform="translate(1687.053 410.016)"/>
  </g>
</svg>
