<svg xmlns="http://www.w3.org/2000/svg" width="20" height="20" viewBox="0 0 20 20">
  <defs>
    <style>
      .cls-1, .cls-2 {
        fill: #3093f3;
      }

      .cls-1 {
        opacity: 0;
      }
    </style>
  </defs>
  <g id="组_984" data-name="组 984" transform="translate(-0.055 -0.055)">
    <rect id="矩形_1121" data-name="矩形 1121" class="cls-1" width="20" height="20" transform="translate(0.055 0.055)"/>
    <path id="路径_4086" data-name="路径 4086" class="cls-2" d="M14.838,8.951v4.1a.676.676,0,0,1-.674.674H.674A.675.675,0,0,1,0,13.055v-4.1a.674.674,0,1,1,1.348,0v3.43H13.49V8.951a.674.674,0,1,1,1.348,0ZM7.417,10.258a.252.252,0,0,1-.2-.1L4.1,6.377c-.111-.135-.059-.244.114-.244H6.766V.653a.653.653,0,0,1,1.307,0V6.133h2.554c.175,0,.226.111.116.244L7.618,10.158a.252.252,0,0,1-.2.1Z" transform="translate(2.636 3.19)"/>
  </g>
</svg>
