<svg xmlns="http://www.w3.org/2000/svg" width="16" height="16" viewBox="0 0 16 16"><defs><style>.a{fill:#12c49b;}</style></defs><path class="a" d="M6.974.821a.5.5,0,0,0,0-.684.5.5,0,0,0-.684,0L3.554,2.873.91.231a.482.482,0,0,0-.663,0,.481.481,0,0,0,0,.663L2.891,3.536.137,6.29a.5.5,0,0,0,0,.684.5.5,0,0,0,.684,0L3.575,4.22,6.218,6.861A.469.469,0,1,0,6.881,6.2L4.238,3.557Z" transform="translate(4.444 4.444)"/><path class="a" d="M8,1a7,7,0,1,0,7,7A7.008,7.008,0,0,0,8,1M8,0A8,8,0,1,1,0,8,8,8,0,0,1,8,0Z"/></svg>