<svg xmlns="http://www.w3.org/2000/svg" width="24" height="24" viewBox="0 0 24 24">
  <g id="微信" transform="translate(6.694 -15.714)">
    <rect id="矩形_6852" data-name="矩形 6852" width="24" height="24" transform="translate(-6.693 15.714)" opacity="0"/>
    <rect id="矩形_3427" data-name="矩形 3427" width="24" height="24" transform="translate(-6.693 15.714)" fill="rgba(0,0,0,0)"/>
    <g id="组_8449" data-name="组 8449" transform="translate(-0.994 -0.809)">
      <path id="路径_9073" data-name="路径 9073" d="M2.821,18.758c-4.681,0-8.521,3.12-8.521,7.2,0,2.31,1.26,4.2,3.391,5.7l-.871,2.581,3.03-1.531a9.924,9.924,0,0,0,2.971.48h0a6.146,6.146,0,0,0,.75-.029,7.273,7.273,0,0,1-.24-1.8,6.972,6.972,0,0,1,7.23-6.75,4.208,4.208,0,0,1,.81.089C10.651,21.218,6.961,18.758,2.821,18.758Zm-2.895,5.7a1.136,1.136,0,0,1-1.2-1.054,1.136,1.136,0,0,1,1.2-1.055,1.136,1.136,0,0,1,1.2,1.055A1.136,1.136,0,0,1-.074,24.461Zm5.921,0a1.064,1.064,0,1,1,0-2.11,1.064,1.064,0,1,1,0,2.11Z" fill="#12c49b"/>
      <path id="路径_9074" data-name="路径 9074" d="M17.508,30.744c0-3.417-3.419-6.18-7.23-6.18-4.021,0-7.2,2.763-7.2,6.18s3.18,6.18,7.2,6.18a12.924,12.924,0,0,0,2.58-.449l2.28,1.29-.6-2.16A6.36,6.36,0,0,0,17.508,30.744ZM8.059,29.82a.847.847,0,1,1,0-1.68.847.847,0,1,1,0,1.68Zm4.7,0a.847.847,0,1,1,.958-.841A.906.906,0,0,1,12.755,29.82Z" transform="translate(0.792 0.524)" fill="#12c49b"/>
    </g>
  </g>
</svg>
