<svg xmlns="http://www.w3.org/2000/svg" xmlns:xlink="http://www.w3.org/1999/xlink" width="18.258" height="18.002" viewBox="0 0 18.258 18.002"><defs><style>.a{opacity:0;fill:url(#a);}.b{stroke:rgba(0,0,0,0);fill:url(#b);}</style><linearGradient id="a" x1="0.5" x2="0.5" y2="1" gradientUnits="objectBoundingBox"><stop offset="0" stop-color="#02e7fb"/><stop offset="1" stop-color="#01cffa"/></linearGradient><linearGradient id="b" x1="0.5" x2="0.5" y2="1" gradientUnits="objectBoundingBox"><stop offset="0" stop-color="#02fbf3"/><stop offset="1" stop-color="#03d1fc"/></linearGradient></defs><g transform="translate(-1.872 -2)"><rect class="a" width="18.002" height="18.002" transform="translate(2 2)"/><path class="b" d="M43.551,14.518,36.178,8.481a1.232,1.232,0,0,0-1.562,0l-7.373,6.036a1.233,1.233,0,0,0,.781,2.187h.407v7.078a1.233,1.233,0,0,0,1.233,1.233H41.13a1.233,1.233,0,0,0,1.233-1.233V16.7h.407A1.233,1.233,0,0,0,43.551,14.518ZM39.213,18.6H36.275v2.937H34.713V18.6H31.775V17.042h2.937V14.1h1.562v2.939h2.938Z" transform="translate(-24.397 -5.608)"/></g></svg>