<svg xmlns="http://www.w3.org/2000/svg" width="36" height="48.195" viewBox="0 0 36 48.195"><defs><style>.a{opacity:0.74;}.b,.c,.d{fill:#12c49b;}.c{opacity:0.5;}.d{opacity:0.3;}.e{opacity:0;}.f{fill:rgba(0,0,0,0);}.g{fill:#fff;}</style></defs><g transform="translate(0)"><g class="a"><path class="b" d="M-3053.7,374.953V354.725l-17.2-10.115-17.2,10.115v20.228l17.2,10.115Z" transform="translate(3088.9 -340.742)"/><g transform="translate(0 2.945)"><path class="c" d="M-3070.9,384.934l17.1-10.048V354.792l-17.1-10.048-17.1,10.048v20.095l17.1,10.048m0,1.058-18-10.577V354.263l18-10.576,18,10.576v21.152Z" transform="translate(3088.896 -343.687)"/></g><path class="d" d="M-3079.692,346.052l6.8-3.92,6.8,3.92v-1.386l-6.2-3.578-.6-.346-.6.346-6.2,3.578Z" transform="translate(3090.897 -340.742)"/><path class="d" d="M-3066.1,378.272l-6.8,3.92-6.8-3.92v1.386l6.2,3.578.6.346.6-.346,6.2-3.578Z" transform="translate(3090.895 -335.387)"/></g><g transform="translate(3.652 -9.851)"><rect class="e" width="24" height="24" transform="translate(2.613 21.949)"/><rect class="f" width="24" height="24" transform="translate(2.613 21.949)"/><rect class="f" width="23.995" height="23.995" transform="translate(2.615 21.951)"/><rect class="e" width="24" height="24" transform="translate(2.613 21.949)"/><rect class="e" width="24" height="24" transform="translate(2.613 21.949)"/><g transform="translate(141.133 50.856)"><path class="g" d="M-119.616-11.291a3.547,3.547,0,0,0-.6-4.2,3.555,3.555,0,0,0-5.027,0,3.557,3.557,0,0,0,0,5.026,3.539,3.539,0,0,0,2.513,1.041,3.544,3.544,0,0,0,2.011-.629l3.111,3.11,1.166-1.167Zm-1.762-.341a1.91,1.91,0,0,1-2.694,0,1.91,1.91,0,0,1,0-2.695,1.891,1.891,0,0,1,1.347-.557,1.891,1.891,0,0,1,1.347.557A1.908,1.908,0,0,1-121.378-11.632Z"/><path class="g" d="M-127.764-12.979a5.01,5.01,0,0,1,1.476-3.564,5.162,5.162,0,0,1,7.126,0,5.018,5.018,0,0,1,.817,1.115V-22.3a.824.824,0,0,0-.825-.824h-5.276v-2.924a.824.824,0,0,0-.825-.824h-9.268a.825.825,0,0,0-.825.824v15.783H-136.6v1.649h11.4a5.024,5.024,0,0,1-1.09-.8A5,5,0,0,1-127.764-12.979Zm4.591-7.47h1.906V-18.8h-1.906Zm-4.88,7.227h-4.017v-1.649h4.017Zm0-3.905h-4.017v-1.649h4.017Zm0-3.9h-4.017v-1.649h4.017Z"/></g></g></g></svg>