<svg xmlns="http://www.w3.org/2000/svg" width="20" height="20" viewBox="0 0 20 20"><defs><style>.a{opacity:0;}.b{fill:#45fed3;}</style></defs><g transform="translate(-17 1.989)"><rect class="a" width="20" height="20" transform="translate(17 -1.989)"/><g transform="translate(-27.75 -48.739)"><path class="b" d="M59.087,59.162l-2,2.05-.349,3.45H46.625A.619.619,0,0,1,46,64.037V62.962a.619.619,0,0,1,.625-.625h8.613v-7.2a1.254,1.254,0,0,1,1.25-1.25h3.724a1.246,1.246,0,0,1,1.25,1.25v.438L59.388,57.05Z"/><path class="b" d="M63.5,62.962v1.075a.619.619,0,0,1-.625.625H57.488l.325-3.112L59.8,59.512l.288-2.037,1.374-.975v5.837h1.413A.619.619,0,0,1,63.5,62.962Z"/><path class="b" d="M53.99,53.89a1.25,1.25,0,0,1,1.25-1.25h1.749V50.088a1.25,1.25,0,0,0-1.25-1.25H49.282a1.25,1.25,0,0,0-1.25,1.25V61.1H53.99Z"/></g></g></svg>