<svg xmlns="http://www.w3.org/2000/svg" width="81.925" height="73.565" viewBox="0 0 81.925 73.565"><defs><style>.a{fill:rgba(245,245,247,0.8);}.b{fill:#aeb8c2;}.c{fill:#f7f7f7;}.d{fill:#dce0e6;}</style></defs><path class="a" d="M0,822.136c0,4.192,18.339,7.591,40.962,7.591s40.962-3.4,40.962-7.591-18.339-7.591-40.962-7.591S0,817.944,0,822.136Z" transform="translate(0 -756.161)"/><path class="b" d="M140.925,344.415l-17.654-17.239a3.587,3.587,0,0,0-2.757-1.358H89.631a3.587,3.587,0,0,0-2.759,1.356L69.12,344.415l.05,10.079h71.8v-9.375Z" transform="translate(-64.11 -302.542)"/><path class="c" d="M249.972.012c3.714,3.846,13.491,13.479,13.491,13.481l-.031,44.82a2.452,2.452,0,0,1-2.488,2.414h-49a2.453,2.453,0,0,1-2.488-2.415L209.5,2.419A2.451,2.451,0,0,1,211.978,0Z" transform="translate(-194.66)"/><path class="d" d="M137.446,66.818H73.994a4.23,4.23,0,0,1-4.041-3.3,4.6,4.6,0,0,1-.135-1.1V41.763h19.14A3.253,3.253,0,0,1,92.111,45.1v.025a3.239,3.239,0,0,0,3.168,3.306h20.883a3.248,3.248,0,0,0,3.168-3.319,3.261,3.261,0,0,1,3.153-3.348h19.14V62.418a4.633,4.633,0,0,1-.134,1.1,4.228,4.228,0,0,1-4.041,3.3ZM119.984,10.883a2.474,2.474,0,0,0,2.471,2.472l10.824.022L119.914,0Zm-30.128,12.5h33.4a1.67,1.67,0,0,1,0,3.341h-33.4a1.67,1.67,0,0,1,0-3.341Zm0,8.352h11.689a1.67,1.67,0,0,1,0,3.341H89.856a1.67,1.67,0,0,1,0-3.341Z" transform="translate(-64.758)"/></svg>