<svg id="组_1164" data-name="组 1164" xmlns="http://www.w3.org/2000/svg" width="20" height="20" viewBox="0 0 20 20">
  <defs>
    <style>
      .cls-1 {
        fill: #7c8196;
        opacity: 0;
      }

      .cls-2 {
        fill: none;
        stroke:inherit;
        stroke-width: 1.5px;
      }
    </style>
  </defs>
  <rect id="矩形_1187" data-name="矩形 1187" class="cls-1" width="20" height="20" transform="translate(0 0)"/>
  <path id="路径_4121" data-name="路径 4121" class="cls-2" d="M127.238,39.844a6.692,6.692,0,0,0-5.232-6.457,6.846,6.846,0,0,0-7.632,3.471,6.571,6.571,0,0,0,1.656,8.084l4.409,4.32,4.732-4.637.108-.106.23-.226a6.554,6.554,0,0,0,1.729-4.45Zm-6.8,2.7a2.7,2.7,0,1,1,2.753-2.7A2.726,2.726,0,0,1,120.439,42.542Z" transform="translate(-110.439 -31.234)"/>
</svg>
