<svg xmlns="http://www.w3.org/2000/svg" width="18" height="18" viewBox="0 0 18 18">
  <defs>
    <style>
      .cls-1, .cls-2 {
        fill: inherit;
      }

      .cls-1 {
        opacity: 0;
      }
    </style>
  </defs>
  <g id="组_1236" data-name="组 1236" transform="translate(-1278.795 -293.795)">
    <rect id="矩形_1187" data-name="矩形 1187" class="cls-1" width="18" height="18" transform="translate(1278.795 293.795)"/>
    <path id="路径_4148" data-name="路径 4148" class="cls-2" d="M121.325,162.435h-5.46v-.491a5.085,5.085,0,0,0,1.159-.118q.59-.176.589-.667c0,.013-.039-.177-.118-.57l-1-2.691h-5.146l-.786,2.2a2.635,2.635,0,0,0-.177.884q0,.9,1.767.962v.491h-5.485v-.491a2.807,2.807,0,0,0,1.2-.235,2.482,2.482,0,0,0,1.119-1.453l3.87-10.567,2.264-.353,4.007,11.038a2.288,2.288,0,0,0,.923,1.316,3.085,3.085,0,0,0,1.277.255v.491Zm-5.048-5.186-2.317-6.462h-.039l-2.338,6.462Z" transform="translate(1173.799 146.911)"/>
  </g>
</svg>
