<svg xmlns="http://www.w3.org/2000/svg" xmlns:xlink="http://www.w3.org/1999/xlink" width="20" height="20" viewBox="0 0 20 20"><defs><style>.a{opacity:0;}.b{fill:url(#a);}.c{fill:#fff;}</style><linearGradient id="a" x1="0.5" x2="0.5" y2="1" gradientUnits="objectBoundingBox"><stop offset="0" stop-color="#11cf9c"/><stop offset="1" stop-color="#02cac8"/></linearGradient></defs><g transform="translate(0 0)"><rect class="a" width="20" height="20" transform="translate(0 0)"/><g transform="translate(3.568 1)"><path class="b" d="M43.868,7.724,43.556,10.4l-.163,1.5-.162,1.425-.175,1.5-.163,1.413-.175,1.5-.075.65a1.245,1.245,0,0,1-1.25,1.062h-7.9a1.246,1.246,0,0,1-1.25-1.062L31.018,7.724a1.213,1.213,0,0,1,1.238-1.312h.912l-.337-1.9a.606.606,0,0,1,.5-.688l1.3-.175a.581.581,0,0,1,.65.5l.287,2.263h1.2c.025-1,.075-1.975.125-2.288a12.617,12.617,0,0,1,1-2.387.761.761,0,0,1,1.013-.313.739.739,0,0,1,.312,1.013,11.075,11.075,0,0,0-.837,1.937c-.038.213-.075,1.063-.113,2.038h1.625l.35-1.563a1.668,1.668,0,0,1,.488-2.062c.8-.488.6-.788.537-.85,1.375.562,1.55,2.937.413,3.387l-.25,1.088h1.187A1.215,1.215,0,0,1,43.868,7.724Z" transform="translate(-31.011 -1.341)"/><path class="c" d="M43.393,11.9l.163-1.5H40.843a.753.753,0,0,0-.75.75v2.172H36.961a.75.75,0,0,0-.75.75v2.917a.75.75,0,0,0,.75.75h5.757l.175-1.5h-1.3V14.824h1.463l.175-1.5H41.593V11.9Zm-3.3,4.34H37.71V14.82h2.379Z" transform="translate(-31.011 -1.341)"/></g></g></svg>