<svg xmlns="http://www.w3.org/2000/svg" width="36" height="48.195" viewBox="0 0 36 48.195"><defs><style>.a{opacity:0.74;}.b,.c,.d{fill:#12c49b;}.c{opacity:0.5;}.d{opacity:0.3;}.e,.f{fill:#fff;}.e{stroke:#707070;opacity:0;}.g{fill:none;}.h{stroke:none;}</style></defs><g transform="translate(-115 -26.902)"><g class="a" transform="translate(115 26.902)"><path class="b" d="M-3053.7,374.953V354.725l-17.2-10.115-17.2,10.115v20.228l17.2,10.115Z" transform="translate(3088.9 -340.742)"/><g transform="translate(0 2.945)"><path class="c" d="M-3070.9,384.934l17.1-10.048V354.792l-17.1-10.048-17.1,10.048v20.095l17.1,10.048m0,1.058-18-10.577V354.263l18-10.576,18,10.576v21.152Z" transform="translate(3088.896 -343.687)"/></g><path class="d" d="M-3079.692,346.052l6.8-3.92,6.8,3.92v-1.386l-6.2-3.578-.6-.346-.6.346-6.2,3.578Z" transform="translate(3090.897 -340.742)"/><path class="d" d="M-3066.1,378.272l-6.8,3.92-6.8-3.92v1.386l6.2,3.578.6.346.6-.346,6.2-3.578Z" transform="translate(3090.895 -335.387)"/></g><g transform="translate(90 -88)"><g transform="translate(10.836 113.4)"><g class="e" transform="translate(20.164 14.6)"><rect class="h" width="24" height="24"/><rect class="g" x="0.5" y="0.5" width="23" height="23"/></g><path class="f" d="M.7,17.969a.8.8,0,0,1-.7-.814V6.856a.625.625,0,0,1,.625-.625H19.364a.625.625,0,0,1,.623.623V17.184a.781.781,0,0,1-.858.781.8.8,0,0,1-.7-.811V14.02H1.563v3.168a.781.781,0,0,1-.859.781Zm1.179-13.3H.34a.312.312,0,0,1-.313-.313V.313A.313.313,0,0,1,.34,0H3.174a.313.313,0,0,1,.3.406L2.188,4.456a.312.312,0,0,1-.3.217Zm8.533-.128a.312.312,0,0,1-.046-.28L11.661.217a.314.314,0,0,1,.3-.217h4.2a.313.313,0,0,1,.3.406l-1.3,4.05a.312.312,0,0,1-.294.217h-4.2A.31.31,0,0,1,10.416,4.545Zm-6.491,0a.314.314,0,0,1-.045-.28L5.171.217A.312.312,0,0,1,5.469,0H9.664a.312.312,0,0,1,.3.406L8.671,4.456a.313.313,0,0,1-.3.217h-4.2A.311.311,0,0,1,3.925,4.545Zm13.22.128a.312.312,0,0,1-.3-.406L18.138.217a.312.312,0,0,1,.3-.217h1.25A.313.313,0,0,1,20,.313V4.361a.312.312,0,0,1-.313.313Z" transform="translate(22 17.6)"/><path class="g" d="M.7,17.969a.8.8,0,0,1-.7-.814V6.856a.625.625,0,0,1,.625-.625H19.364a.625.625,0,0,1,.623.623V17.184a.781.781,0,0,1-.858.781.8.8,0,0,1-.7-.811V14.02H1.563v3.168a.781.781,0,0,1-.859.781Zm1.179-13.3H.34a.312.312,0,0,1-.313-.313V.313A.313.313,0,0,1,.34,0H3.174a.313.313,0,0,1,.3.406L2.188,4.456a.312.312,0,0,1-.3.217Zm8.533-.128a.312.312,0,0,1-.046-.28L11.661.217a.314.314,0,0,1,.3-.217h4.2a.313.313,0,0,1,.3.406l-1.3,4.05a.312.312,0,0,1-.294.217h-4.2A.31.31,0,0,1,10.416,4.545Zm-6.491,0a.314.314,0,0,1-.045-.28L5.171.217A.312.312,0,0,1,5.469,0H9.664a.312.312,0,0,1,.3.406L8.671,4.456a.313.313,0,0,1-.3.217h-4.2A.311.311,0,0,1,3.925,4.545Zm13.22.128a.312.312,0,0,1-.3-.406L18.138.217a.312.312,0,0,1,.3-.217h1.25A.313.313,0,0,1,20,.313V4.361a.312.312,0,0,1-.313.313Z" transform="translate(22 17.6)"/></g></g></g></svg>