<svg xmlns="http://www.w3.org/2000/svg" xmlns:xlink="http://www.w3.org/1999/xlink" width="20" height="20" viewBox="0 0 20 20"><defs><style>.a{opacity:0;}.b{fill:url(#a);}.c{fill:#fff;}</style><linearGradient id="a" x1="0.5" x2="0.5" y2="1" gradientUnits="objectBoundingBox"><stop offset="0" stop-color="#11cf9c"/><stop offset="1" stop-color="#02cac8"/></linearGradient></defs><g transform="translate(0 0)"><rect class="a" width="20" height="20" transform="translate(0 0)"/><g transform="translate(1.737 1.805)"><path class="b" d="M45.305,21.364h-1.8V11h2.285V9.761L43.508,8.7V7.951a.625.625,0,0,0-.625-.625H41.825a.625.625,0,0,0-.625.625v.082L30.156,9.761l0,1.241h2.834v3.986a4.34,4.34,0,1,0,1.5,0V11H41.2V21.364H39.4a.625.625,0,0,0-.625.625v1.1a.625.625,0,0,0,.625.625h5.9a.625.625,0,0,0,.625-.625v-1.1A.625.625,0,0,0,45.305,21.364Z" transform="translate(-29.405 -7.326)"/><g transform="translate(3.589 9.051)"><path class="c" d="M36.292,20H33.744a.749.749,0,0,1-.75-.749V17.127a.75.75,0,1,1,1.5,0V18.5h1.8a.749.749,0,0,1,0,1.5Z" transform="translate(-32.994 -16.377)"/></g></g></g></svg>