<svg xmlns="http://www.w3.org/2000/svg" width="66.243" height="103.644" viewBox="0 0 66.243 103.644"><defs><style>.a{opacity:0.4;}.b,.f,.g{fill:#fff;isolation:isolate;}.b,.c{opacity:0.5;}.d,.e{fill:none;}.e{stroke:#fff;stroke-miterlimit:10;}.f{opacity:0.1;}.g,.h{opacity:0.3;}</style></defs><g class="a" transform="translate(340.995 -73.204)"><ellipse class="b" cx="33.048" cy="8.559" rx="33.048" ry="8.559" transform="translate(-340.922 144.543)"/><g class="c"><ellipse class="d" cx="33.048" cy="8.559" rx="33.048" ry="8.559" transform="translate(-340.922 144.543)"/><ellipse class="e" cx="32.622" cy="8.133" rx="32.622" ry="8.133" transform="translate(-340.495 144.969)"/></g><path class="f" d="M-274.825,168.288c0,4.72-14.8,8.56-33.049,8.56s-33.05-3.83-33.05-8.56V80.6h.81a2.36,2.36,0,0,0-.38,1.24c0,4.49,14.61,8.13,32.62,8.13s32.62-3.64,32.62-8.13a2.36,2.36,0,0,0-.38-1.24h.7v87.02A2.186,2.186,0,0,1-274.825,168.288Z"/><path class="f" d="M-274.824,168.288c0,4.72-14.8,8.56-33.05,8.56s-33.05-3.83-33.05-8.56V153.1c0,4.73,14.8,8.56,33.05,8.56,17.35,0,31.59-3.46,32.94-7.87v13.83A3.026,3.026,0,0,1-274.824,168.288Z"/><ellipse class="g" cx="33.048" cy="8.559" rx="33.048" ry="8.559" transform="translate(-340.922 73.278)"/><g class="h"><ellipse class="d" cx="33.048" cy="8.559" rx="33.048" ry="8.559" transform="translate(-340.922 73.278)"/><ellipse class="e" cx="32.622" cy="8.133" rx="32.622" ry="8.133" transform="translate(-340.495 73.704)"/></g><ellipse class="g" cx="20.196" cy="5.766" rx="20.196" ry="5.766" transform="translate(-328.07 75.537)"/><g class="h"><ellipse class="d" cx="20.196" cy="5.766" rx="20.196" ry="5.766" transform="translate(-328.07 75.537)"/><ellipse class="e" cx="19.77" cy="5.34" rx="19.77" ry="5.34" transform="translate(-327.644 75.963)"/></g><ellipse class="g" cx="11.769" cy="3.36" rx="11.769" ry="3.36" transform="translate(-319.643 77.331)"/><g class="h"><ellipse class="d" cx="11.769" cy="3.36" rx="11.769" ry="3.36" transform="translate(-319.643 77.331)"/><ellipse class="e" cx="11.342" cy="2.934" rx="11.342" ry="2.934" transform="translate(-319.217 77.757)"/></g><path class="b" d="M-274.824,153.1a2.367,2.367,0,0,1-.11.69v-1.38A2.367,2.367,0,0,1-274.824,153.1Z"/></g></svg>