<svg xmlns="http://www.w3.org/2000/svg" width="14" height="14" viewBox="0 0 14 14">
  <defs>
    <style>
      .cls-1 {
        fill: #b4b8bf;
      }
    </style>
  </defs>
  <path id="路径_4133" data-name="路径 4133" class="cls-1" d="M165.442,170.284l1.26,1.26c-1.241,1.051-3.053,2.682-3.427,2.975a5.834,5.834,0,0,1-1.794.986,5.833,5.833,0,0,1,.986-1.794C162.761,173.337,164.392,171.526,165.442,170.284Zm9.771-5.139-3.372-3.372a.914.914,0,0,0-1.292,1.292l.269.269-4.925,3.479-1.09-1.089a.914.914,0,1,0-1.292,1.292l6.46,6.459a.914.914,0,0,0,1.292-1.292l-1.089-1.089,3.479-4.926.269.269a.914.914,0,0,0,1.292-1.291Z" transform="translate(-161.481 -161.505)"/>
</svg>
