<svg xmlns="http://www.w3.org/2000/svg" xmlns:xlink="http://www.w3.org/1999/xlink" width="16" height="16" viewBox="0 0 16 16"><defs><style>.a{fill:#4cccff;opacity:0;}.b{fill:url(#a);}</style><linearGradient id="a" x1="0.5" x2="0.5" y2="1.938" gradientUnits="objectBoundingBox"><stop offset="0" stop-color="#c0fffe"/><stop offset="1" stop-color="#12c49b"/></linearGradient></defs><rect class="a" width="16" height="16"/><g transform="translate(1.533 1.486)"><g transform="translate(3.042)"><path class="b" d="M-17.048,7.629a3.054,3.054,0,0,1-3.05-3.05,3.054,3.054,0,0,1,3.05-3.051A3.054,3.054,0,0,1-14,4.579,3.054,3.054,0,0,1-17.048,7.629Z" transform="translate(20.098 -1.528)"/></g><g transform="translate(0 7.239)"><path class="b" d="M-11.712,14.163H-22.765a.565.565,0,0,1-.565-.565V12.74a3.524,3.524,0,0,1,3.521-3.52h5.142a3.525,3.525,0,0,1,3.521,3.52V13.6A.565.565,0,0,1-11.712,14.163Z" transform="translate(23.33 -9.22)"/></g></g></svg>