<svg xmlns="http://www.w3.org/2000/svg" width="16" height="16" viewBox="0 0 16 16"><defs><style>.a{opacity:0;}.b{fill:#fff;}</style></defs><g transform="translate(0 -0.006)"><rect class="a" width="16" height="16" transform="translate(0 0.006)"/><path class="b" d="M15.713,7.043,8.39,1.47,8.3,1.415a1.1,1.1,0,0,0-1.051.015L.273,7.054l.754.934,1.3-1.046v6.679a1.1,1.1,0,0,0,1.1,1.1h9.156a1.1,1.1,0,0,0,1.1-1.1V7l1.309,1ZM6.834,13.522V11.189H9.166v2.333Zm5.644,0H10.366V11.089a1.1,1.1,0,0,0-1.1-1.1H6.734a1.1,1.1,0,0,0-1.1,1.1v2.433H3.522V5.973L7.793,2.524l4.685,3.565Z"/></g></svg>