<svg xmlns="http://www.w3.org/2000/svg" width="16" height="16" viewBox="0 0 16 16"><defs><style>.a,.b{fill:#12c49b;}.a{opacity:0;}</style></defs><rect class="a" width="16" height="16" transform="translate(0 0)"/><g transform="translate(-0.396 -0.57)"><g transform="translate(2.495 1.14)"><path class="b" d="M8.4,16a.642.642,0,0,1-.432-.166c-.223-.2-5.469-5.013-5.469-8.792a5.9,5.9,0,1,1,11.8,0c0,3.878-5.25,8.6-5.473,8.8A.642.642,0,0,1,8.4,16Zm0-13.575A4.621,4.621,0,0,0,3.78,7.042c0,2.428,3.015,5.869,4.616,7.432,1.219-1.18,4.614-4.709,4.614-7.432A4.621,4.621,0,0,0,8.4,2.425Z" transform="translate(-2.495 -1.14)"/></g><g transform="translate(6.064 4.765)"><path class="b" d="M8.333,9.538A2.508,2.508,0,1,1,10.84,7.03,2.511,2.511,0,0,1,8.333,9.538Zm0-3.73A1.222,1.222,0,1,0,9.555,7.03,1.224,1.224,0,0,0,8.333,5.808Z" transform="translate(-5.825 -4.522)"/></g></g></svg>