<svg xmlns="http://www.w3.org/2000/svg" width="18" height="18" viewBox="0 0 18 18">
  <defs>
    <style>
      .cls-1 {
        fill: #e5e5e5;
        opacity: 0;
      }

      .cls-2 {
        fill: inherit;
      }
    </style>
  </defs>
  <g id="组_885" data-name="组 885" transform="translate(-1743 -465.964)">
    <rect id="矩形_1067" data-name="矩形 1067" class="cls-1" width="18" height="18" transform="translate(1743 465.964)"/>
    <path id="路径_3997" data-name="路径 3997" class="cls-2" d="M8.872,5.344a.737.737,0,0,0,1.043,0L12.57,2.722l-.017,2.115a.531.531,0,0,0,.527.55h.379a.514.514,0,0,0,.552-.482l.015-3.86c0-.006-.02-.01-.02-.015l.03-.27a.5.5,0,0,0-.129-.379.507.507,0,0,0-.378-.15L13.26.236a.115.115,0,0,0-.015,0L9.389.216a.57.57,0,0,0-.552.551v.379a.607.607,0,0,0,.62.55L11.5,1.7,8.873,4.3A.734.734,0,0,0,8.872,5.344ZM5.186,9.09a.738.738,0,0,0-1.044,0L1.488,11.7l.017-2.066a.53.53,0,0,0-.527-.55h-.4a.512.512,0,0,0-.552.482L.009,13.39c0,.005.02.009.02.015L0,13.674a.5.5,0,0,0,.128.379.51.51,0,0,0,.378.151l.27-.007.015,0,3.849.023a.571.571,0,0,0,.552-.552v-.379a.587.587,0,0,0-.619-.527l-2.039-.007,2.652-2.62A.738.738,0,0,0,5.186,9.09Zm8.839,4.3-.015-3.8a.513.513,0,0,0-.552-.482h-.379a.531.531,0,0,0-.527.55l.017,2.054L9.914,9.09a.738.738,0,0,0-1.043,1.043l2.653,2.62-2.013.008a.588.588,0,0,0-.62.527v.379a.571.571,0,0,0,.552.552l3.8-.023.015,0,.269.007a.51.51,0,0,0,.378-.151.5.5,0,0,0,.129-.379l-.03-.269C14.005,13.4,14.025,13.4,14.025,13.391ZM2.557,1.7,4.573,1.7a.605.605,0,0,0,.62-.55V.767A.57.57,0,0,0,4.641.216L.792.238a.13.13,0,0,0-.015,0L.507.23A.509.509,0,0,0,.129.381.5.5,0,0,0,0,.76l.029.27c0,.005-.02.009-.02.015L.025,4.9a.512.512,0,0,0,.552.482h.4a.531.531,0,0,0,.528-.55l-.017-2.1L4.143,5.344A.738.738,0,1,0,5.187,4.3Z" transform="translate(1744.982 467.746)"/>
  </g>
</svg>
