<svg xmlns="http://www.w3.org/2000/svg" width="20" height="20" viewBox="0 0 20 20">
  <g id="组_9014" data-name="组 9014" transform="translate(-13.998 -4.124)">
    <rect id="矩形_6762" data-name="矩形 6762" width="20" height="20" transform="translate(13.998 4.124)" fill="currentColor" opacity="0"/>
    <g id="组_9013" data-name="组 9013">
      <path id="路径_9259" data-name="路径 9259" d="M32.1,14.782h0l.059.059V14.9H32.1l-.178.059a6.6,6.6,0,0,0-2.132,1.481l2.9,3.139a.181.181,0,0,1,0,.237l-.651.711c0,.059-.06.059-.119.059s-.059,0-.118-.059l-2.784-2.962a6.429,6.429,0,0,0-.592,1.481c0,.059-.059.059-.059.119h-.119l-1.3-.356c-.118-.059-.118-.118-.118-.237v-.059a6.165,6.165,0,0,1,2.132-3.08,3.655,3.655,0,0,1,3.139-.651Z" fill="currentColor"/>
      <g id="组_9012" data-name="组 9012">
        <path id="路径_9260" data-name="路径 9260" d="M26.4,19.359h-8V15.5a3,3,0,0,1-.415.124c-.033.008-.066.017-.1.024l-.048.007c-.073.012-.147.024-.222.03s-.17.013-.263.013a2.791,2.791,0,0,1-.523-.05V20.93a.786.786,0,0,0,.786.785H27.953A4.418,4.418,0,0,1,26.4,19.359Z" fill="currentColor"/>
        <path id="路径_9261" data-name="路径 9261" d="M17.124,7.553c0,.011.009.022.012.033a.279.279,0,0,0,.015.039l.011.022a.784.784,0,0,0,.712.457H29.391a.785.785,0,0,0,0-1.57H17.875a.785.785,0,0,0-.786.783v0a.83.83,0,0,0,.009.111A.727.727,0,0,0,17.124,7.553Z" fill="currentColor"/>
        <path id="路径_9262" data-name="路径 9262" d="M30.535,8.891H16.729l-1.473,3.925a2.094,2.094,0,0,0,4.188,0,2.094,2.094,0,0,0,4.188,0,2.094,2.094,0,0,0,4.187,0,2.083,2.083,0,0,0,.7,1.559h0a4.411,4.411,0,0,1,3.161-.439,2.087,2.087,0,0,0,.327-1.12Z" fill="currentColor"/>
      </g>
    </g>
  </g>
</svg>
