<svg xmlns="http://www.w3.org/2000/svg" width="24" height="24" viewBox="0 0 24 24">
  <g id="消息" transform="translate(4.6 -19.221)">
    <rect id="矩形_6850" data-name="矩形 6850" width="24" height="24" transform="translate(-4.6 19.221)" opacity="0"/>
    <rect id="矩形_3427" data-name="矩形 3427" width="24" height="24" transform="translate(-4.6 19.221)" fill="rgba(0,0,0,0)"/>
    <path id="路径_9070" data-name="路径 9070" d="M15.142,22.621H-1.341a1.463,1.463,0,0,0-1.4,1.518V38.231a.741.741,0,0,0,1.234.552L.374,37.1H15.142a1.463,1.463,0,0,0,1.4-1.518V24.139A1.463,1.463,0,0,0,15.142,22.621Zm-3.1,10.169H2.173V31.08h9.871Zm0-4.166H2.173v-1.71h9.871Z" transform="translate(0.499 0.424)" fill="#12c49b"/>
  </g>
</svg>
