<svg xmlns="http://www.w3.org/2000/svg" width="16" height="16" viewBox="0 0 16 16"><defs><style>.a,.b{fill:#666a80;}.a{opacity:0;}</style></defs><rect class="a" width="16" height="16" transform="translate(0 0)"/><path class="b" d="M14,14.374H4.878a.6.6,0,0,1-.6-.6V4.651a.6.6,0,0,1,.6-.6H14a.6.6,0,0,1,.6.6v9.123A.6.6,0,0,1,14,14.374Zm-8.522-1.2H13.4V5.251H5.478Z"/><path class="b" d="M4.878,11.95H2a.6.6,0,0,1-.6-.6V2.226a.6.6,0,0,1,.6-.6h9.124a.6.6,0,0,1,.6.6V4.655h-1.2V2.825H2.6v7.926H4.878Z"/><path class="b" d="M9.438,12.043a.6.6,0,0,1-.423-.176L6.8,9.657l.847-.847L9.438,10.6l1.788-1.786.847.849-2.211,2.21A.6.6,0,0,1,9.438,12.043Z"/><rect class="b" width="1.199" height="5.477" transform="translate(8.838 5.986)"/></svg>