<svg xmlns="http://www.w3.org/2000/svg" xmlns:xlink="http://www.w3.org/1999/xlink" width="20" height="20" viewBox="0 0 20 20"><defs><style>.a{fill:url(#a);}.b{fill:url(#b);}.c{fill:rgba(76,204,255,0);}.d{stroke:rgba(0,0,0,0);stroke-miterlimit:10;fill:url(#c);}</style><linearGradient id="a" x1="0.457" y1="0.729" x2="0.48" gradientUnits="objectBoundingBox"><stop offset="0" stop-color="#41f8e6" stop-opacity="0"/><stop offset="1" stop-color="#41f8e6" stop-opacity="0.302"/></linearGradient><linearGradient id="b" x1="0.5" x2="0.5" y2="0.927" gradientUnits="objectBoundingBox"><stop offset="0" stop-color="#41f8e6" stop-opacity="0.6"/><stop offset="1" stop-color="#41f8e6" stop-opacity="0"/></linearGradient><linearGradient id="c" x1="0.5" x2="0.5" y2="1" gradientUnits="objectBoundingBox"><stop offset="0" stop-color="#11cf9c"/><stop offset="1" stop-color="#02cac8"/></linearGradient></defs><g transform="translate(-5.5 -2)"><rect class="a" width="20" height="20" rx="10" transform="translate(5.5 2)"/><path class="b" d="M10,1a9,9,0,1,0,9,9,9.01,9.01,0,0,0-9-9m0-1A10,10,0,1,1,0,10,10,10,0,0,1,10,0Z" transform="translate(5.5 2)"/><g transform="translate(-198.149 -25.052)"><rect class="c" width="14" height="14" transform="translate(206.649 30.051)"/><g transform="translate(208.384 31.962)"><path class="d" d="M-82.053-558.733h-6.941a.747.747,0,0,1-.746-.747v-4.285h-.247a.729.729,0,0,1-.7-.5.729.729,0,0,1,.23-.828L-86-568.742a.75.75,0,0,1,.473-.169.75.75,0,0,1,.473.169l4.462,3.655a.729.729,0,0,1,.23.828.729.729,0,0,1-.7.5h-.247v4.285A.747.747,0,0,1-82.053-558.733Zm-5.373-6.43a.631.631,0,0,0-.63.63.631.631,0,0,0,.63.63H-83.8a.631.631,0,0,0,.63-.63.631.631,0,0,0-.63-.63Z" transform="translate(90.734 568.911)"/></g></g></g></svg>