<svg xmlns="http://www.w3.org/2000/svg" xmlns:xlink="http://www.w3.org/1999/xlink" width="20.001" height="20" viewBox="0 0 20.001 20"><defs><style>.a{fill:#fff;}.b{fill:#12c49b;}.c{clip-path:url(#a);}.d{fill:#cffff4;}</style><clipPath id="a"><rect class="a" width="11" height="20" transform="translate(1377 90)"/></clipPath></defs><g transform="translate(-1377 -90)"><path class="b" d="M19.677,20H.324A.324.324,0,0,1,0,19.676V18.622A.325.325,0,0,1,.324,18.3H1.3V4.243A.916.916,0,0,1,1.851,3.4L9.6.074a.915.915,0,0,1,1.275.841V18.3h1.04v-15a.913.913,0,0,1,1.374-.79L18.246,5.4a.917.917,0,0,1,.454.79V18.3h.977a.325.325,0,0,1,.324.325v1.054A.325.325,0,0,1,19.677,20Zm-4.914-4.171a.324.324,0,0,0-.324.324v1.03a.325.325,0,0,0,.324.325h1.029a.325.325,0,0,0,.324-.325v-1.03a.324.324,0,0,0-.324-.324Zm-7.645,0a.324.324,0,0,0-.324.324v1.03a.324.324,0,0,0,.324.324H8.147a.324.324,0,0,0,.324-.324v-1.03a.324.324,0,0,0-.324-.324Zm-3.12,0a.324.324,0,0,0-.324.324v1.03A.324.324,0,0,0,4,17.507h1.03a.324.324,0,0,0,.324-.324v-1.03a.324.324,0,0,0-.324-.324Zm10.765-2.594a.324.324,0,0,0-.324.324V14.59a.324.324,0,0,0,.324.324h1.029a.324.324,0,0,0,.324-.324V13.56a.324.324,0,0,0-.324-.324Zm-7.645,0a.324.324,0,0,0-.324.324V14.59a.324.324,0,0,0,.324.324H8.147a.324.324,0,0,0,.324-.324V13.56a.324.324,0,0,0-.324-.324Zm-3.12,0a.324.324,0,0,0-.324.324V14.59A.324.324,0,0,0,4,14.914h1.03a.324.324,0,0,0,.324-.324V13.56a.324.324,0,0,0-.324-.324Zm10.765-2.593a.324.324,0,0,0-.324.324V12a.325.325,0,0,0,.324.325h1.029A.325.325,0,0,0,16.115,12v-1.03a.324.324,0,0,0-.324-.324Zm-7.645,0a.325.325,0,0,0-.324.325V12a.324.324,0,0,0,.324.324H8.147A.324.324,0,0,0,8.471,12v-1.03a.325.325,0,0,0-.324-.325Zm-3.12,0a.325.325,0,0,0-.324.325V12A.324.324,0,0,0,4,12.32h1.03A.324.324,0,0,0,5.351,12v-1.03a.325.325,0,0,0-.324-.325ZM14.763,8.049a.324.324,0,0,0-.324.324V9.4a.324.324,0,0,0,.324.324h1.029a.324.324,0,0,0,.324-.324V8.373a.324.324,0,0,0-.324-.324Zm-7.645,0a.324.324,0,0,0-.324.324V9.4a.324.324,0,0,0,.324.324H8.147A.324.324,0,0,0,8.471,9.4V8.373a.324.324,0,0,0-.324-.324ZM4,8.049a.324.324,0,0,0-.324.324V9.4A.324.324,0,0,0,4,9.727h1.03A.324.324,0,0,0,5.351,9.4V8.373a.324.324,0,0,0-.324-.324ZM14.763,5.456a.324.324,0,0,0-.324.324V6.81a.324.324,0,0,0,.324.324h1.029a.324.324,0,0,0,.324-.324V5.78a.324.324,0,0,0-.324-.324Zm-7.645,0a.325.325,0,0,0-.324.325V6.81a.324.324,0,0,0,.324.324H8.147a.324.324,0,0,0,.324-.324V5.78a.325.325,0,0,0-.324-.325ZM4,5.455a.325.325,0,0,0-.324.325V6.81A.324.324,0,0,0,4,7.134h1.03a.324.324,0,0,0,.324-.324V5.78a.325.325,0,0,0-.324-.325Zm3.12-2.593a.324.324,0,0,0-.324.324v1.03a.325.325,0,0,0,.324.325H8.147a.325.325,0,0,0,.324-.325V3.186a.324.324,0,0,0-.324-.324Z" transform="translate(1377 90)"/><g class="c"><path class="d" d="M19.677,20H.324A.324.324,0,0,1,0,19.676V18.622A.325.325,0,0,1,.324,18.3H1.3V4.243A.916.916,0,0,1,1.851,3.4L9.6.074a.915.915,0,0,1,1.275.841V18.3h1.04v-15a.913.913,0,0,1,1.374-.79L18.246,5.4a.917.917,0,0,1,.454.79V18.3h.977a.325.325,0,0,1,.324.325v1.054A.325.325,0,0,1,19.677,20Zm-4.914-4.171a.324.324,0,0,0-.324.324v1.03a.325.325,0,0,0,.324.325h1.029a.325.325,0,0,0,.324-.325v-1.03a.324.324,0,0,0-.324-.324Zm-7.645,0a.324.324,0,0,0-.324.324v1.03a.324.324,0,0,0,.324.324H8.147a.324.324,0,0,0,.324-.324v-1.03a.324.324,0,0,0-.324-.324Zm-3.12,0a.324.324,0,0,0-.324.324v1.03A.324.324,0,0,0,4,17.507h1.03a.324.324,0,0,0,.324-.324v-1.03a.324.324,0,0,0-.324-.324Zm10.765-2.594a.324.324,0,0,0-.324.324V14.59a.324.324,0,0,0,.324.324h1.029a.324.324,0,0,0,.324-.324V13.56a.324.324,0,0,0-.324-.324Zm-7.645,0a.324.324,0,0,0-.324.324V14.59a.324.324,0,0,0,.324.324H8.147a.324.324,0,0,0,.324-.324V13.56a.324.324,0,0,0-.324-.324Zm-3.12,0a.324.324,0,0,0-.324.324V14.59A.324.324,0,0,0,4,14.914h1.03a.324.324,0,0,0,.324-.324V13.56a.324.324,0,0,0-.324-.324Zm10.765-2.593a.324.324,0,0,0-.324.324V12a.325.325,0,0,0,.324.325h1.029A.325.325,0,0,0,16.115,12v-1.03a.324.324,0,0,0-.324-.324Zm-7.645,0a.325.325,0,0,0-.324.325V12a.324.324,0,0,0,.324.324H8.147A.324.324,0,0,0,8.471,12v-1.03a.325.325,0,0,0-.324-.325Zm-3.12,0a.325.325,0,0,0-.324.325V12A.324.324,0,0,0,4,12.32h1.03A.324.324,0,0,0,5.351,12v-1.03a.325.325,0,0,0-.324-.325ZM14.763,8.049a.324.324,0,0,0-.324.324V9.4a.324.324,0,0,0,.324.324h1.029a.324.324,0,0,0,.324-.324V8.373a.324.324,0,0,0-.324-.324Zm-7.645,0a.324.324,0,0,0-.324.324V9.4a.324.324,0,0,0,.324.324H8.147A.324.324,0,0,0,8.471,9.4V8.373a.324.324,0,0,0-.324-.324ZM4,8.049a.324.324,0,0,0-.324.324V9.4A.324.324,0,0,0,4,9.727h1.03A.324.324,0,0,0,5.351,9.4V8.373a.324.324,0,0,0-.324-.324ZM14.763,5.456a.324.324,0,0,0-.324.324V6.81a.324.324,0,0,0,.324.324h1.029a.324.324,0,0,0,.324-.324V5.78a.324.324,0,0,0-.324-.324Zm-7.645,0a.325.325,0,0,0-.324.325V6.81a.324.324,0,0,0,.324.324H8.147a.324.324,0,0,0,.324-.324V5.78a.325.325,0,0,0-.324-.325ZM4,5.455a.325.325,0,0,0-.324.325V6.81A.324.324,0,0,0,4,7.134h1.03a.324.324,0,0,0,.324-.324V5.78a.325.325,0,0,0-.324-.325Zm3.12-2.593a.324.324,0,0,0-.324.324v1.03a.325.325,0,0,0,.324.325H8.147a.325.325,0,0,0,.324-.325V3.186a.324.324,0,0,0-.324-.324Z" transform="translate(1377 90)"/></g></g></svg>