<svg id="组_1318" data-name="组 1318" xmlns="http://www.w3.org/2000/svg" width="16" height="16" viewBox="0 0 16 16">
  <defs>
    <style>
      .cls-1, .cls-4 {
        fill: #fff;
      }

      .cls-1 {
        opacity: 0;
      }

      .cls-2 {
        fill: #ff4867;
      }

      .cls-3 {
        fill: #ff97a9;
      }
    </style>
  </defs>
  <rect id="矩形_1076" data-name="矩形 1076" class="cls-1" width="16" height="16"/>
  <g id="组_1329" data-name="组 1329" transform="translate(1.404)">
    <path id="路径_4215" data-name="路径 4215" class="cls-2" d="M87.915,0h8.626l4.106,4.027V15.554a.454.454,0,0,1-.46.446H87.915a.454.454,0,0,1-.46-.446V.446A.454.454,0,0,1,87.915,0Z" transform="translate(-87.455)"/>
    <path id="路径_4216" data-name="路径 4216" class="cls-3" d="M668.969,0V3.58a.453.453,0,0,0,.46.446h3.646Z" transform="translate(-659.883)"/>
    <path id="路径_4217" data-name="路径 4217" class="cls-4" d="M251.624,357.613c-.817,0-1.551-1.361-1.936-2.245a13.827,13.827,0,0,0-2.059-.667,5.41,5.41,0,0,1-2.437.971.945.945,0,0,1-.978-.659.754.754,0,0,1,.092-.711,1.56,1.56,0,0,1,1.288-.419,8.816,8.816,0,0,1,1.929.262,12.269,12.269,0,0,0,1.395-1.115c-.192-.882-.4-2.312.13-2.971a1.03,1.03,0,0,1,1.149-.278,1.018,1.018,0,0,1,.795.711c.225.86-.795,2.02-1.482,2.7a12.627,12.627,0,0,0,.6,1.782c.986.426,2.158,1.063,2.291,1.757a.678.678,0,0,1-.225.659.887.887,0,0,1-.552.22h0Zm-.735-1.5c.18.388.351.572.442.572a.1.1,0,0,0,.061-.03.079.079,0,0,0,.028-.081c-.019-.1-.17-.269-.531-.461Zm-5.19-1.571c-.288,0-.367.067-.391.1-.007.01-.028.04-.007.119s.065.14.214.14a1.744,1.744,0,0,0,.771-.285A2.863,2.863,0,0,0,245.7,354.541Zm2.815-.347c.172.046.35.106.516.168a4.38,4.38,0,0,1-.15-.464q-.18.152-.366.3Zm1.214-3.35a.183.183,0,0,0-.142.063,1.335,1.335,0,0,0-.038.937c.333-.347.514-.666.469-.836-.006-.025-.026-.1-.181-.145a.376.376,0,0,0-.107-.019Z" transform="translate(-241.72 -344.256)"/>
  </g>
</svg>
