<svg xmlns="http://www.w3.org/2000/svg" xmlns:xlink="http://www.w3.org/1999/xlink" width="20" height="20" viewBox="0 0 20 20"><defs><style>.a{opacity:0;}.b{fill:#fff;}.c{fill:url(#a);}</style><linearGradient id="a" x1="0.5" x2="0.5" y2="1" gradientUnits="objectBoundingBox"><stop offset="0" stop-color="#11cf9c"/><stop offset="1" stop-color="#02cac8"/></linearGradient></defs><g transform="translate(-17 1.989)"><rect class="a" width="20" height="20" transform="translate(17 -1.989)"/><g transform="translate(-79.45 -81.353)"><path class="b" d="M111.125,90.876a2.877,2.877,0,0,0-2.878,2.877c0,1.937,2.878,4.552,2.878,4.552S114,95.742,114,93.753A2.877,2.877,0,0,0,111.125,90.876Zm.086,3.993a.914.914,0,1,1,.914-.914A.914.914,0,0,1,111.211,94.869Z"/><path class="c" d="M114.716,86.826l-7.474-6.12a1.251,1.251,0,0,0-1.584,0l-7.474,6.12a1.25,1.25,0,0,0,.792,2.217h.412v7.176a1.25,1.25,0,0,0,1.25,1.25h6.734a4.985,4.985,0,0,1-1.053-3.044,5.037,5.037,0,0,1,5.031-5.03,4.972,4.972,0,0,1,2.162.508v-.86h.412A1.25,1.25,0,0,0,114.716,86.826Zm-6.635,1.529H104.45a.63.63,0,0,1,0-1.26h3.631a.63.63,0,1,1,0,1.26Z"/></g></g></svg>