<svg xmlns="http://www.w3.org/2000/svg" width="41" height="47" viewBox="0 0 41 47"><defs><style>.a,.d{fill:#fff;}.a{opacity:0.15;}.b,.c{fill:#ffc901;}.b{stroke:#000;stroke-linejoin:round;stroke-width:0.7px;}.c{opacity:0;}.e{fill:#12c49b;}.f{fill:none;stroke:#12c49b;stroke-width:1.4px;}</style></defs><path class="a" d="M35.25,0,47,20.5,35.25,41H11.75L0,20.5,11.75,0Z" transform="translate(41) rotate(90)"/><g transform="translate(32.4 11) rotate(90)"><path class="b" d="M8.019,8" transform="translate(4.326 4.427)"/><rect class="c" width="26" height="26" transform="translate(-1 -0.6)"/><g transform="translate(-584.341 1144.654) rotate(-90)"><path class="d" d="M1144.5,593.921l.018-.007-3.294-7.16-.014.007a1.815,1.815,0,0,0-1.594-.966h-14.773a1.809,1.809,0,0,0-1.594.966l-3.308,7.149h.011a2.561,2.561,0,0,0,.028,2.476,3.7,3.7,0,0,0,2.739,1.306v7.954a1.935,1.935,0,0,0,1.931,1.931h15.633a1.934,1.934,0,0,0,1.931-1.931v-7.94a2.732,2.732,0,0,0,2.254-1.31,2.535,2.535,0,0,0,.035-2.472Zm-1.282,1.457c-.411.625-1.113.948-2.978.966-.983-.011-3.245-.513-3.276-2.665v-.032h-1.447v.032c-.028,2.156-2.3,2.655-3.28,2.665-.987-.011-3.28-.513-3.283-2.7h-1.471c0,2.181-2.289,2.686-3.276,2.7-1.868-.018-2.532-.341-2.943-.966-.249-.376-.228-.421.06-1.106h-.011l2.746-6.524a.863.863,0,0,1,.783-.5h14.32a.862.862,0,0,1,.783.5h.007l3.227,6.033-.014.007a1.7,1.7,0,0,1,.053,1.6Zm-2.448,9.783a.98.98,0,0,1-.98.98h-14.647a.98.98,0,0,1-.98-.98v-7.385c.183.007-.126.01.042.014h.011a5.113,5.113,0,0,1,8.027,0h0a5.118,5.118,0,0,1,7.993,0h.007c.169,0,.348,0,.527-.011v7.381Z"/><path class="e" d="M1140.77,597.78v7.381a.98.98,0,0,1-.98.98h-14.647a.98.98,0,0,1-.98-.98v-7.385l-1.444-.084v7.954a1.935,1.935,0,0,0,1.931,1.931h15.633a1.933,1.933,0,0,0,1.931-1.931v-7.94Z"/></g><line class="f" y1="17.339" x2="20.339" transform="translate(2.161 3.9)"/></g></svg>