<svg xmlns="http://www.w3.org/2000/svg" width="16" height="16" viewBox="0 0 16 16">
  <defs>
    <style>
      .cls-1 {
        fill: #e5e5e5;
        opacity: 0;
      }

      .cls-2 {
        fill: inherit;
      }
    </style>
  </defs>
  <g id="组_950" data-name="组 950" transform="translate(-1742.533 -465.497)">
    <rect id="矩形_1067" data-name="矩形 1067" class="cls-1" width="16" height="16" transform="translate(1742.533 465.497)"/>
    <g id="组_962" data-name="组 962" transform="translate(1616.291 402.538)">
      <path id="路径_4048" data-name="路径 4048" class="cls-2" d="M154.874,80.568l-.406.145a9.634,9.634,0,0,1-2.854.383,12.548,12.548,0,0,1-2.548-.352,12.325,12.325,0,0,0-2.586-.36,4.765,4.765,0,0,0-2.479.428l-.13.092v12.93h.612V87.981a5.731,5.731,0,0,1,2-.268,11.655,11.655,0,0,1,2.456.344,12.425,12.425,0,0,0,2.678.367,10.179,10.179,0,0,0,3.06-.413l.207-.069Zm-.612,6.932a10.328,10.328,0,0,1-2.647.321,12.548,12.548,0,0,1-2.548-.352,12.326,12.326,0,0,0-2.586-.36,7,7,0,0,0-2,.23v-6.09a5.814,5.814,0,0,1,2-.26,11.656,11.656,0,0,1,2.456.344,12.425,12.425,0,0,0,2.678.367,11.115,11.115,0,0,0,2.647-.3Z" transform="translate(-15.13 -16.139)"/>
      <path id="路径_4049" data-name="路径 4049" class="cls-2" d="M129.583,77.917h-1.071V64.635l.23-.161A4.849,4.849,0,0,1,131.35,64a12.623,12.623,0,0,1,2.632.36,12.176,12.176,0,0,0,2.5.352,9.3,9.3,0,0,0,2.777-.367l.712-.245v7.865l-.36.122a10.277,10.277,0,0,1-3.137.428,12.717,12.717,0,0,1-2.724-.375,11.358,11.358,0,0,0-2.41-.337,6.2,6.2,0,0,0-1.767.2v5.914Zm-.612-.459h.153V71.682l.145-.054a5.8,5.8,0,0,1,2.081-.283,11.67,11.67,0,0,1,2.51.352,12.553,12.553,0,0,0,2.632.36,9.467,9.467,0,0,0,2.984-.406l.054-.015V64.742l-.1.038a9.959,9.959,0,0,1-2.93.39,12.328,12.328,0,0,1-2.594-.36,11.961,11.961,0,0,0-2.54-.352,4.542,4.542,0,0,0-2.349.39l-.046.031Zm7.513-5.547a12.328,12.328,0,0,1-2.594-.36,12.03,12.03,0,0,0-2.54-.352,6.919,6.919,0,0,0-1.936.222l-.3.092V64.956l.145-.054a5.868,5.868,0,0,1,2.081-.275,11.669,11.669,0,0,1,2.51.352,12.554,12.554,0,0,0,2.632.36,11.1,11.1,0,0,0,2.594-.291l.283-.069v6.557l-.168.046A10.447,10.447,0,0,1,136.484,71.911Zm-5.134-1.178a12.623,12.623,0,0,1,2.632.36,12.176,12.176,0,0,0,2.5.352,10.277,10.277,0,0,0,2.418-.268V65.545a11.614,11.614,0,0,1-2.418.237,12.716,12.716,0,0,1-2.724-.375,11.426,11.426,0,0,0-2.41-.337,6.2,6.2,0,0,0-1.767.2v5.623A8.866,8.866,0,0,1,131.35,70.733Z"/>
    </g>
  </g>
</svg>
