<svg xmlns="http://www.w3.org/2000/svg" width="18" height="18" viewBox="0 0 18 18">
  <defs>
    <style>
      .cls-1, .cls-2 {
        fill: inherit;
      }

      .cls-1 {
        opacity: 0;
      }
    </style>
  </defs>
  <g id="组_1232" data-name="组 1232" transform="translate(-1278.795 -293.795)">
    <rect id="矩形_1187" data-name="矩形 1187" class="cls-1" width="18" height="18" transform="translate(1278.795 293.795)"/>
    <path id="路径_4121" data-name="路径 4121" class="cls-2" d="M127.136,39.853a6.687,6.687,0,0,0-5.192-6.466,6.773,6.773,0,0,0-7.574,3.476,6.619,6.619,0,0,0,1.644,8.094l4.375,4.326,4.7-4.643.107-.106.228-.226a6.6,6.6,0,0,0,1.716-4.455Zm-6.748,2.7a2.7,2.7,0,1,1,2.732-2.7A2.717,2.717,0,0,1,120.388,42.554Z" transform="translate(1167.684 261.671)"/>
  </g>
</svg>
