<svg xmlns="http://www.w3.org/2000/svg" viewBox="0 0 16 16"><defs><style>.cls-1{opacity:0;}</style></defs><g id="图层_2" data-name="图层 2"><g id="图层_1-2" data-name="图层 1"><rect class="cls-1" width="16" height="16"/><path d="M10.75,10.59a3.21,3.21,0,0,0-.21-.58h-.33a2.43,2.43,0,0,1,.19.58Z"/><path d="M11.45,12.22h.38v-.79h.48v.22c0,.11,0,.16-.14.15H12V12h.29c.24,0,.35-.11.35-.35v-.49h-.83v-.27h.7v-.24h-.7v-.27h.84v-.23h-.84V10h-.38v.23h-.61v.23h.61v.27H11v.24h.49v.27H10.8v.24h.65Z"/><path d="M10.68,11.93V10.82h-.62v.24h.25v1a.33.33,0,0,1-.26.36v.21a.8.8,0,0,0,.5-.25.57.57,0,0,0,.5.2h1.69v-.22H11.07A.35.35,0,0,1,10.68,11.93Z"/><path d="M13.76,8.88a3.46,3.46,0,0,0-4.88,0,3.46,3.46,0,0,0,0,4.89,3.45,3.45,0,0,0,4.88-4.89Zm-.85,4a2.26,2.26,0,1,1-1.59-3.85,2.23,2.23,0,0,1,1.59.66h0a2.26,2.26,0,0,1,0,3.19Z"/><path d="M7.14,11.15H4.52V10H7.37a4.14,4.14,0,0,1,1-1.59,4.19,4.19,0,0,1,5.93,0,1.86,1.86,0,0,1,.22.27V4.55a.6.6,0,0,0-.6-.6H10.07V1.82a.6.6,0,0,0-.6-.6H2.73a.6.6,0,0,0-.6.6V13.3h-.9v1.2H8.61c-.08-.07-.18-.13-.26-.21A4.2,4.2,0,0,1,7.14,11.15ZM11,5.89h1.39v1.2H11ZM4.52,4.27H7.44v1.2H4.52Zm0,2.84H7.44v1.2H4.52Z"/></g></g></svg>