<svg xmlns="http://www.w3.org/2000/svg" xmlns:xlink="http://www.w3.org/1999/xlink" width="72" height="72" viewBox="0 0 72 72"><defs><style>.a{fill:#12c49b;}.b{fill:url(#a);}</style><linearGradient id="a" x1="0.5" x2="0.5" y2="1" gradientUnits="objectBoundingBox"><stop offset="0" stop-color="#12c49b"/><stop offset="1" stop-color="#52efef"/></linearGradient></defs><g transform="translate(1 1)"><path class="a" d="M31,0A31,31,0,1,0,62,31,31,31,0,0,0,31,0m0-1A32.008,32.008,0,0,1,43.456,60.485,32.008,32.008,0,0,1,18.544,1.515,31.8,31.8,0,0,1,31-1Z" transform="translate(4 4)"/><path class="a" d="M31,0A31,31,0,1,0,62,31,31,31,0,0,0,31,0m0-1A32.008,32.008,0,0,1,43.456,60.485,32.008,32.008,0,0,1,18.544,1.515,31.8,31.8,0,0,1,31-1Z" transform="translate(4 4)"/><path class="b" d="M33,66A33.009,33.009,0,0,1,20.154,2.594,32.81,32.81,0,0,1,33,0c.167,0,.335,0,.5,0V3c-.152,0-.315,0-.5,0a30,30,0,1,0,0,60c.167,0,.335,0,.5,0v3C33.334,66,33.166,66,33,66Z" transform="translate(2 2)"/><path class="a" d="M35-1c.171,0,.344,0,.515,0L35.5,0l-.126,0H35Zm2.569.09c.17.012.343.025.513.04L38,.127h-.078L37.5.088Zm2.556.272c.169.024.34.05.509.076l-.155.988L40.34.4l-.014,0-.014,0L40.3.4l-.014,0-.012,0L40.237.389l-.013,0-.014,0-.014,0-.014,0-.014,0-.014,0-.016,0-.015,0-.015,0L39.984.352Zm2.531.454c.167.036.336.074.5.112L42.932.9q-.243-.056-.488-.109ZM45.148.45c.164.048.329.1.493.148l-.3.955-.128-.039-.012,0-.014,0-.014,0h0l-.047-.014h0l-.01,0-.013,0-.014,0-.014,0h0l-.022-.007h0l-.014,0-.015,0L45,1.45h0l-.134-.04Zm2.44.812c.16.06.322.121.481.183l-.363.932-.066-.025-.012,0-.007,0-.014-.005-.006,0-.009,0-.005,0-.01,0h0l-.014-.005h0l-.012,0,0,0-.009,0-.013-.005L47.506,2.3,47.492,2.3l-.011,0-.017-.007,0,0-.009,0,0,0-.009,0h0l-.01,0h0L47.238,2.2Zm2.375.985c.155.071.312.144.466.217l-.429.9c-.151-.072-.3-.142-.453-.211Zm2.3,1.153c.15.082.3.166.449.25l-.493.87-.267-.15h0l-.01-.005,0,0-.008,0-.006,0-.006,0L51.9,4.346h0l-.014-.008h0l-.013-.007h0l-.013-.007h0l-.068-.038h0l-.013-.007h0Zm2.21,1.314c.143.092.288.187.43.282l-.553.833h0l-.012-.008h0l-.011-.007h0L54.309,5.8h0l-.025-.017h0l-.01-.007,0,0-.008-.005,0,0-.007,0-.005,0-.007,0,0,0-.011-.007-.007,0-.005,0-.007,0,0,0-.008-.005,0,0-.009-.006h0l-.244-.158Zm2.11,1.468c.136.1.274.207.409.311l-.611.791-.267-.2,0,0L56.1,7.074l0,0-.006,0-.007-.005,0,0-.1-.074Zm2,1.615c.129.112.259.226.386.34l-.666.746-.222-.2h0l-.012-.01h0l-.047-.041h0l-.01-.009h0L58,8.615h0l-.035-.03h0l-.01-.008,0,0-.01-.008,0,0-.011-.01ZM60.462,9.55c.121.121.242.244.361.366l-.717.7-.065-.067h0l-.009-.009,0,0-.008-.008,0,0-.01-.011h0L60,10.5l0-.005,0-.005-.006-.006,0,0-.006-.007,0,0-.214-.216Zm1.752,1.881c.112.129.224.26.334.391l-.765.644q-.123-.146-.248-.291l0,0-.007-.008,0,0-.005-.006-.06-.07Zm1.614,2c.1.137.205.276.305.414l-.809.588h0l-.008-.011,0,0-.006-.009,0,0L63.3,14.4l-.007-.009v0l-.007-.01h0l-.007-.01h0l-.093-.126v0l-.007-.009,0,0-.007-.009h0l-.021-.028,0,0-.005-.007,0,0-.005-.007,0,0-.005-.007,0,0-.005-.007v0l-.013-.018,0,0-.006-.009,0,0-.007-.009,0,0-.051-.068Zm1.467,2.111c.092.144.185.29.275.434l-.849.529-.116-.184,0,0L64.6,16.31l0-.005,0-.006,0-.007,0,0-.026-.041h0l-.007-.011h0l-.007-.011h0l-.026-.041,0,0,0-.007,0-.006,0-.005-.006-.01v0l-.042-.065Zm1.313,2.21c.082.15.164.3.244.453l-.884.467-.044-.083h0l-.006-.012v0l0-.009,0-.005v0l-.128-.237,0-.006,0,0-.006-.011h0l-.037-.068Zm1.152,2.3c.071.155.142.313.21.469l-.915.4c-.05-.115-.1-.228-.153-.342v0l0-.011,0,0,0-.008,0-.006,0-.007,0-.007,0,0-.03-.065Zm.984,2.376c.06.16.119.323.176.483l-.942.336-.06-.167h0l0-.012h0l-.013-.037h0l0-.01v0l0-.01v0l0-.009v0l0-.009v0l-.012-.034h0l0-.01v0l0-.01v0l0-.01v0l0-.011h0l-.018-.049v0l0-.01v0l0-.01v0l0-.011h0l-.009-.025Zm.811,2.44c.048.164.1.33.141.495l-.964.267-.038-.135v0l0-.012,0-.006,0-.007,0-.009v0l0-.011h0q-.035-.122-.07-.244v0l0-.009,0-.007,0-.005,0-.012h0l0-.015Zm.633,2.492c.036.167.071.336.105.5l-.98.2c-.016-.081-.033-.164-.05-.245h0l-.006-.03v0l0-.009,0-.009v0l0-.011v0l0-.012h0l-.034-.161Zm.453,2.531c.024.169.047.34.069.51l-.992.127c-.012-.094-.024-.185-.037-.278v0l0-.012v-.026q-.012-.089-.025-.178Zm.271,2.556c.012.17.023.343.032.513l-1,.056q-.005-.089-.01-.179V32.8c-.006-.093-.012-.187-.018-.279ZM70,35.016h1c0,.171,0,.344,0,.515l-1-.014q0-.081,0-.163h0V35.34h0q0-.034,0-.068v-.086s0,0,0-.005v-.01s0,0,0,0Q70,35.092,70,35.016Zm-.089,2.5,1,.071c-.012.17-.026.343-.04.513l-1-.085,0-.056h0v-.038c.007-.083.013-.165.02-.248h0v-.037ZM69.646,40l.99.142c-.024.169-.05.34-.076.509l-.988-.156.025-.161v-.027l0-.01v0c.015-.1.029-.2.043-.293Zm-.442,2.46.977.212c-.036.167-.074.336-.113.5l-.974-.226c.021-.09.042-.182.062-.273v0l0-.012v0l0-.011v0l0-.009v-.01Zm-.618,2.422.959.282c-.048.164-.1.329-.149.493l-.955-.3h0l.018-.058v0l0-.012v0l0-.012v0l0-.012v0l0-.015h0l0-.014,0-.005,0-.008,0-.007,0-.007,0-.008,0,0,0-.009v0q.041-.134.08-.269h0l0-.012v0Zm-.79,2.371.937.35c-.06.16-.122.322-.184.481l-.932-.364q.082-.209.161-.42v0l0,0,0-.01v0l0-.012h0Zm-.959,2.308.909.416c-.071.155-.144.312-.218.466l-.9-.429.106-.226v0l.005-.011,0,0,0-.009,0-.005,0-.008,0-.005,0-.008,0-.006.006-.012,0-.006,0-.007,0-.006,0-.007,0-.006,0-.007,0-.006,0-.008,0-.005.005-.012h0l.006-.014h0l.006-.013v0l.006-.013h0Zm-1.122,2.234.877.481c-.082.15-.166.3-.25.449l-.87-.493,0,0,0,0,.005-.009,0-.006,0-.006.007-.013h0l.007-.012v0l.006-.011h0l.083-.149h0L65.6,52h0l.023-.041h0l.007-.013h0l.007-.012v0l.075-.136Zm-1.279,2.148.84.542c-.092.143-.187.288-.282.43l-.833-.554.108-.164h0l.007-.011h0Zm-1.429,2.051.8.6c-.1.136-.207.274-.312.409l-.791-.612.214-.28,0,0,.006-.007,0,0,.005-.007,0-.005,0-.006.006-.008,0,0,.009-.012h0l.008-.011,0,0,.008-.01v0l.008-.011h0l.018-.025Zm-1.571,1.944.755.656c-.112.129-.226.259-.34.386l-.746-.666.022-.025.009-.01h0l.227-.257h0l.008-.009,0,0L61.382,58l0-.005,0,0Zm-1.7,1.828.707.708c-.121.121-.244.242-.366.361l-.7-.718.129-.126,0,0,.007-.007,0,0,.007-.006,0,0,.006-.006,0,0,.01-.01.005,0,.005-.005.005-.005,0,0,.006-.006,0,0,.006-.006,0,0L59.6,59.9l0,0,.01-.01,0,0,.007-.007,0,0,.006-.006,0,0,.006-.006,0,0,.005-.005,0,0,.006-.006.009-.009,0,0,.006-.006,0,0,.007-.007,0,0L59.7,59.8l0,0Zm-1.83,1.7.655.756c-.129.112-.261.224-.391.334l-.644-.765.095-.08,0,0,.007-.006.006,0,0,0,.007-.006,0,0,.008-.007h0Zm-1.946,1.568.6.8c-.137.1-.276.2-.414.305l-.588-.809.081-.059h0l.01-.008h0l.03-.022h0l.007-.005,0,0,.006,0,.005,0,.006,0,.007,0,0,0,.024-.017h0l.01-.008,0,0,.01-.008h0l.012-.009h0l.05-.037h0l.062-.046h0l.011-.008,0,0,.01-.008h0l.024-.018.005,0,.005,0ZM53.9,64.462l.541.841c-.144.092-.29.185-.435.275l-.529-.849Q53.692,64.6,53.9,64.462Zm-2.149,1.276.479.878c-.15.082-.3.164-.453.243l-.467-.884.077-.041h0l.009,0,0,0,.008,0,0,0,.009,0h0l.043-.023h0l.01-.005h0l.011-.006h0l.2-.106h0l.009,0,0,0,.007,0,.006,0,.006,0,.011-.006h0Zm-2.235,1.119.415.91c-.155.071-.313.142-.47.21l-.4-.916.025-.011h0l.008,0,.012-.005.013-.006.009,0,0,0,.013-.006h0l.371-.167Zm-2.31.956.349.937c-.16.06-.323.119-.484.176l-.335-.942.143-.051.011,0,.013,0,.013,0,.011,0h0Zm-2.372.787.281.96c-.164.048-.33.1-.495.141l-.267-.964.356-.1h0l.011,0h0l.015,0,.017,0h0Zm-2.423.614.211.978c-.167.036-.336.071-.5.1l-.2-.98Q42.169,69.266,42.413,69.213Zm-2.461.439.14.99c-.169.024-.34.047-.51.068l-.126-.992C39.622,69.7,39.788,69.676,39.953,69.652Zm-2.486.262.069,1c-.17.012-.343.023-.513.032l-.055-1,.037,0h.048l.1-.006h.2Zm-3,.082.135,0h.057l.308,0v1c-.171,0-.344,0-.515,0Zm-2.5-.125.07.006H32.1l.373.029-.071,1c-.17-.012-.343-.026-.513-.04Zm-2.481-.3.165.026h0l.015,0,.015,0,.016,0,.017,0h0l.046.007.015,0,.015,0,.015,0,.016,0h0l.03,0,.014,0,.014,0,.013,0,.011,0h0l.069.01-.142.99c-.169-.024-.34-.05-.509-.077Zm-2.453-.479.074.017.013,0,.013,0,.011,0h0l.157.036h0l.015,0,.015,0,.016,0h0l.167.037-.213.977c-.167-.036-.336-.074-.5-.113Zm-2.412-.654.052.016.012,0,.013,0,.011,0h0l.013,0h0l.329.1.013,0,.013,0,.012,0,.007,0-.282.959c-.164-.048-.329-.1-.492-.149Zm-2.359-.825.2.077h0l.011,0h0l.01,0,0,0,.009,0,.005,0,.008,0,.012,0,.005,0,.01,0,0,0,.01,0,0,0,.01,0,0,0,.01,0h0l.011,0h0l.014.005h0l.012,0,0,0,.009,0,.013.005.013,0,.012,0,.052.019-.351.937c-.16-.06-.321-.122-.48-.184Zm-2.294-.993.093.044h0l.01,0,0,0,.007,0,.008,0,0,0,.2.092,0,0,.009,0,.007,0,.005,0,.009,0h0l.093.043-.417.909c-.155-.071-.312-.144-.466-.218Zm-2.217-1.155.067.038,0,0,.008,0,.006,0,.005,0,.008,0,0,0,.336.186-.481.877c-.15-.082-.3-.166-.449-.251Zm-2.129-1.31.082.054.009.006,0,0,.01.007,0,0,.011.007h0l.064.042h0l.011.007,0,0,.01.006,0,0,.011.007.006,0,.007,0,.008.005,0,0,.009.006h0l.163.106-.542.84c-.143-.093-.288-.187-.43-.282ZM13.6,62.695c.12.092.239.184.36.275l0,0,.009.007,0,0,.007,0,.006,0,0,0,.006,0-.6.8c-.136-.1-.274-.207-.409-.312Zm-1.921-1.6,0,0,.005,0,0,0,.008.007,0,0,.034.031h0l.011.01h0l.046.041h0l.011.01h0l.01.009h0l.011.01h0l.012.01h0l.01.009,0,0,.007.007,0,0,.007.006,0,0,.006.005,0,0,.01.009,0,0,.007.006.005,0,.006.005,0,0,.006.005,0,0,.007.006,0,0,.022.019h0l.01.009h0l.07.061-.656.755c-.129-.112-.259-.226-.386-.34Zm-1.8-1.731.021.022h0L9.9,59.4l0,0,.008.008,0,0,.009.009,0,0,.01.011,0,0,.008.009,0,0,.006.006,0,0,0,.005.005.005,0,0,.006.006,0,0L10,59.5h0l.007.007,0,0,.006.006,0,0,.006.006,0,0,.006.006,0,0,.012.012,0,0,0,0,.006.006,0,0,.007.007,0,0,.008.008,0,0,.131.132-.708.706c-.12-.121-.242-.244-.361-.367ZM8.2,57.51l.1.119,0,0,.008.009,0,0,.007.008,0,0,.008.009,0,0,.01.011,0,0,.007.008,0,0,.005.006,0,.005.005.006,0,0,.006.006,0,0,.009.011v0l.008.01,0,0,.006.008,0,0,.006.007,0,0,.007.008,0,0,.02.023h0l.009.011h0l.009.011h0l.01.011h0l.041.047-.756.654c-.112-.129-.224-.261-.334-.391L8.2,57.51ZM6.658,55.54l.073.1h0l.008.011v0l.008.01.005.007,0,.005.005.007,0,0,.006.008,0,0,.007.009v0l.03.04h0l.006.009,0,0,.006.008,0,0,0,.007,0,.005,0,.006.008.011,0,0,.008.01,0,0,.008.011h0l.084.112-.8.6c-.1-.137-.2-.276-.305-.414l.809-.588Zm-1.4-2.074,0,0,0,.006,0,.008,0,0q.1.161.2.321h0l0,.005.005.008,0,0,.007.011h0l.034.052-.841.54C4.6,54.286,4.5,54.14,4.414,54ZM4.019,51.3c.056.106.112.211.169.316l0,0,0,.009,0,.005,0,.007,0,.006,0,.006,0,.007,0,0,.017.031h0l.006.011h0l.018.033-.878.479c-.082-.15-.164-.3-.243-.453l.885-.466ZM2.933,49.047h0l0,.009,0,0,0,.006.019.043h0q.087.2.176.391l-.91.415c-.071-.155-.142-.313-.21-.47Zm-.921-2.324.029.083v0l0,.01,0,0,0,.008,0,.006,0,.007,0,.008,0,.005.01.028h0l0,.013v0l0,.013h0c.034.093.068.186.1.279l-.937.348c-.059-.16-.119-.323-.176-.484ZM1.26,44.34l.005.02v0l0,.008,0,.012h0c.022.079.045.161.068.24h0l0,.012v0l0,.009,0,.006,0,.006.045.157-.96.28c-.048-.164-.1-.33-.141-.5ZM.682,41.908q.023.113.046.225h0l0,.012v0l0,.01v0l0,.01v0l0,.01v0l.007.031v.007l0,.007v.007l0,.008v.007l0,.007v.007l0,.008v.005l0,.009v0l.011.05h0l.011.051-.978.21c-.036-.167-.071-.336-.1-.5Zm-.4-2.467.008.062h0l0,.015v0l0,.013v0l0,.013v0l0,.013v0l0,.03v.084l0,.037v.072l.005.038h0v.1l0,.012h0l-.99.14c-.024-.169-.047-.341-.068-.51ZM.054,36.952q.009.161.019.321v.054c0,.041.006.083.008.124l-1,.069c-.012-.17-.022-.343-.032-.513ZM-1,34.437l1,.015v.016H0v.051H0q0,.216,0,.433H-1C-1,34.781-1,34.608-1,34.437Zm.13-2.567,1,.086c-.005.061-.011.125-.016.186v.082h0l0,.054h0v.071l0,.035v.068h0l-1-.072C-.894,32.213-.88,32.04-.866,31.87Zm.312-2.552.988.157q-.023.143-.044.287v.06l0,.011h0l-.02.137-.99-.142C-.607,29.658-.581,29.487-.554,29.318Zm.493-2.523.974.227L.872,27.2h0l0,.011v0l0,.01v0l0,.01v0l0,.011v0l-.012.051h0l0,.013h0l0,.013h0l-.017.078v0l0,.01v0l0,.009v.006l0,.007,0,.01v0L.8,27.51-.174,27.3C-.137,27.13-.1,26.961-.061,26.795Zm.674-2.482.955.3,0,.006v0l0,.01v0l0,.01v0l-.014.047v0l0,.009v0l0,.009,0,.005,0,.008,0,.006,0,.007,0,.011v0l0,.013v0l0,.012v0l0,.012v0l0,.014h0c-.027.089-.054.18-.081.269l-.959-.283C.512,24.642.562,24.476.613,24.313Zm.85-2.427.931.364q-.078.2-.154.4h0l0,.012h0l-.02.052-.936-.351C1.339,22.207,1.4,22.046,1.463,21.887Zm1.022-2.359.9.43-.093.2v0l0,.011,0,0,0,.009,0,.005,0,.008-.006.013,0,0,0,.009,0,0,0,.009v0l0,.01v0l0,.01h0l-.016.035h0l0,.009,0,0,0,.008,0,.006,0,.007,0,.009,0,0-.032.07-.909-.417C2.339,19.838,2.412,19.681,2.486,19.527Zm1.189-2.28.87.494c-.082.145-.164.291-.244.437L3.424,17.7C3.506,17.547,3.59,17.4,3.674,17.248Zm1.349-2.189.832.555-.069.1h0l-.008.011,0,0-.006.009,0,0-.006.009,0,0-.006.009,0,0-.008.012,0,0-.006.009,0,.005,0,.007,0,.006,0,.006,0,.006,0,.007,0,.006-.006.009,0,.006-.006.009,0,0-.005.008,0,0-.005.008,0,0-.006.01,0,0-.085.13-.84-.543C4.834,15.345,4.928,15.2,5.023,15.059Zm1.5-2.087.791.612q-.153.2-.3.4l-.8-.6C6.315,13.244,6.42,13.107,6.524,12.972ZM8.17,11l.745.667-.114.128,0,0-.007.008,0,0-.006.007,0,0-.006.006,0,0,0,0-.011.012,0,0-.006.007,0,0-.006.007,0,0-.007.008,0,0-.033.037v0l-.007.008,0,0-.007.008,0,0-.031.035,0,0-.006.007,0,0-.005.006,0,.005,0,.005-.008.01h0l-.01.012h0l-.01.011h0l-.754-.656C7.941,11.254,8.056,11.124,8.17,11ZM9.951,9.144l.7.718c-.119.116-.239.233-.357.35L9.584,9.5C9.705,9.384,9.828,9.262,9.951,9.144Zm1.908-1.722.643.766-.2.167,0,0-.007.006,0,0-.006.005-.006,0,0,0-.011.009h0l-.011.01h0l-.011.009h0l-.011.009h0l-.107.092-.654-.757C11.6,7.644,11.729,7.531,11.859,7.422Zm2.026-1.582.587.809L14.26,6.8h0l-.007,0-.006,0-.005,0-.008.006,0,0-.011.008h0l-.15.112-.6-.8C13.608,6.042,13.747,5.939,13.885,5.839Zm2.133-1.434.528.849-.185.116h0l-.013.008h0l-.013.008h0l-.01.006-.006,0-.006,0-.007,0,0,0-.008.005h0l-.131.084h0l-.01.006,0,0-.009.006-.008.005,0,0-.54-.842C15.727,4.588,15.874,4.5,16.019,4.405Zm2.231-1.279.466.885-.176.094h0l-.008,0,0,0-.007,0-.007,0-.005,0-.008,0,0,0-.026.014h0l-.012.007h0l-.011.006h0l-.012.006h0l-.04.022h0l-.011.006,0,0-.01.005,0,0-.009,0,0,0-.008,0-.008,0-.009,0-.009,0,0,0-.01.005h0l-.019.01L17.8,3.369C17.946,3.288,18.1,3.206,18.249,3.126Zm2.317-1.116.4.916-.064.028-.011.005-.013.006-.01,0h0l-.213.1h0l-.014.006h0l-.013.006h0l-.056.025h0l-.012.006h0l-.013.006h0l-.028.013-.414-.91C20.251,2.15,20.41,2.079,20.566,2.011Zm2.391-.947.334.942-.118.042h0l-.014,0h0l-.012,0h0l-.01,0-.013,0h0l-.01,0h0l-.01,0h0l-.011,0h0l-.011,0h0l-.049.018h0L23,2.11h0l-.01,0h0l-.009,0-.013,0-.013,0h0l-.013,0h0l-.012,0h0l-.1.038-.348-.937C22.633,1.18,22.8,1.121,22.957,1.064ZM25.409.292l.266.964-.188.053-.012,0-.013,0-.014,0-.012,0h0l-.24.069-.28-.96C25.078.384,25.245.337,25.409.292Zm2.5-.594.2.981L27.97.706l-.014,0-.014,0-.014,0-.013,0L27.9.72l-.021,0-.012,0-.014,0-.014,0-.014,0-.014,0h0l-.033.007-.013,0-.014,0-.014,0-.014,0-.014,0-.014,0-.018,0-.016,0-.015,0-.014,0-.013,0L27.407-.2C27.574-.234,27.744-.269,27.911-.3Zm2.538-.413.125.992-.393.052-.013,0-.014,0-.014,0-.061.009-.139-.99C30.108-.671,30.28-.694,30.449-.715Zm2.56-.231.054,1-.381.023h-.041l-.078.005-.069-1C32.666-.926,32.839-.937,33.009-.946Z"/></g></svg>