<svg xmlns="http://www.w3.org/2000/svg" width="16" height="16" viewBox="0 0 16 16"><defs><style>.a,.b{fill:#7c8196;}.a{opacity:0;}</style></defs><rect class="a" width="16" height="16"/><path class="b" d="M2.877,7.944a5.089,5.089,0,0,1,.854-2.833l.844.488a.376.376,0,0,0,.561-.371L4.809,2.522a.376.376,0,0,0-.521-.3L1.781,3.292a.375.375,0,0,0-.04.67l.946.546A6.33,6.33,0,0,0,8,14.267v-1.2A5.128,5.128,0,0,1,2.877,7.944Z"/><path class="b" d="M14.259,12.038l-.946-.546A6.33,6.33,0,0,0,8,1.733v1.2a5.123,5.123,0,0,1,4.269,7.955l-.844-.488a.376.376,0,0,0-.561.371l.327,2.706a.376.376,0,0,0,.521.3l2.507-1.071A.375.375,0,0,0,14.259,12.038Z"/></svg>