<svg xmlns="http://www.w3.org/2000/svg" xmlns:xlink="http://www.w3.org/1999/xlink" width="20" height="20" viewBox="0 0 20 20"><defs><style>.a{opacity:0;}.b{fill:url(#a);}.c{fill:#fcfcfc;}</style><linearGradient id="a" x1="0.5" x2="0.5" y2="1" gradientUnits="objectBoundingBox"><stop offset="0" stop-color="#11cf9c"/><stop offset="1" stop-color="#02cac8"/></linearGradient></defs><g transform="translate(-17 1.989)"><rect class="a" width="20" height="20" transform="translate(17 -1.989)"/><path class="b" d="M34.636,1.477a1.289,1.289,0,0,0-.841-.306h-.083c-.019,0-.215.014-.526.014a11.9,11.9,0,0,1-2.468-.25A10.483,10.483,0,0,1,27.662-.878a1.322,1.322,0,0,0-1.372,0A7.972,7.972,0,0,1,23.306.935a12.075,12.075,0,0,1-2.487.25c-.311,0-.508-.012-.527-.014h-.084a1.3,1.3,0,0,0-.845.306,1.1,1.1,0,0,0-.391.829V5.15c0,10.49,7.467,11.845,7.783,11.9a1.524,1.524,0,0,0,.437,0c.317-.055,7.836-1.406,7.836-11.9V2.3A1.091,1.091,0,0,0,34.636,1.477Z"/><g transform="translate(-7.025 -5.917)"><rect class="c" width="7.007" height="0.75" transform="translate(30.497 17.288)"/><path class="c" d="M36.788,14.276H35.206V13.6a.87.87,0,0,1,.255-.615l.109-.111a2.309,2.309,0,0,0-1.243-3.929A2.708,2.708,0,0,0,34,8.929h-.045a2.317,2.317,0,0,0-1.511,3.963l.1.1a.87.87,0,0,1,.255.615v.672H31.212a1.191,1.191,0,0,0-1.187,1.188v1h7.95v-1A1.191,1.191,0,0,0,36.788,14.276Z"/></g></g></svg>