<svg xmlns="http://www.w3.org/2000/svg" xmlns:xlink="http://www.w3.org/1999/xlink" width="20" height="20" viewBox="0 0 20 20"><defs><style>.a{opacity:0;}.b{fill:url(#a);}.c{fill:#fff;stroke:rgba(0,0,0,0);stroke-miterlimit:10;}</style><linearGradient id="a" x1="0.5" x2="0.5" y2="1" gradientUnits="objectBoundingBox"><stop offset="0" stop-color="#11cf9c"/><stop offset="1" stop-color="#02cac8"/></linearGradient></defs><g transform="translate(-17 1.989)"><rect class="a" width="20" height="20" transform="translate(17 -1.989)"/><path class="b" d="M34.636,1.477a1.289,1.289,0,0,0-.841-.306h-.083c-.019,0-.215.014-.526.014a11.9,11.9,0,0,1-2.468-.25A10.483,10.483,0,0,1,27.662-.878a1.322,1.322,0,0,0-1.372,0A7.972,7.972,0,0,1,23.306.935a12.075,12.075,0,0,1-2.487.25c-.311,0-.508-.012-.527-.014h-.084a1.3,1.3,0,0,0-.845.306,1.1,1.1,0,0,0-.391.829V5.15c0,10.49,7.467,11.845,7.783,11.9a1.524,1.524,0,0,0,.437,0c.317-.055,7.836-1.406,7.836-11.9V2.3A1.091,1.091,0,0,0,34.636,1.477Z"/><g transform="translate(-0.533 -0.52)"><path class="c" d="M6.342,7.436H1.272A.547.547,0,0,1,.727,6.89V3.76H.547A.533.533,0,0,1,.033,3.4a.533.533,0,0,1,.168-.6L3.461.124a.544.544,0,0,1,.692,0l3.26,2.669a.545.545,0,0,1-.345.967h-.18V6.89A.546.546,0,0,1,6.342,7.436ZM2.884,2.8a.32.32,0,0,0,0,.64H4.731a.32.32,0,0,0,0-.64Z" transform="translate(23.725 4.799)"/></g></g></svg>