<svg xmlns="http://www.w3.org/2000/svg" width="24" height="24" viewBox="0 0 24 24">
  <defs>
    <style>
      .cls-1 {
        fill: inherit;
        
      }
    </style>
  </defs>
  <path id="减去_5" data-name="减去 5" class="cls-1" d="M-1454,24a11.921,11.921,0,0,1-8.485-3.515A11.923,11.923,0,0,1-1466,12a11.921,11.921,0,0,1,3.515-8.485A11.922,11.922,0,0,1-1454,0a11.922,11.922,0,0,1,8.486,3.515A11.921,11.921,0,0,1-1442,12a11.922,11.922,0,0,1-3.515,8.486A11.922,11.922,0,0,1-1454,24Zm0-17.138a6.885,6.885,0,0,0-5.262,2.569A9.829,9.829,0,0,0-1460.85,12a9.742,9.742,0,0,0,1.588,2.569A6.884,6.884,0,0,0-1454,17.138a6.885,6.885,0,0,0,5.262-2.569A9.83,9.83,0,0,0-1447.15,12a9.754,9.754,0,0,0-1.592-2.569A6.888,6.888,0,0,0-1454,6.863Zm-.146,8.224a3.089,3.089,0,0,1-2.8-1.8,3.069,3.069,0,0,1,.572-3.407,3.1,3.1,0,0,1,2.233-.956,3.059,3.059,0,0,1,1.142.22A3.07,3.07,0,0,1-1451.063,12,3.019,3.019,0,0,1-1454,15.083C-1454.049,15.085-1454.1,15.087-1454.146,15.087Zm.141-4.628a1.477,1.477,0,0,0-1.469,1.444,1.477,1.477,0,0,0,1.421,1.5h.05a1.468,1.468,0,0,0,1.467-1.4A1.512,1.512,0,0,0-1454,10.459Z" transform="translate(1466)"/>
</svg>
