<svg xmlns="http://www.w3.org/2000/svg" xmlns:xlink="http://www.w3.org/1999/xlink" width="20" height="20" viewBox="0 0 20 20"><defs><style>.a{opacity:0;}.b{fill:url(#a);}.c{fill:#fff;}</style><linearGradient id="a" x1="0.5" x2="0.5" y2="1" gradientUnits="objectBoundingBox"><stop offset="0" stop-color="#11cf9c"/><stop offset="1" stop-color="#02cac8"/></linearGradient></defs><g transform="translate(-17 1.989)"><rect class="a" width="20" height="20" transform="translate(17 -1.989)"/><g transform="translate(-9.542 -14.652)"><path class="b" d="M37.559,29.68H29.4v1.5H39.672A4.565,4.565,0,0,1,37.559,29.68Z"/><path class="b" d="M36.522,26.755a4.645,4.645,0,0,1,1.7-3.6V22.83a1.575,1.575,0,0,1,.475-1.15l.2-.212c2.487-2.488,1.175-6.938-2.325-7.363a4.888,4.888,0,0,0-.613-.037h-.087c-3.75.062-5.475,4.775-2.825,7.425l.175.187a1.627,1.627,0,0,1,.475,1.15v1.263h-4a1.187,1.187,0,0,0-1.188,1.187v2.913h8.238A4.557,4.557,0,0,1,36.522,26.755Z"/><path class="c" d="M41.724,22.26A2.64,2.64,0,0,0,38.9,25.137l1.452-.027c0-1.5.765-1.636,1.5-1.636A1.173,1.173,0,0,1,43.1,24.741c0,.791-.159,1.029-.583,1.241a2.491,2.491,0,0,0-1.581,2.742h1.4c0-1.188.212-1.134,1.24-1.926a2.247,2.247,0,0,0,1-1.688A2.649,2.649,0,0,0,41.724,22.26Z"/><rect class="c" width="1.424" height="1.425" transform="translate(40.907 29.833)"/></g></g></svg>