<svg xmlns="http://www.w3.org/2000/svg" xmlns:xlink="http://www.w3.org/1999/xlink" width="20" height="20" viewBox="0 0 20 20"><defs><style>.a{opacity:0;}.b{fill:rgba(0,0,0,0);}.c{fill:url(#a);}.d{fill:#fff;}</style><linearGradient id="a" x1="0.5" x2="0.5" y2="1" gradientUnits="objectBoundingBox"><stop offset="0" stop-color="#11cf9c"/><stop offset="1" stop-color="#02cac8"/></linearGradient></defs><g transform="translate(-29.46 -3.557)"><rect class="a" width="20" height="20" transform="translate(29.46 3.557)"/><rect class="b" width="20" height="20" transform="translate(29.46 3.557)"/><path class="c" d="M47.58,21.244H41.5V12.652l6.08,3Z"/><path class="d" d="M44.519,5.869a3.02,3.02,0,1,0,3.02,3.02A3.02,3.02,0,0,0,44.519,5.869ZM46.1,9.813H44.22a.375.375,0,0,1-.375-.375V7.865a.375.375,0,0,1,.75,0v1.2H46.1a.375.375,0,0,1,0,.75Z"/><path class="c" d="M38.777,13.493l-2.366,4.454L34.04,16.753l-1.805,2.464v2.027h7.719v-8.2Z"/><path class="c" d="M33.579,14.842l2.2,1.106,1.943-3.659,2.235-.845V8.869l-7.719-3v10.81Zm.433-4.579a.625.625,0,0,1,.625-.625h.832a.625.625,0,0,1,.625.625V11.1a.625.625,0,0,1-.625.625h-.832a.625.625,0,0,1-.625-.625Z"/></g></svg>