<svg xmlns="http://www.w3.org/2000/svg" width="18" height="18" viewBox="0 0 18 18">
  <defs>
    <style>
      .cls-1 {
        fill: inherit;
        opacity: 0;
      }

      .cls-2 {
        fill: inherit;
      }
    </style>
  </defs>
  <g id="组_885" data-name="组 885" transform="translate(-1743 -465.964)">
    <rect id="矩形_1067" data-name="矩形 1067" class="cls-1" width="18" height="18" transform="translate(1743 465.964)"/>
    <path id="路径_3987" data-name="路径 3987" class="cls-2" d="M17.22,9.1a8.084,8.084,0,1,0-9.089,8.016,4.037,4.037,0,0,0,.825.075,2.6,2.6,0,0,0,.265-.014,8.08,8.08,0,0,0,8-8.077Zm-1.156.114a7.907,7.907,0,0,0-.158-1.181c.007-.137.009-.267.006-.387A6.946,6.946,0,0,1,16.065,9.1q0,.057,0,.114ZM2.208,9.1a6.947,6.947,0,0,1,.148-1.428.734.734,0,0,0,1.176-.166c.308.183.721.217.721.583,0,1.21.043,2.507,1.142,2.527a1.567,1.567,0,0,1,.89.939c.1.248.475,0,.89,0,.207,0,0,.349,0,1.105S8.8,14.573,8.8,14.573A8.713,8.713,0,0,0,8.853,15.8a2.717,2.717,0,0,0-.918.124A6.927,6.927,0,0,1,2.208,9.1Zm8.635,6.712c-.036-.176-.193-.272-.48-.2.229-.974.34-1.52.818-1.934a.645.645,0,0,0-.444-1.187c-.414.063-.153-.513-.522-.545s-.853-.767-1.385-1.02c-.282-.134-.56-.493-.995-.509-.386-.015-.95.326-.95.063a16.347,16.347,0,0,0-.1-1.693c-.014-.194-.127-.065.395-.053.284.008.145-.57.426-.593s.933.258,1.1.147,1.144,2.594,1.144.446c0-.255-.132-.7,0-.939a11.315,11.315,0,0,0,.967-1.845,1.433,1.433,0,0,0-.942.02c-.137.046.044.261-.154.307-.74.171-1.394-.2-1.165-.548s1.084-.156,1.158-.871c.043-.41.078-.885.1-1.238,1,.156.886-1.292-.594-1.447a6.931,6.931,0,0,1,6.465,4.654.282.282,0,0,0-.165-.075c-.448-1.118-1.534-.309-1.166.677-1.975,1.518-1.469,2.577-.821,3.183a5.875,5.875,0,0,1,.879,1.142c-.231.673.85.4,1.383-.738a6.939,6.939,0,0,1-4.953,4.791Z" transform="translate(1742.863 465.856)"/>
  </g>
</svg>
