<svg id="组_3008" data-name="组 3008" xmlns="http://www.w3.org/2000/svg" width="22" height="22" viewBox="0 0 22 22">
  <defs>
    <style>
      .cls-1, .cls-2 {
        fill: inherit;
      }

      .cls-1 {
        opacity: 0;
      }
    </style>
  </defs>
  <rect id="矩形_2824" data-name="矩形 2824" class="cls-1" width="22" height="22"/>
  <g id="组_3939" data-name="组 3939" transform="translate(-1.101 41.259)">
    <path id="路径_5384" data-name="路径 5384" class="cls-2" d="M16.259-36.644a5.042,5.042,0,0,0-3.9-3.395A5.016,5.016,0,0,0,6.489-35.1a4.966,4.966,0,0,0,.577,2.288l.164.3c.06.1.114.2.181.291l3.26,5.262a1.029,1.029,0,0,0,1.755-.01l3.2-5.292c.04-.058.072-.122.11-.182l.2-.372A4.835,4.835,0,0,0,16.259-36.644ZM11.5-32.81A2.287,2.287,0,0,1,9.215-35.1,2.287,2.287,0,0,1,11.5-37.385,2.287,2.287,0,0,1,13.789-35.1,2.287,2.287,0,0,1,11.5-32.81Z" transform="translate(0.599 0)"/>
    <g id="组_3938" data-name="组 3938" transform="translate(1.101 -28.373)">
      <path id="路径_5385" data-name="路径 5385" class="cls-2" d="M10.745-26.633a1.919,1.919,0,0,1-.532-.55l-1.27-2.049a.667.667,0,0,0-.567-.316H5.188a.668.668,0,0,0-.582.342l-.881,1.58a.667.667,0,0,0,.582.992Z" transform="translate(-0.819 29.548)"/>
      <path id="路径_5386" data-name="路径 5386" class="cls-2" d="M18.977-27.626l-.881-1.58a.668.668,0,0,0-.582-.342H14.389a.665.665,0,0,0-.57.322L12.594-27.2a1.936,1.936,0,0,1-.543.568H18.4A.667.667,0,0,0,18.977-27.626Z" transform="translate(0.117 29.548)"/>
      <path id="路径_5387" data-name="路径 5387" class="cls-2" d="M3.225-25.93h7.71a.667.667,0,0,1,.667.667v2.611a.667.667,0,0,1-.667.667H1.769a.667.667,0,0,1-.582-.991l1.456-2.611A.668.668,0,0,1,3.225-25.93Z" transform="translate(-1.101 29.95)"/>
      <path id="路径_5388" data-name="路径 5388" class="cls-2" d="M21.271-21.985H12.217a.667.667,0,0,1-.667-.667v-2.611a.667.667,0,0,1,.667-.667h7.6a.668.668,0,0,1,.582.342l1.456,2.611A.667.667,0,0,1,21.271-21.985Z" transform="translate(0.061 29.95)"/>
    </g>
  </g>
</svg>
