<svg xmlns="http://www.w3.org/2000/svg" xmlns:xlink="http://www.w3.org/1999/xlink" width="20" height="20" viewBox="0 0 20 20"><defs><style>.a{opacity:0;}.b{fill:url(#a);}.c{fill:#fff;}</style><linearGradient id="a" x1="0.5" x2="0.5" y2="1" gradientUnits="objectBoundingBox"><stop offset="0" stop-color="#11cf9c"/><stop offset="1" stop-color="#02cac8"/></linearGradient></defs><g transform="translate(0 0)"><rect class="a" width="20" height="20" transform="translate(0 0)"/><g transform="translate(2 2)"><path class="b" d="M38.523,12.939V6H32.836a1.25,1.25,0,0,0-1.25,1.25v5.688Z" transform="translate(-31.586 -6.001)"/><path class="b" d="M40.024,12.939h6.937V7.251A1.25,1.25,0,0,0,45.711,6H40.024Z" transform="translate(-31.586 -6.001)"/><path class="b" d="M38.523,14.438H31.586v5.688a1.25,1.25,0,0,0,1.25,1.25h5.687Z" transform="translate(-31.586 -6.001)"/><g transform="translate(8.686 8.718)"><rect class="c" width="3.284" height="2.143"/><rect class="c" width="3.284" height="2.143" transform="translate(0 4.343)"/><rect class="c" width="3.284" height="2.143" transform="translate(3.284 2.172)"/></g></g></g></svg>