<svg xmlns="http://www.w3.org/2000/svg" xmlns:xlink="http://www.w3.org/1999/xlink" width="20" height="20" viewBox="0 0 20 20"><defs><style>.a{opacity:0;}.b{fill:url(#a);}.c{fill:#fff;}</style><linearGradient id="a" x1="0.5" x2="0.5" y2="1" gradientUnits="objectBoundingBox"><stop offset="0" stop-color="#11cf9c"/><stop offset="1" stop-color="#02cac8"/></linearGradient></defs><g transform="translate(0 0)"><rect class="a" width="20" height="20" transform="translate(0 0)"/><g transform="translate(1.734 1.927)"><path class="b" d="M36.4,11.242l-7.079-5.8a1.186,1.186,0,0,0-1.5,0l-7.079,5.8a1.184,1.184,0,0,0,.75,2.1h.39v6.8a1.184,1.184,0,0,0,1.184,1.184h11.01a1.184,1.184,0,0,0,1.184-1.184v-6.8h.391A1.184,1.184,0,0,0,36.4,11.242Z" transform="translate(-20.305 -5.177)"/><path class="c" d="M30.2,12.695H26.572a.63.63,0,1,1,0-1.26H30.2a.63.63,0,1,1,0,1.26Z" transform="translate(-20.305 -5.177)"/></g></g></svg>