<svg xmlns="http://www.w3.org/2000/svg" width="36" height="36" viewBox="0 0 36 36"><defs><style>.a,.c{fill:#12c49b;}.a{stroke:#707070;opacity:0;}.b{isolation:isolate;}.d{stroke:none;}.e{fill:none;}</style></defs><g transform="translate(-24.167 -17.167)"><g class="a" transform="translate(24.167 17.167)"><rect class="d" width="36" height="36"/><rect class="e" x="0.5" y="0.5" width="35" height="35"/></g><g class="b" transform="translate(26.309 19.271)"><path class="c" d="M225.91-7.775v0a14.186,14.186,0,0,1-1.226,3.9c-.654-.1-1.506-.213-2.466-.335A17.557,17.557,0,0,0,219.3,2.1a14.131,14.131,0,0,1-2.66,1.286,30.871,30.871,0,0,1,4.789-7.7c-.97-.115-2.018-.232-3.06-.326l0,0s-5.708,1.429-9.247,8.61a14.076,14.076,0,0,1-2.334-.651c1.779-2.1,5.327-5.83,9.063-7.264.845-.326,1.492-.567,1.98-.742-.44-.037-.876-.069-1.3-.1v-.082h6.654V-14l-3.758-2.868-2.9,2.21v-3.427l-5.672-4.329V-4.782h0V-22.416l-5.672,4.329v4.592l-2.866-2.188-3.759,2.868v8.136a14.233,14.233,0,0,1-1.056-5.385,14.3,14.3,0,0,1,14.3-14.3,14.3,14.3,0,0,1,14.22,12.834A15.889,15.889,0,0,0,210.2-25.96a15.9,15.9,0,0,0-15.9,15.9A15.821,15.821,0,0,0,196.742-1.6c.086.134.172.268.263.4a.307.307,0,0,0,.031.045c.034.05.069.1.105.153.077.115.158.227.239.338.019.029.041.055.06.081.1.132.2.263.3.393.259.326.532.642.814.946.122.132.249.261.376.39.019.019.036.038.055.055.134.134.271.266.412.4s.292.266.443.4c.127.11.259.218.39.323.036.031.072.06.108.089.124.1.254.2.383.292a.4.4,0,0,0,.034.026c.254.187.517.369.783.544.117.074.235.148.352.22.1.062.2.125.3.182s.223.129.335.192c.438.242.886.462,1.348.661a15.024,15.024,0,0,0,1.832.663l2.591.532a15.933,15.933,0,0,0,1.894.113h.01c.127,0,.254,0,.381,0,.369-.01.735-.031,1.1-.065.115-.012.23-.022.345-.036.074-.007.151-.017.227-.029.113-.014.223-.029.33-.045.383-.057.764-.129,1.137-.213.117-.026.235-.055.352-.084.146-.038.292-.077.438-.117.1-.026.189-.055.283-.084q.65-.194,1.279-.445h0c.191-.077.378-.156.565-.239q.19-.086.374-.172c.024-.01.046-.022.065-.031.129-.062.256-.127.383-.192s.259-.134.386-.206c.067-.036.136-.074.2-.113q.226-.129.445-.266a1.853,1.853,0,0,0,.163-.1c.139-.086.275-.177.412-.268,0,0,.007,0,.007,0,.278-.187.551-.383.814-.591.072-.053.144-.108.216-.168s.163-.129.242-.2c.055-.041.108-.089.163-.136.081-.067.163-.139.242-.213.05-.038.1-.081.144-.125.132-.12.259-.242.385-.364s.271-.268.4-.407q.176-.183.345-.374c.041-.045.084-.091.122-.139.069-.077.137-.156.2-.237q.075-.086.144-.172c.1-.125.2-.251.3-.378s.213-.283.316-.426.2-.285.3-.433c.069-.1.139-.208.2-.314.029-.043.057-.086.084-.132.062-.1.124-.2.184-.3.022-.036.043-.074.065-.113.062-.105.122-.213.182-.323s.136-.249.2-.374c.089-.17.172-.345.256-.517s.158-.352.235-.529a15.7,15.7,0,0,0,1.1-3.934c.007-.06.017-.12.024-.18.029-.211.053-.424.072-.637-.021.215-.048.429-.079.642C225.929-7.9,225.92-7.837,225.91-7.775Zm-5.264-3.953h.718v3.669h-.718Zm-4.119-2.028,2.178-1.662v9.845h-2.178Zm-3.643-.9h.718v5.537h-.718ZM205.9-12.947v-4.784l4.236-3.232V-5H205.9Zm-2.362,2.405h.718v3.669h-.718ZM201.6-4.387h-2.323v-8.074l2.323-1.772ZM203.54,1.6a13.7,13.7,0,0,1-1.9-1.611,31.992,31.992,0,0,1,8.331-4.274h.885v-.242h0v.243h1.181A17.752,17.752,0,0,0,203.54,1.6Z" transform="translate(-194.3 25.96)"/><rect class="c" width="0.883" height="6.807" transform="translate(13.289 10.759)"/><rect class="c" width="0.883" height="4.51" transform="translate(5.746 14.957)"/><rect class="c" width="0.883" height="4.51" transform="translate(22.763 13.806)"/><path class="c" d="M318.034,50.736V47.868a.883.883,0,1,0-.589,0v2.868Z" transform="translate(-288.057 -29.414)"/></g></g></svg>