<svg xmlns="http://www.w3.org/2000/svg" width="20" height="20" viewBox="0 0 20 20"><defs><style>.a{opacity:0.8;}.b{fill:inherit;}.c{opacity:0;}</style></defs><g class="a" transform="translate(-25.532 -6.558)"><path class="b" d="M27.883,15.761"/><g class="c"><rect class="b" width="20" height="20" transform="translate(25.532 6.558)"/></g><path class="b" d="M33.962,14.336q0-1.312-.838-1.313-.914,0-.913,1.313.038,1.278.876,1.35Q33.963,15.686,33.962,14.336Z"/><path class="b" d="M38.411,17.255q-.875,0-.875,1.348,0,1.242.875,1.278.876-.037.875-1.278Q39.25,17.291,38.411,17.255Z"/><path class="b" d="M35.532,7.808a8.75,8.75,0,1,0,8.75,8.75A8.76,8.76,0,0,0,35.532,7.808Zm-4.268,6.565q.035-2.078,1.86-2.116,1.749.073,1.823,2.116-.037,2.007-1.86,2.079Q31.336,16.38,31.264,14.373Zm2.844,6.309H32.977l4.414-8.425H38.52Zm4.267-.073q-1.752-.073-1.824-1.969.073-2.042,1.86-2.116,1.787.037,1.824,2.116Q40.2,20.572,38.375,20.609Z"/></g></svg>