<svg xmlns="http://www.w3.org/2000/svg" width="36" height="48.195" viewBox="0 0 36 48.195"><defs><style>.a{opacity:0.74;}.b,.c,.d{fill:#12c49b;}.c{opacity:0.5;}.d{opacity:0.3;}.e{opacity:0;}.f{fill:rgba(0,0,0,0);}.g{fill:#fff;}</style></defs><g transform="translate(0)"><g class="a"><path class="b" d="M-3053.7,374.953V354.725l-17.2-10.115-17.2,10.115v20.228l17.2,10.115Z" transform="translate(3088.9 -340.742)"/><g transform="translate(0 2.945)"><path class="c" d="M-3070.9,384.934l17.1-10.048V354.792l-17.1-10.048-17.1,10.048v20.095l17.1,10.048m0,1.058-18-10.577V354.263l18-10.576,18,10.576v21.152Z" transform="translate(3088.896 -343.687)"/></g><path class="d" d="M-3079.692,346.052l6.8-3.92,6.8,3.92v-1.386l-6.2-3.578-.6-.346-.6.346-6.2,3.578Z" transform="translate(3090.897 -340.742)"/><path class="d" d="M-3066.1,378.272l-6.8,3.92-6.8-3.92v1.386l6.2,3.578.6.346.6-.346,6.2-3.578Z" transform="translate(3090.895 -335.387)"/></g><g transform="translate(3.652 -9.851)"><rect class="e" width="24" height="24" transform="translate(2.613 21.949)"/><rect class="f" width="24" height="24" transform="translate(2.613 21.949)"/><rect class="f" width="23.995" height="23.995" transform="translate(2.615 21.951)"/><rect class="e" width="24" height="24" transform="translate(2.613 21.949)"/><rect class="e" width="24" height="24" transform="translate(2.613 21.949)"/><g transform="translate(143.099 17.985)"><path class="g" d="M-119.261,14.839v-1.8h-2.034v-.257a7.212,7.212,0,0,0-7.191-7.191,7.212,7.212,0,0,0-7.191,7.191v.257h-2.034v1.8h2.034v9.7h-2.034v1.8h18.45v-1.8h-2.034v-9.7Zm-14.616,0h4.491v9.7h-4.491Zm10.782,9.7h-4.491v-9.7h4.491Z"/><rect class="g" width="1.8" height="3.545" transform="translate(-132.531 17.592)"/><rect class="g" width="1.8" height="3.545" transform="translate(-126.241 17.592)"/></g></g></g></svg>