<svg xmlns="http://www.w3.org/2000/svg" width="16" height="16" viewBox="0 0 16 16">
  <defs>
    <style>
      .cls-1, .cls-4 {
        fill: #fff;
      }

      .cls-1 {
        opacity: 0;
      }

      .cls-2 {
        fill: #ff5562;
      }

      .cls-3 {
        fill: #ffbbc0;
      }
    </style>
  </defs>
  <g id="组_1317" data-name="组 1317" transform="translate(-16 -10)">
    <rect id="矩形_1076" data-name="矩形 1076" class="cls-1" width="16" height="16" transform="translate(16 10)"/>
    <g id="组_1319" data-name="组 1319" transform="translate(-69.696 10)">
      <path id="路径_4202" data-name="路径 4202" class="cls-2" d="M87.838,0a.762.762,0,0,0-.559.24A.847.847,0,0,0,87.04.8V15.2a.765.765,0,0,0,.24.559.784.784,0,0,0,.559.24H99.554a.764.764,0,0,0,.559-.24.791.791,0,0,0,.24-.559V4.532L95.826,0Z" transform="translate(0 0)"/>
      <path id="路径_4203" data-name="路径 4203" class="cls-3" d="M651.255,4.532h-3.727a.82.82,0,0,1-.8-.8V0l4.527,4.532Z" transform="translate(-550.903 0)"/>
      <path id="路径_4204" data-name="路径 4204" class="cls-4" d="M255.366,366.292l-1.668-2.586a.26.26,0,0,0-.226-.12.3.3,0,0,0-.226.12l-.892,1.386-2-3.236a.259.259,0,0,0-.226-.12.3.3,0,0,0-.226.12l-2.742,4.439a.242.242,0,0,0,0,.266.246.246,0,0,0,.226.134h7.747a.3.3,0,0,0,.24-.134.266.266,0,0,0-.012-.266l0,0Zm-2.264-4.9a.666.666,0,1,0,.666-.666.667.667,0,0,0-.666.666Z" transform="translate(-157.569 -355.067)"/>
    </g>
  </g>
</svg>
