<svg xmlns="http://www.w3.org/2000/svg" xmlns:xlink="http://www.w3.org/1999/xlink" width="140.144" height="34" viewBox="0 0 140.144 34"><defs><style>.a{fill:rgba(18,196,155,0.3);}.b{fill:#fff;}.c{fill:none;}.d,.e{stroke:none;}.e{fill:#12c49b;}.f{filter:url(#a);}</style><filter id="a"><feOffset input="SourceAlpha"/><feGaussianBlur stdDeviation="3" result="b"/><feFlood flood-color="#12c49b" flood-opacity="0.302" result="c"/><feComposite operator="out" in="SourceGraphic" in2="b"/><feComposite operator="in" in="c"/><feComposite operator="in" in2="SourceGraphic"/></filter></defs><g data-type="innerShadowGroup"><g class="a" transform="translate(-80.141 -1243.735)"><path class="d" d="M 183.6784362792969 1276.984985351562 L 84.14055633544922 1276.984985351562 C 82.34850311279297 1276.984985351562 80.89055633544922 1275.527099609375 80.89055633544922 1273.734985351562 L 80.89055633544922 1247.734985351562 C 80.89055633544922 1245.94287109375 82.34850311279297 1244.484985351562 84.14055633544922 1244.484985351562 L 216.2764129638672 1244.484985351562 C 217.5713806152344 1244.484985351562 218.7067108154297 1245.218139648438 219.2393341064453 1246.3984375 C 219.7719268798828 1247.57861328125 219.5706329345703 1248.914916992188 218.7140197753906 1249.8857421875 L 202.1620635986328 1268.643798828125 C 197.4847717285156 1273.944702148438 190.7477569580078 1276.984985351562 183.6784362792969 1276.984985351562 Z"/><path class="d" d="M 84.14053344726562 1245.234985351562 C 82.76203918457031 1245.234985351562 81.64053344726562 1246.3564453125 81.64053344726562 1247.734985351562 L 81.64053344726562 1273.734985351562 C 81.64053344726562 1275.113525390625 82.76203918457031 1276.234985351562 84.14053344726562 1276.234985351562 L 183.6784362792969 1276.234985351562 C 190.5326843261719 1276.234985351562 197.0647277832031 1273.287231445312 201.5996704101562 1268.147583007812 L 218.151611328125 1249.389526367188 C 218.820556640625 1248.63134765625 218.9716186523438 1247.628540039062 218.5557250976562 1246.706909179688 C 218.1397705078125 1245.785278320312 217.2876892089844 1245.234985351562 216.2764129638672 1245.234985351562 L 84.14053344726562 1245.234985351562 M 84.14053344726562 1243.734985351562 L 216.2764129638672 1243.734985351562 C 219.7214050292969 1243.734985351562 221.5553894042969 1247.798950195312 219.2763977050781 1250.381958007812 L 202.7244262695312 1269.140014648438 C 197.9024353027344 1274.60498046875 190.9664306640625 1277.734985351562 183.6784362792969 1277.734985351562 L 84.14053344726562 1277.734985351562 C 81.93153381347656 1277.734985351562 80.14053344726562 1275.944946289062 80.14053344726562 1273.734985351562 L 80.14053344726562 1247.734985351562 C 80.14053344726562 1245.526000976562 81.93153381347656 1243.734985351562 84.14053344726562 1243.734985351562 Z"/></g><g class="f" transform="matrix(1, 0, 0, 1, 0, 0)"><g class="b" transform="translate(-80.14 -1243.73)"><path class="d" d="M 183.6784362792969 1276.984985351562 L 84.14055633544922 1276.984985351562 C 82.34850311279297 1276.984985351562 80.89055633544922 1275.527099609375 80.89055633544922 1273.734985351562 L 80.89055633544922 1247.734985351562 C 80.89055633544922 1245.94287109375 82.34850311279297 1244.484985351562 84.14055633544922 1244.484985351562 L 216.2764129638672 1244.484985351562 C 217.5713806152344 1244.484985351562 218.7067108154297 1245.218139648438 219.2393341064453 1246.3984375 C 219.7719268798828 1247.57861328125 219.5706329345703 1248.914916992188 218.7140197753906 1249.8857421875 L 202.1620635986328 1268.643798828125 C 197.4847717285156 1273.944702148438 190.7477569580078 1276.984985351562 183.6784362792969 1276.984985351562 Z"/><path class="d" d="M 84.14053344726562 1245.234985351562 C 82.76203918457031 1245.234985351562 81.64053344726562 1246.3564453125 81.64053344726562 1247.734985351562 L 81.64053344726562 1273.734985351562 C 81.64053344726562 1275.113525390625 82.76203918457031 1276.234985351562 84.14053344726562 1276.234985351562 L 183.6784362792969 1276.234985351562 C 190.5326843261719 1276.234985351562 197.0647277832031 1273.287231445312 201.5996704101562 1268.147583007812 L 218.151611328125 1249.389526367188 C 218.820556640625 1248.63134765625 218.9716186523438 1247.628540039062 218.5557250976562 1246.706909179688 C 218.1397705078125 1245.785278320312 217.2876892089844 1245.234985351562 216.2764129638672 1245.234985351562 L 84.14053344726562 1245.234985351562 M 84.14053344726562 1243.734985351562 L 216.2764129638672 1243.734985351562 C 219.7214050292969 1243.734985351562 221.5553894042969 1247.798950195312 219.2763977050781 1250.381958007812 L 202.7244262695312 1269.140014648438 C 197.9024353027344 1274.60498046875 190.9664306640625 1277.734985351562 183.6784362792969 1277.734985351562 L 84.14053344726562 1277.734985351562 C 81.93153381347656 1277.734985351562 80.14053344726562 1275.944946289062 80.14053344726562 1273.734985351562 L 80.14053344726562 1247.734985351562 C 80.14053344726562 1245.526000976562 81.93153381347656 1243.734985351562 84.14053344726562 1243.734985351562 Z"/></g></g><g class="c" transform="translate(-80.141 -1243.735)"><path class="d" d="M 183.6784362792969 1276.984985351562 L 84.14055633544922 1276.984985351562 C 82.34850311279297 1276.984985351562 80.89055633544922 1275.527099609375 80.89055633544922 1273.734985351562 L 80.89055633544922 1247.734985351562 C 80.89055633544922 1245.94287109375 82.34850311279297 1244.484985351562 84.14055633544922 1244.484985351562 L 216.2764129638672 1244.484985351562 C 217.5713806152344 1244.484985351562 218.7067108154297 1245.218139648438 219.2393341064453 1246.3984375 C 219.7719268798828 1247.57861328125 219.5706329345703 1248.914916992188 218.7140197753906 1249.8857421875 L 202.1620635986328 1268.643798828125 C 197.4847717285156 1273.944702148438 190.7477569580078 1276.984985351562 183.6784362792969 1276.984985351562 Z"/><path class="e" d="M 84.14053344726562 1245.234985351562 C 82.76203918457031 1245.234985351562 81.64053344726562 1246.3564453125 81.64053344726562 1247.734985351562 L 81.64053344726562 1273.734985351562 C 81.64053344726562 1275.113525390625 82.76203918457031 1276.234985351562 84.14053344726562 1276.234985351562 L 183.6784362792969 1276.234985351562 C 190.5326843261719 1276.234985351562 197.0647277832031 1273.287231445312 201.5996704101562 1268.147583007812 L 218.151611328125 1249.389526367188 C 218.820556640625 1248.63134765625 218.9716186523438 1247.628540039062 218.5557250976562 1246.706909179688 C 218.1397705078125 1245.785278320312 217.2876892089844 1245.234985351562 216.2764129638672 1245.234985351562 L 84.14053344726562 1245.234985351562 M 84.14053344726562 1243.734985351562 L 216.2764129638672 1243.734985351562 C 219.7214050292969 1243.734985351562 221.5553894042969 1247.798950195312 219.2763977050781 1250.381958007812 L 202.7244262695312 1269.140014648438 C 197.9024353027344 1274.60498046875 190.9664306640625 1277.734985351562 183.6784362792969 1277.734985351562 L 84.14053344726562 1277.734985351562 C 81.93153381347656 1277.734985351562 80.14053344726562 1275.944946289062 80.14053344726562 1273.734985351562 L 80.14053344726562 1247.734985351562 C 80.14053344726562 1245.526000976562 81.93153381347656 1243.734985351562 84.14053344726562 1243.734985351562 Z"/></g></g></svg>