<svg xmlns="http://www.w3.org/2000/svg" width="18" height="18" viewBox="0 0 18 18"><defs><style>.a{opacity:0;}.b{fill:#12c49b;}.c{fill:#353342;}</style></defs><g transform="translate(-48.364 1.917)"><g class="a"><rect width="18" height="18" transform="translate(48.364 -1.917)"/></g><path class="b" d="M62.819.315H61V1.482a.9.9,0,0,1-.9.9H54.626a.9.9,0,0,1-.9-.9V.315H51.908A1.125,1.125,0,0,0,50.783,1.44V14.367a1.125,1.125,0,0,0,1.125,1.125H62.819a1.125,1.125,0,0,0,1.125-1.125V1.44A1.125,1.125,0,0,0,62.819.315Z"/><rect class="c" width="5.026" height="2.291" rx="0.6" transform="translate(54.851 -1.034)"/><rect class="c" width="7.331" height="1.35" transform="translate(53.698 4.165)"/><rect class="c" width="5.104" height="1.35" transform="translate(53.698 7.346)"/><rect class="c" width="3.954" height="1.349" transform="translate(53.698 10.527)"/></g></svg>