<svg xmlns="http://www.w3.org/2000/svg" width="36" height="48.195" viewBox="0 0 36 48.195"><defs><style>.a{opacity:0.74;}.b,.c,.d{fill:#12c49b;}.c{opacity:0.5;}.d{opacity:0.3;}.e{opacity:0;}.f{fill:rgba(0,0,0,0);}.g{fill:#fff;}</style></defs><g transform="translate(0)"><g class="a"><path class="b" d="M-3053.7,374.953V354.725l-17.2-10.115-17.2,10.115v20.228l17.2,10.115Z" transform="translate(3088.9 -340.742)"/><g transform="translate(0 2.945)"><path class="c" d="M-3070.9,384.934l17.1-10.048V354.792l-17.1-10.048-17.1,10.048v20.095l17.1,10.048m0,1.058-18-10.577V354.263l18-10.576,18,10.576v21.152Z" transform="translate(3088.896 -343.687)"/></g><path class="d" d="M-3079.692,346.052l6.8-3.92,6.8,3.92v-1.386l-6.2-3.578-.6-.346-.6.346-6.2,3.578Z" transform="translate(3090.897 -340.742)"/><path class="d" d="M-3066.1,378.272l-6.8,3.92-6.8-3.92v1.386l6.2,3.578.6.346.6-.346,6.2-3.578Z" transform="translate(3090.895 -335.387)"/></g><g transform="translate(3.652 -9.851)"><rect class="e" width="24" height="24" transform="translate(2.613 21.949)"/><rect class="f" width="24" height="24" transform="translate(2.613 21.949)"/><rect class="f" width="23.995" height="23.995" transform="translate(2.615 21.951)"/><rect class="e" width="24" height="24" transform="translate(2.613 21.949)"/><rect class="e" width="24" height="24" transform="translate(2.613 21.949)"/><g transform="translate(185.444 8.936)"><path class="g" d="M-171.914,35.24"/><path class="g" d="M-160.912,22.469l-8.969-7.344a1.5,1.5,0,0,0-1.9,0l-8.969,7.344a1.5,1.5,0,0,0,.951,2.661h.5v8.61a1.5,1.5,0,0,0,1.5,1.5h13.948a1.462,1.462,0,0,0,.363-.073l-3.8-3.8a5.744,5.744,0,0,1-3.536,1.243,5.753,5.753,0,0,1-4.08-1.688,5.777,5.777,0,0,1,0-8.162,5.776,5.776,0,0,1,8.162,0,5.775,5.775,0,0,1,.7,7.306l3.691,3.691,0-.014V25.13h.495A1.5,1.5,0,0,0-160.912,22.469Z"/><path class="g" d="M-170.856,24.107a4.307,4.307,0,0,1-1.431.3,7.593,7.593,0,0,1-1.579-.222,4.9,4.9,0,0,0-.148,1.283,4.9,4.9,0,0,0,1.6,3.948,16.729,16.729,0,0,0,1.554,1.11s1.184-.715,1.7-1.135a4.838,4.838,0,0,0,1.505-3.947,5.755,5.755,0,0,0-.173-1.259,7.919,7.919,0,0,1-1.579.222A4.546,4.546,0,0,1-170.856,24.107Zm2.714,1.357a6.535,6.535,0,0,1-.247,1.851h-2.467v2.664a14.34,14.34,0,0,1-1.307-.937,3.782,3.782,0,0,1-1.133-1.727h2.44v-2.69a4.734,4.734,0,0,0,1.431.272,6.264,6.264,0,0,0,1.234-.148A5.187,5.187,0,0,1-168.142,25.464Z"/></g></g></g></svg>