<svg xmlns="http://www.w3.org/2000/svg" xmlns:xlink="http://www.w3.org/1999/xlink" width="20" height="20" viewBox="0 0 20 20"><defs><style>.a{fill:url(#a);}.b{fill:url(#b);}.c{fill:rgba(76,204,255,0);}.d{fill:url(#c);}</style><linearGradient id="a" x1="0.457" y1="0.729" x2="0.48" gradientUnits="objectBoundingBox"><stop offset="0" stop-color="#41f8e6" stop-opacity="0"/><stop offset="1" stop-color="#41f8e6" stop-opacity="0.302"/></linearGradient><linearGradient id="b" x1="0.5" x2="0.5" y2="0.927" gradientUnits="objectBoundingBox"><stop offset="0" stop-color="#41f8e6" stop-opacity="0.6"/><stop offset="1" stop-color="#41f8e6" stop-opacity="0"/></linearGradient><linearGradient id="c" x1="0.5" x2="0.5" y2="1" gradientUnits="objectBoundingBox"><stop offset="0" stop-color="#11cf9c"/><stop offset="1" stop-color="#02cac8"/></linearGradient></defs><g transform="translate(-5.5 -2)"><rect class="a" width="20" height="20" rx="10" transform="translate(5.5 2)"/><path class="b" d="M10,1a9,9,0,1,0,9,9,9.01,9.01,0,0,0-9-9m0-1A10,10,0,1,1,0,10,10,10,0,0,1,10,0Z" transform="translate(5.5 2)"/><g transform="translate(-198.149 -25.052)"><rect class="c" width="14" height="14" transform="translate(206.649 30.051)"/><path class="d" d="M214.208,36.493h4.872a5.444,5.444,0,0,0-4.872-4.872Z"/><path class="d" d="M213.663,37.583a.545.545,0,0,1-.545-.545V31.621a5.444,5.444,0,1,0,5.962,5.962Z"/></g></g></svg>