<svg xmlns="http://www.w3.org/2000/svg" width="16" height="16" viewBox="0 0 16 16">
  <defs>
    <style>
      .cls-1 {
        fill: #e5e5e5;
        opacity: 0;
      }

      .cls-2 {
        fill: inherit;
      }
    </style>
  </defs>
  <g id="组_950" data-name="组 950" transform="translate(-1742.533 -465.497)">
    <rect id="矩形_1067" data-name="矩形 1067" class="cls-1" width="16" height="16" transform="translate(1742.533 465.497)"/>
    <path id="路径_4047" data-name="路径 4047" class="cls-2" d="M38.358,33.218a1.308,1.308,0,0,1,2.612.022l0,.806a1.329,1.329,0,0,1,1.45-.811,1.268,1.268,0,0,1,1.056,1.47l-.213,1.428a1.351,1.351,0,0,1,1.4-.369,1.251,1.251,0,0,1,.8,1.622L43.706,42.7l-.03.089-.008.021.011-.032a4.207,4.207,0,0,1-4.016,2.732,5.836,5.836,0,0,1-3.288-1.029,13.131,13.131,0,0,1-1.833-1.495q-1.054-.965-2.071-1.97a1.4,1.4,0,0,1,.079-2.1l.305.331-.305-.332a1.575,1.575,0,0,1,2.155-.038l1.271,1.175c.15.138.266.142.324.079-.014.014-.015-.29-.064-.652L35.6,34.643a1.274,1.274,0,0,1,1.14-1.408,1.31,1.31,0,0,1,1.449,1.1l.093.5.078-1.622ZM33.093,40.37c.12.117.313.307.565.551q.735.712,1.489,1.4a13.033,13.033,0,0,0,1.7,1.4,4.988,4.988,0,0,0,2.816.892,3.3,3.3,0,0,0,3.153-2.1l-.009.028.016-.047.025-.077,1.769-5.336a.354.354,0,0,0-.232-.462.436.436,0,0,0-.53.238l-1.012,2.5a.58.58,0,0,1-.124.2.458.458,0,0,1-.611.054.479.479,0,0,1-.2-.445l.682-4.611a.373.373,0,0,0-.317-.429.418.418,0,0,0-.477.3l-.76,3.884a.463.463,0,0,1-.572.4.484.484,0,0,1-.378-.522l-.018-4.943a.41.41,0,0,0-.808,0l-.24,4.96a.5.5,0,0,1-.5.521.521.521,0,0,1-.494-.366L37.3,34.478a.414.414,0,0,0-.458-.347.377.377,0,0,0-.348.395l.637,4.838c.1.746.1,1.09-.165,1.38a1.1,1.1,0,0,1-1.6-.025l-1.273-1.177a.675.675,0,0,0-.933.039.512.512,0,0,0-.067.79Z" transform="translate(1711.741 434.74)"/>
  </g>
</svg>
