<svg xmlns="http://www.w3.org/2000/svg" width="36" height="48.195" viewBox="0 0 36 48.195"><defs><style>.a{opacity:0.74;}.b,.c,.d{fill:#12c49b;}.c{opacity:0.5;}.d{opacity:0.3;}.e,.f{fill:#fff;}.e{opacity:0;}.f{stroke:rgba(0,0,0,0);stroke-miterlimit:10;}</style></defs><g transform="translate(-115 -26.902)"><g class="a" transform="translate(115 26.902)"><path class="b" d="M-3053.7,374.953V354.725l-17.2-10.115-17.2,10.115v20.228l17.2,10.115Z" transform="translate(3088.9 -340.742)"/><g transform="translate(0 2.945)"><path class="c" d="M-3070.9,384.934l17.1-10.048V354.792l-17.1-10.048-17.1,10.048v20.095l17.1,10.048m0,1.058-18-10.577V354.263l18-10.576,18,10.576v21.152Z" transform="translate(3088.896 -343.687)"/></g><path class="d" d="M-3079.692,346.052l6.8-3.92,6.8,3.92v-1.386l-6.2-3.578-.6-.346-.6.346-6.2,3.578Z" transform="translate(3090.897 -340.742)"/><path class="d" d="M-3066.1,378.272l-6.8,3.92-6.8-3.92v1.386l6.2,3.578.6.346.6-.346,6.2-3.578Z" transform="translate(3090.895 -335.387)"/></g><g transform="translate(121.665 39.665)"><rect class="e" width="22" height="22" transform="translate(0.335 0.335)"/><path class="f" d="M16234.117-14761.61h-14.387a1.4,1.4,0,0,1-1.394-1.4v-10.374a1.394,1.394,0,0,1,.611-1.152l7.191-4.89a1.384,1.384,0,0,1,.784-.241,1.384,1.384,0,0,1,.784.241l7.2,4.89a1.4,1.4,0,0,1,.611,1.152v10.374A1.4,1.4,0,0,1,16234.117-14761.61Zm-2.986-9.029a1.289,1.289,0,0,0-1.287,1.288,1.291,1.291,0,0,0,1.287,1.292,1.292,1.292,0,0,0,1.288-1.292A1.29,1.29,0,0,0,16231.131-14770.64Zm-4.209,0a1.289,1.289,0,0,0-1.287,1.288,1.291,1.291,0,0,0,1.287,1.292,1.294,1.294,0,0,0,1.292-1.292A1.292,1.292,0,0,0,16226.922-14770.64Zm-4.205,0a1.289,1.289,0,0,0-1.287,1.288,1.291,1.291,0,0,0,1.287,1.292,1.292,1.292,0,0,0,1.288-1.292A1.29,1.29,0,0,0,16222.717-14770.64Z" transform="translate(-16215.757 14781.805)"/></g></g></svg>