<svg xmlns="http://www.w3.org/2000/svg" xmlns:xlink="http://www.w3.org/1999/xlink" width="140.144" height="34" viewBox="0 0 140.144 34"><defs><style>.a{fill:rgba(18,196,155,0.3);}.b{fill:#fff;}.c{fill:none;}.d,.e{stroke:none;}.e{fill:#12c49b;}.f{filter:url(#a);}</style><filter id="a"><feOffset input="SourceAlpha"/><feGaussianBlur stdDeviation="3" result="b"/><feFlood flood-color="#12c49b" flood-opacity="0.302" result="c"/><feComposite operator="out" in="SourceGraphic" in2="b"/><feComposite operator="in" in="c"/><feComposite operator="in" in2="SourceGraphic"/></filter></defs><g data-type="innerShadowGroup"><g class="a" transform="translate(-80.141 -1243.735)"><path class="d" d="M 216.2850036621094 1276.984985351562 L 116.7470092773438 1276.984985351562 C 109.6776809692383 1276.984985351562 102.9406661987305 1273.944702148438 98.26337432861328 1268.643798828125 L 81.71137237548828 1249.8857421875 C 80.85477447509766 1248.914916992188 80.65348052978516 1247.57861328125 81.18608093261719 1246.3984375 C 81.71871948242188 1245.218139648438 82.85404205322266 1244.484985351562 84.14900970458984 1244.484985351562 L 216.2850036621094 1244.484985351562 C 218.0770568847656 1244.484985351562 219.5350036621094 1245.94287109375 219.5350036621094 1247.734985351562 L 219.5350036621094 1273.734985351562 C 219.5350036621094 1275.527099609375 218.0770568847656 1276.984985351562 216.2850036621094 1276.984985351562 Z"/><path class="d" d="M 84.14900207519531 1245.234985351562 C 83.13772583007812 1245.234985351562 82.28564453125 1245.785278320312 81.86967468261719 1246.706909179688 C 81.45378112792969 1247.628540039062 81.60484313964844 1248.63134765625 82.27374267578125 1249.389526367188 L 98.82574462890625 1268.147583007812 C 103.3607177734375 1273.287231445312 109.8927612304688 1276.234985351562 116.7469940185547 1276.234985351562 L 216.2850036621094 1276.234985351562 C 217.6634979248047 1276.234985351562 218.7850036621094 1275.113525390625 218.7850036621094 1273.734985351562 L 218.7850036621094 1247.734985351562 C 218.7850036621094 1246.3564453125 217.6634979248047 1245.234985351562 216.2850036621094 1245.234985351562 L 84.14900207519531 1245.234985351562 M 84.14900207519531 1243.734985351562 L 216.2850036621094 1243.734985351562 C 218.4939880371094 1243.734985351562 220.2850036621094 1245.526000976562 220.2850036621094 1247.734985351562 L 220.2850036621094 1273.734985351562 C 220.2850036621094 1275.944946289062 218.4939880371094 1277.734985351562 216.2850036621094 1277.734985351562 L 116.7469940185547 1277.734985351562 C 109.4589996337891 1277.734985351562 102.5229949951172 1274.60498046875 97.70097351074219 1269.140014648438 L 81.14900207519531 1250.381958007812 C 78.8699951171875 1247.798950195312 80.70399475097656 1243.734985351562 84.14900207519531 1243.734985351562 Z"/></g><g class="f" transform="matrix(1, 0, 0, 1, 0, 0)"><g class="b" transform="translate(-80.14 -1243.73)"><path class="d" d="M 216.2850036621094 1276.984985351562 L 116.7470092773438 1276.984985351562 C 109.6776809692383 1276.984985351562 102.9406661987305 1273.944702148438 98.26337432861328 1268.643798828125 L 81.71137237548828 1249.8857421875 C 80.85477447509766 1248.914916992188 80.65348052978516 1247.57861328125 81.18608093261719 1246.3984375 C 81.71871948242188 1245.218139648438 82.85404205322266 1244.484985351562 84.14900970458984 1244.484985351562 L 216.2850036621094 1244.484985351562 C 218.0770568847656 1244.484985351562 219.5350036621094 1245.94287109375 219.5350036621094 1247.734985351562 L 219.5350036621094 1273.734985351562 C 219.5350036621094 1275.527099609375 218.0770568847656 1276.984985351562 216.2850036621094 1276.984985351562 Z"/><path class="d" d="M 84.14900207519531 1245.234985351562 C 83.13772583007812 1245.234985351562 82.28564453125 1245.785278320312 81.86967468261719 1246.706909179688 C 81.45378112792969 1247.628540039062 81.60484313964844 1248.63134765625 82.27374267578125 1249.389526367188 L 98.82574462890625 1268.147583007812 C 103.3607177734375 1273.287231445312 109.8927612304688 1276.234985351562 116.7469940185547 1276.234985351562 L 216.2850036621094 1276.234985351562 C 217.6634979248047 1276.234985351562 218.7850036621094 1275.113525390625 218.7850036621094 1273.734985351562 L 218.7850036621094 1247.734985351562 C 218.7850036621094 1246.3564453125 217.6634979248047 1245.234985351562 216.2850036621094 1245.234985351562 L 84.14900207519531 1245.234985351562 M 84.14900207519531 1243.734985351562 L 216.2850036621094 1243.734985351562 C 218.4939880371094 1243.734985351562 220.2850036621094 1245.526000976562 220.2850036621094 1247.734985351562 L 220.2850036621094 1273.734985351562 C 220.2850036621094 1275.944946289062 218.4939880371094 1277.734985351562 216.2850036621094 1277.734985351562 L 116.7469940185547 1277.734985351562 C 109.4589996337891 1277.734985351562 102.5229949951172 1274.60498046875 97.70097351074219 1269.140014648438 L 81.14900207519531 1250.381958007812 C 78.8699951171875 1247.798950195312 80.70399475097656 1243.734985351562 84.14900207519531 1243.734985351562 Z"/></g></g><g class="c" transform="translate(-80.141 -1243.735)"><path class="d" d="M 216.2850036621094 1276.984985351562 L 116.7470092773438 1276.984985351562 C 109.6776809692383 1276.984985351562 102.9406661987305 1273.944702148438 98.26337432861328 1268.643798828125 L 81.71137237548828 1249.8857421875 C 80.85477447509766 1248.914916992188 80.65348052978516 1247.57861328125 81.18608093261719 1246.3984375 C 81.71871948242188 1245.218139648438 82.85404205322266 1244.484985351562 84.14900970458984 1244.484985351562 L 216.2850036621094 1244.484985351562 C 218.0770568847656 1244.484985351562 219.5350036621094 1245.94287109375 219.5350036621094 1247.734985351562 L 219.5350036621094 1273.734985351562 C 219.5350036621094 1275.527099609375 218.0770568847656 1276.984985351562 216.2850036621094 1276.984985351562 Z"/><path class="e" d="M 84.14900207519531 1245.234985351562 C 83.13772583007812 1245.234985351562 82.28564453125 1245.785278320312 81.86967468261719 1246.706909179688 C 81.45378112792969 1247.628540039062 81.60484313964844 1248.63134765625 82.27374267578125 1249.389526367188 L 98.82574462890625 1268.147583007812 C 103.3607177734375 1273.287231445312 109.8927612304688 1276.234985351562 116.7469940185547 1276.234985351562 L 216.2850036621094 1276.234985351562 C 217.6634979248047 1276.234985351562 218.7850036621094 1275.113525390625 218.7850036621094 1273.734985351562 L 218.7850036621094 1247.734985351562 C 218.7850036621094 1246.3564453125 217.6634979248047 1245.234985351562 216.2850036621094 1245.234985351562 L 84.14900207519531 1245.234985351562 M 84.14900207519531 1243.734985351562 L 216.2850036621094 1243.734985351562 C 218.4939880371094 1243.734985351562 220.2850036621094 1245.526000976562 220.2850036621094 1247.734985351562 L 220.2850036621094 1273.734985351562 C 220.2850036621094 1275.944946289062 218.4939880371094 1277.734985351562 216.2850036621094 1277.734985351562 L 116.7469940185547 1277.734985351562 C 109.4589996337891 1277.734985351562 102.5229949951172 1274.60498046875 97.70097351074219 1269.140014648438 L 81.14900207519531 1250.381958007812 C 78.8699951171875 1247.798950195312 80.70399475097656 1243.734985351562 84.14900207519531 1243.734985351562 Z"/></g></g></svg>