<svg xmlns="http://www.w3.org/2000/svg" xmlns:xlink="http://www.w3.org/1999/xlink" width="20" height="20" viewBox="0 0 20 20"><defs><style>.a{opacity:0;}.b{fill:url(#a);}.c{fill:#fff;}</style><linearGradient id="a" x1="0.5" x2="0.5" y2="1" gradientUnits="objectBoundingBox"><stop offset="0" stop-color="#11cf9c"/><stop offset="1" stop-color="#02cac8"/></linearGradient></defs><g transform="translate(0 0)"><rect class="a" width="20" height="20" transform="translate(0 0)"/><g transform="translate(2.312 2.313)"><path class="b" d="M30.455.271H24.742a1.246,1.246,0,0,0-1.25,1.25V7.084h6.963Z" transform="translate(-23.492 -0.265)"/><path class="b" d="M37.619.265H31.957V7.084h6.912V1.515A1.25,1.25,0,0,0,37.619.265Z" transform="translate(-23.492 -0.265)"/><path class="b" d="M31.957,15.64h5.662a1.249,1.249,0,0,0,1.25-1.25V8.583H31.957Z" transform="translate(-23.492 -0.265)"/><path class="b" d="M23.494,14.39a1.25,1.25,0,0,0,1.25,1.25h5.713V8.583H23.494Z" transform="translate(-23.492 -0.265)"/><g transform="translate(0 0.006)"><path class="c" d="M26.33.271,23.492,3.109V4.521l4.25-4.25Z" transform="translate(-23.492 -0.271)"/><path class="c" d="M29.867.271,23.492,6.646v.438h.987L30.455,1.1V.271Z" transform="translate(-23.492 -0.271)"/><path class="c" d="M28,7.084l2.45-2.438V3.221L26.6,7.084Z" transform="translate(-23.492 -0.271)"/></g></g></g></svg>