<svg xmlns="http://www.w3.org/2000/svg" width="20" height="20" viewBox="0 0 20 20">
  <g id="安全鉴定" transform="translate(-28.54 -4.853)">
    <rect id="矩形_6740" data-name="矩形 6740" width="20" height="20" transform="translate(28.54 4.853)" fill="currentColor" opacity="0"/>
    <path id="路径_9232" data-name="路径 9232" d="M46.176,8.319a1.289,1.289,0,0,0-.841-.306h-.084c-.018,0-.215.014-.525.014a11.9,11.9,0,0,1-2.468-.25A10.483,10.483,0,0,1,39.2,5.964a1.322,1.322,0,0,0-1.372,0,7.979,7.979,0,0,1-2.984,1.813,12.082,12.082,0,0,1-2.487.25c-.311,0-.508-.012-.527-.014h-.084a1.3,1.3,0,0,0-.845.306,1.1,1.1,0,0,0-.391.829v2.844c0,10.49,7.467,11.845,7.783,11.9a1.524,1.524,0,0,0,.437,0c.317-.055,7.836-1.406,7.836-11.9V9.143A1.089,1.089,0,0,0,46.176,8.319ZM42.043,18.792H35.037v-.749h7.006Zm.472-1.57H34.564v-1a1.191,1.191,0,0,1,1.188-1.187h1.581v-.672a.871.871,0,0,0-.254-.616l-.095-.1a2.317,2.317,0,0,1,1.51-3.963h.046a2.734,2.734,0,0,1,.327.019,2.31,2.31,0,0,1,1.243,3.93l-.109.11a.872.872,0,0,0-.255.616v.672h1.582a1.19,1.19,0,0,1,1.187,1.187Z" fill="currentColor"/>
  </g>
</svg>
