<svg xmlns="http://www.w3.org/2000/svg" width="16" height="16" viewBox="0 0 16 16"><defs><style>.a,.b{fill:#7c8196;}.a{opacity:0;}</style></defs><g transform="translate(-52 -104)"><rect class="a" width="16" height="16" transform="translate(52 104)"/><rect class="b" width="5.695" height="1.2" transform="translate(57.152 105.154)"/><rect class="b" width="13.572" height="1.2" transform="translate(53.214 107.803)"/><path class="b" d="M64.42,118.75H55.58a.6.6,0,0,1-.6-.6V108.4a.6.6,0,0,1,.6-.6h8.84a.6.6,0,0,1,.6.6v9.747A.6.6,0,0,1,64.42,118.75Zm-8.24-1.2h7.64V109H56.18Z"/><rect class="b" width="1.199" height="4.108" transform="translate(58.065 111.095)"/><rect class="b" width="1.199" height="4.108" transform="translate(60.755 111.095)"/></g></svg>