<svg xmlns="http://www.w3.org/2000/svg" width="16" height="16" viewBox="0 0 16 16"><defs><style>.a,.b{fill:currentColor;}.a{opacity:0;}</style></defs><rect class="a" width="16" height="16"/><g transform="translate(1.166 1.867)"><g transform="translate(0 8.497)"><path class="b" d="M-50.391,17.6H-62.829a.575.575,0,0,1-.615-.525V13.85h1.23v2.7h11.207v-2.7h1.231v3.23A.575.575,0,0,1-50.391,17.6Z" transform="translate(63.444 -13.85)"/></g><g transform="translate(3.707)"><g transform="translate(0 4.197)"><path class="b" d="M-57.61,15.2a.523.523,0,0,1-.372-.154l-2.755-2.755.743-.743,2.384,2.384,2.384-2.384.742.743-2.755,2.755A.522.522,0,0,1-57.61,15.2Z" transform="translate(60.737 -11.55)"/></g><g transform="translate(2.599)"><rect class="b" width="1.05" height="7.348"/></g></g></g></svg>