<svg xmlns="http://www.w3.org/2000/svg" width="24" height="24" viewBox="0 0 24 24">
  <defs>
    <style>
      .cls-1 {
        fill: inherit;
       
      }
    </style>
  </defs>
  <path id="减去_4" data-name="减去 4" class="cls-1" d="M-1454,24a11.921,11.921,0,0,1-8.485-3.515A11.923,11.923,0,0,1-1466,12a11.921,11.921,0,0,1,3.515-8.485A11.922,11.922,0,0,1-1454,0a11.922,11.922,0,0,1,8.486,3.515A11.921,11.921,0,0,1-1442,12a11.922,11.922,0,0,1-3.515,8.486A11.922,11.922,0,0,1-1454,24Zm-2.522-7.685a1.075,1.075,0,0,1,.6.185l2.4,1.817a.939.939,0,0,0,.565.2.839.839,0,0,0,.266-.044l4.957-1.275a.908.908,0,0,0,.608-.479.811.811,0,0,0,.1-.764l-1.439-4.529a.987.987,0,0,0-.927-.7h-1.12a14.383,14.383,0,0,1-2.374,2.719l-.057.054-.129.1a1.287,1.287,0,0,1-.927.382,1.223,1.223,0,0,1-.927-.382l-.129-.128a15.677,15.677,0,0,1-2.43-2.775h-1.184a.932.932,0,0,0-.928.7l-1.375,4.464a.974.974,0,0,0,.15.871.986.986,0,0,0,.786.4.979.979,0,0,0,.247-.032l3.038-.765A1.069,1.069,0,0,1-1456.522,16.316Zm2.564-11.836h-.01a3.437,3.437,0,0,0-3.454,3.411c0,1.993,1.848,3.77,2.952,4.832l.034.033.147.142a.4.4,0,0,0,.288.12.4.4,0,0,0,.288-.12l.172-.165c1.108-1.064,2.962-2.844,2.962-4.809a3.4,3.4,0,0,0-.97-2.435A3.4,3.4,0,0,0-1453.958,4.479Zm-.01,4.719a1.285,1.285,0,0,1-1.28-1.275,1.3,1.3,0,0,1,1.28-1.308,1.226,1.226,0,0,1,1.119.638,1.349,1.349,0,0,1,0,1.308A1.258,1.258,0,0,1-1453.968,9.2Z" transform="translate(1466)"/>
</svg>
