<svg xmlns="http://www.w3.org/2000/svg" width="16" height="16" viewBox="0 0 16 16"><defs><style>.a{opacity:0;}.b{fill:#7c8196;stroke:rgba(0,0,0,0);stroke-miterlimit:10;}</style></defs><rect class="a" width="16" height="16"/><path class="b" d="M-9434.5-8288.851a.5.5,0,0,1-.5-.5V-8301.5a.5.5,0,0,1,.5-.5h5.768a.588.588,0,0,1,.417.173l4.366,4.366a.589.589,0,0,1,.173.419v7.691a.5.5,0,0,1-.5.5Zm1.716-2.5h6.342v-1.2h-6.342Zm0-2.5h6.342v-1.2h-6.342Zm0-2.5h6.342v-1.2h-6.342Zm5.809-5.652h2.7a.5.5,0,0,1,.5.5v2.7Z" transform="translate(9437.388 8303.425)"/></svg>