<svg xmlns="http://www.w3.org/2000/svg" xmlns:xlink="http://www.w3.org/1999/xlink" width="54.796" height="48.5" viewBox="0 0 54.796 48.5"><defs><style>.a{fill:url(#a);}.b{fill:#fff;}.c{fill:none;stroke:#36fbec;stroke-miterlimit:10;stroke-width:0.5px;opacity:0.4;}.d{fill:url(#g);}.e{fill:#36fbec;}.f{fill:url(#h);}.g{filter:url(#e);}.h{filter:url(#b);}</style><linearGradient id="a" x1="0.5" x2="0.5" y2="1" gradientUnits="objectBoundingBox"><stop offset="0" stop-color="#36fbec" stop-opacity="0"/><stop offset="1" stop-color="#1accbf" stop-opacity="0.4"/></linearGradient><filter id="b"><feOffset input="SourceAlpha"/><feGaussianBlur stdDeviation="2" result="c"/><feFlood flood-color="#36fbec" result="d"/><feComposite operator="out" in="SourceGraphic" in2="c"/><feComposite operator="in" in="d"/><feComposite operator="in" in2="SourceGraphic"/></filter><filter id="e" x="0" y="0" width="54.796" height="48.5" filterUnits="userSpaceOnUse"><feOffset input="SourceAlpha"/><feGaussianBlur stdDeviation="0.5" result="f"/><feFlood flood-color="#36fbec"/><feComposite operator="in" in2="f"/><feComposite in="SourceGraphic"/></filter><linearGradient id="g" x1="0.5" x2="0.5" y2="1" gradientUnits="objectBoundingBox"><stop offset="0" stop-color="#36fbec" stop-opacity="0"/><stop offset="1" stop-color="#36fbec"/></linearGradient><linearGradient id="h" x1="0.5" x2="0.5" y2="1" gradientUnits="objectBoundingBox"><stop offset="0" stop-color="#c0fffe"/><stop offset="1" stop-color="#3ee1de"/></linearGradient></defs><g transform="translate(1.777 -4.25)"><g transform="translate(-58.147 37.834)"><path class="a" d="M92.8-30.274H72.549a2.476,2.476,0,0,0-2.14,1.234L60.281-11.527a2.459,2.459,0,0,0,0,2.467L70.409,8.453a2.476,2.476,0,0,0,2.14,1.234H92.8a2.476,2.476,0,0,0,2.14-1.234L105.073-9.06a2.459,2.459,0,0,0,0-2.467L94.945-29.04A2.476,2.476,0,0,0,92.8-30.274Z" transform="translate(0.842 0.959)"/><g class="h" transform="matrix(1, 0, 0, 1, 56.37, -33.58)"><path class="b" d="M92.8-30.274H72.549a2.476,2.476,0,0,0-2.14,1.234L60.281-11.527a2.459,2.459,0,0,0,0,2.467L70.409,8.453a2.476,2.476,0,0,0,2.14,1.234H92.8a2.476,2.476,0,0,0,2.14-1.234L105.073-9.06a2.459,2.459,0,0,0,0-2.467L94.945-29.04A2.476,2.476,0,0,0,92.8-30.274Z" transform="translate(-55.53 34.54)"/></g><g class="g" transform="matrix(1, 0, 0, 1, 56.37, -33.58)"><path class="c" d="M95.413-31.834H72.122A2.328,2.328,0,0,0,70.1-30.669L58.459-10.5a2.325,2.325,0,0,0,0,2.33L70.1,12a2.333,2.333,0,0,0,2.017,1.165H95.413A2.333,2.333,0,0,0,97.431,12L109.076-8.17a2.325,2.325,0,0,0,0-2.33L97.431-30.669A2.328,2.328,0,0,0,95.413-31.834Z" transform="translate(-56.37 33.58)"/></g><path class="d" d="M72.549-30.524H92.8a2.733,2.733,0,0,1,2.356,1.358l10.128,17.513a2.718,2.718,0,0,1,0,2.718L95.161,8.578A2.734,2.734,0,0,1,92.8,9.937H72.549a2.733,2.733,0,0,1-2.356-1.358L60.064-8.935a2.717,2.717,0,0,1,0-2.718L70.192-29.166A2.734,2.734,0,0,1,72.549-30.524ZM92.8,9.437a2.232,2.232,0,0,0,1.924-1.109L104.856-9.185a2.216,2.216,0,0,0,0-2.217L94.728-28.915A2.232,2.232,0,0,0,92.8-30.024H72.549a2.232,2.232,0,0,0-1.924,1.109L60.5-11.4a2.216,2.216,0,0,0,0,2.217L70.625,8.328a2.232,2.232,0,0,0,1.924,1.109Z" transform="translate(1.091 0.959)"/><rect class="e" width="6" height="2" transform="translate(81.147 -32.834)"/></g><path class="f" d="M2.9,20a.894.894,0,0,1-.889-.9V8.472L.89,9.486a.527.527,0,0,1-.753-.043.543.543,0,0,1,.042-.762L9.645.137a.531.531,0,0,1,.711,0l4.178,3.771V2.046a.533.533,0,1,1,1.067,0V4.812a.47.47,0,0,1,0,.056l4.224,3.813a.545.545,0,0,1,.042.762.529.529,0,0,1-.753.043l-.855-.774V19.1a.894.894,0,0,1-.889.9Z" transform="translate(16 16)"/></g></svg>