<svg xmlns="http://www.w3.org/2000/svg" width="16.763" height="16" viewBox="0 0 16.763 16"><defs><style>.a,.b{fill:#4cccff;}.a{stroke:#707070;opacity:0;}.b{stroke:rgba(0,0,0,0);}.c{stroke:none;}.d{fill:none;}</style></defs><g transform="translate(-36.482 -12)"><g class="a" transform="translate(37 12)"><rect class="c" width="16" height="16"/><rect class="d" x="0.5" y="0.5" width="15" height="15"/></g><path class="b" d="M93.213,138.681a.84.84,0,0,0-.837.847.826.826,0,0,0,.837.756.84.84,0,0,0,.837-.847A.988.988,0,0,0,93.213,138.681Zm6.449,3.494h-12.9A1.431,1.431,0,0,1,85.554,140c2.149-3.78,4.3-7.47,6.449-11.262a1.472,1.472,0,0,1,2.523,0c2.06,3.689,4.209,7.469,6.359,11.262a1.471,1.471,0,0,1-1.224,2.177h0Zm-5.985-4.823.283-4.537a.84.84,0,0,0-.837-.847.828.828,0,0,0-.747.847l.285,4.537A.508.508,0,0,0,93.676,137.351Z" transform="translate(-48.347 -115.25)"/></g></svg>