<svg xmlns="http://www.w3.org/2000/svg" xmlns:xlink="http://www.w3.org/1999/xlink" width="20" height="20" viewBox="0 0 20 20"><defs><style>.a{opacity:0;}.b{fill:url(#a);}.c{fill:#ff7373;}.d{fill:#fff;}</style><linearGradient id="a" x1="0.5" x2="0.5" y2="1" gradientUnits="objectBoundingBox"><stop offset="0" stop-color="#ff7373"/><stop offset="1" stop-color="#fc2c49"/></linearGradient></defs><g transform="translate(-17 1.989)"><rect class="a" width="20" height="20" transform="translate(17 -1.989)"/><g transform="translate(-12.109 -7.61)"><path class="b" d="M47.532,22.314H44.564V15.653a5.374,5.374,0,0,0-10.748,0v6.661H30.687v1.5H47.532Z"/><rect class="c" width="1.5" height="2.067" transform="translate(38.439 7.429)"/><rect class="c" width="2.066" height="1.5" transform="matrix(0.5, -0.866, 0.866, 0.5, 41.698, 9.997)"/><rect class="c" width="2.066" height="1.5" transform="translate(44.27 12.059) rotate(-29.988)"/><rect class="c" width="2.067" height="1.499" transform="translate(45.465 15.132)"/><rect class="c" width="1.5" height="2.066" transform="matrix(0.866, -0.5, 0.5, 0.866, 34.335, 8.903)"/><rect class="c" width="1.5" height="2.066" transform="translate(31.516 12.23) rotate(-60.012)"/><rect class="c" width="2.067" height="1.499" transform="translate(30.738 15.022)"/><path class="d" d="M42.08,15.628l-4.014,4.014.2-2.124-2.124.2L40.153,13.7l-.2,2.124Z"/></g></g></svg>