<svg xmlns="http://www.w3.org/2000/svg" xmlns:xlink="http://www.w3.org/1999/xlink" width="20" height="20" viewBox="0 0 20 20"><defs><style>.a{opacity:0;}.b{fill:url(#a);}.c{fill:#fff;}</style><linearGradient id="a" x1="0.5" x2="0.5" y2="1" gradientUnits="objectBoundingBox"><stop offset="0" stop-color="#11cf9c"/><stop offset="1" stop-color="#02cac8"/></linearGradient></defs><g transform="translate(-17 1.989)"><rect class="a" width="20" height="20" transform="translate(17 -1.989)"/><g transform="translate(23.046 -41.189)"><circle class="b" cx="8.676" cy="8.676" r="8.676" transform="translate(-5.047 40.524)"/><path class="c" d="M3.615,43.913A3.1,3.1,0,0,0,.3,47.295L2,47.262c0-1.767.9-1.923,1.768-1.923a1.379,1.379,0,0,1,1.458,1.49c0,.93-.187,1.209-.685,1.458a2.929,2.929,0,0,0-1.859,3.224H4.328c0-1.4.249-1.333,1.458-2.264a2.645,2.645,0,0,0,1.178-1.985A3.112,3.112,0,0,0,3.615,43.913Z"/><rect class="c" width="1.674" height="1.675" transform="translate(2.654 52.814)"/></g></g></svg>