<svg xmlns="http://www.w3.org/2000/svg" viewBox="0 0 65 75" class="design-iconfont">
  <defs>
    <linearGradient id="f4hx9u4hd__gritpnvy7a" x1=".5" x2=".5" y2="1" gradientUnits="objectBoundingBox">
      <stop offset="0" stop-color="#ff7373"/>
      <stop offset="1" stop-color="#fc2c49"/>
    </linearGradient>
  </defs>
  <g fill="rgba(250,80,86,.1)">
    <path d="M 55.96121978759766 64.5 L 19.03877830505371 64.5 L 0.577239990234375 32.5 L 19.03877830505371 0.5 L 55.96121978759766 0.5 L 74.42276000976562 32.5 L 55.96121978759766 64.5 Z" transform="rotate(90 32.5 32.5)"/>
    <path d="M 19.32756805419922 1 L 1.154487609863281 32.5 L 19.32756805419922 64 L 55.67243194580078 64 L 73.84551239013672 32.5 L 55.67243194580078 1 L 19.32756805419922 1 M 18.75 0 L 56.25 0 L 75 32.5 L 56.25 65 L 18.75 65 L 0 32.5 L 18.75 0 Z" fill="#fa5056" transform="rotate(90 32.5 32.5)"/>
  </g>
  <g fill="rgba(250,80,86,.1)">
    <path d="M 43.96159362792969 50.5 L 15.03840446472168 50.5 L 0.577620267868042 25.5 L 15.03840446472168 0.5 L 43.96159362792969 0.5 L 58.42237854003906 25.5 L 43.96159362792969 50.5 Z" transform="rotate(90 25 33)"/>
    <path d="M 15.32680892944336 1 L 1.155239105224609 25.5 L 15.32680892944336 50 L 43.67319107055664 50 L 57.84476089477539 25.5 L 43.67319107055664 1 L 15.32680892944336 1 M 14.75 0 L 44.25 0 L 59 25.5 L 44.25 51 L 14.75 51 L 0 25.5 L 14.75 0 Z" fill="#fa5056" transform="rotate(90 25 33)"/>
  </g>
  <path d="M-7996.107-1795.125h-12.184l2.947-2.357h3.952v-2.683l3.716-.087,1.5-2.545h2.17v5.552A2.115,2.115,0,0,1-7996.107-1795.125Zm-12.189,0h-7.378a2.115,2.115,0,0,1-2.106-2.12v-12.169h-.694a2.059,2.059,0,0,1-1.98-1.4,2.109,2.109,0,0,1,.646-2.363l12.583-10.375a2.1,2.1,0,0,1,1.335-.479,2.1,2.1,0,0,1,1.334.479l12.584,10.375a2.082,2.082,0,0,1,.645,2.363,2.06,2.06,0,0,1-1.979,1.4H-7994v4.813h-2.673l-2,3.307h-4.167v2.79h-3.63l-1.825,3.377Zm-.343-17.592a1.065,1.065,0,0,0-1.059,1.069,1.064,1.064,0,0,0,1.059,1.067h5.494a1.065,1.065,0,0,0,1.061-1.067,1.066,1.066,0,0,0-1.061-1.069Z" transform="translate(8037.667 1847.421)" fill="url(#f4hx9u4hd__gritpnvy7a)"/>
  <path d="M 15.32680892944336 1 L 1.155239105224609 25.5 L 15.32680892944336 50 L 43.67319107055664 50 L 57.84476089477539 25.5 L 43.67319107055664 1 L 15.32680892944336 1 M 14.75 0 L 44.25 0 L 59 25.5 L 44.25 51 L 14.75 51 L 0 25.5 L 14.75 0 Z" fill="#fa5056" transform="rotate(90 25 33)"/>
  <path d="M28.84,83.047V93.7h1V83.617l24.5-14.17V68.3Z" transform="translate(-21.84 -60.297)" fill="#fff"/>
  <path d="M19.61,106.447l1,.58,31.5-18.17V87.7Z" transform="translate(-19.61 -87.697)" fill="#fff"/>
  <path d="M41.55,135.307v3.13l-2.47,1.43.53.85,2.94-1.7v-3.71Z" transform="translate(15.45 -86.717)" fill="#fff"/>
</svg>
