<svg xmlns="http://www.w3.org/2000/svg" xmlns:xlink="http://www.w3.org/1999/xlink" width="20" height="20" viewBox="0 0 20 20"><defs><style>.a{fill:url(#a);}.b{fill:url(#b);}.c{fill:rgba(76,204,255,0);}.d{stroke:rgba(0,0,0,0);stroke-miterlimit:10;fill:url(#c);}</style><linearGradient id="a" x1="0.457" y1="0.729" x2="0.48" gradientUnits="objectBoundingBox"><stop offset="0" stop-color="#41f8e6" stop-opacity="0"/><stop offset="1" stop-color="#41f8e6" stop-opacity="0.302"/></linearGradient><linearGradient id="b" x1="0.5" x2="0.5" y2="0.927" gradientUnits="objectBoundingBox"><stop offset="0" stop-color="#41f8e6" stop-opacity="0.6"/><stop offset="1" stop-color="#41f8e6" stop-opacity="0"/></linearGradient><linearGradient id="c" x1="0.5" x2="0.5" y2="1" gradientUnits="objectBoundingBox"><stop offset="0" stop-color="#11cf9c"/><stop offset="1" stop-color="#02cac8"/></linearGradient></defs><g transform="translate(-5.5 -2)"><rect class="a" width="20" height="20" rx="10" transform="translate(5.5 2)"/><path class="b" d="M10,1a9,9,0,1,0,9,9,9.01,9.01,0,0,0-9-9m0-1A10,10,0,1,1,0,10,10,10,0,0,1,10,0Z" transform="translate(5.5 2)"/><g transform="translate(-198.149 -25.052)"><rect class="c" width="14" height="14" transform="translate(206.649 30.051)"/><g transform="translate(207.044 30.484)"><path class="d" d="M-90.031-899.647h-4.727a.8.8,0,0,1-.691-.4l-2.363-4.094a.8.8,0,0,1,0-.8l2.363-4.093a.8.8,0,0,1,.691-.4h4.727a.8.8,0,0,1,.692.4l2.363,4.093a.8.8,0,0,1,0,.8l-2.363,4.094A.8.8,0,0,1-90.031-899.647Zm-2.363-7.2a2.314,2.314,0,0,0-2.311,2.312,2.314,2.314,0,0,0,2.311,2.311,2.314,2.314,0,0,0,2.312-2.311A2.315,2.315,0,0,0-92.395-906.852Z" transform="translate(99 911.305)"/></g></g></g></svg>