<svg xmlns="http://www.w3.org/2000/svg" xmlns:xlink="http://www.w3.org/1999/xlink" width="16" height="16" viewBox="0 0 16 16"><defs><style>.a{fill:#4cccff;opacity:0;}.b{fill:url(#a);}</style><linearGradient id="a" x1="0.5" x2="0.5" y2="1" gradientUnits="objectBoundingBox"><stop offset="0" stop-color="#7df9f7"/><stop offset="1" stop-color="#37d3ff"/></linearGradient></defs><g transform="translate(0)"><rect class="a" width="16" height="16" transform="translate(0)"/><g transform="translate(1.943 1.943)"><g transform="translate(3.025)"><path class="b" d="M-17.065,7.595A3.037,3.037,0,0,1-20.1,4.562a3.037,3.037,0,0,1,3.033-3.034,3.037,3.037,0,0,1,3.033,3.034A3.037,3.037,0,0,1-17.065,7.595Z" transform="translate(20.098 -1.528)"/></g><g transform="translate(0 7.198)"><path class="b" d="M-11.777,14.135H-22.769a.562.562,0,0,1-.561-.561V12.72a3.5,3.5,0,0,1,3.5-3.5h5.113a3.505,3.505,0,0,1,3.5,3.5v.853A.562.562,0,0,1-11.777,14.135Z" transform="translate(23.33 -9.22)"/></g></g></g></svg>