<svg xmlns="http://www.w3.org/2000/svg" xmlns:xlink="http://www.w3.org/1999/xlink" width="26.985" height="5.001" viewBox="0 0 26.985 5.001"><defs><style>.a{fill:url(#a);}</style><linearGradient id="a" x1="0.984" y1="1" x2="0" y2="1" gradientUnits="objectBoundingBox"><stop offset="0" stop-color="#41f8e6"/><stop offset="1" stop-color="#41f8e6" stop-opacity="0"/></linearGradient></defs><path class="a" d="M-1993.011-379l4.906-5h1.09l-4.906,5Zm-3,0,4.906-5h1.091l-4.906,5Zm-3,0,4.906-5h1.091l-4.906,5Zm-3,0,4.906-5h1.09l-4.906,5Zm-3,0,4.906-5h1.09l-4.906,5Zm-3,0,4.906-5h1.09l-4.906,5Zm-3,0,4.906-5h1.091l-4.906,5Zm-3,0,4.906-5H-2008l-4.906,5Z" transform="translate(2014 384)"/></svg>