<svg xmlns="http://www.w3.org/2000/svg" width="18" height="18" viewBox="0 0 18 18"><defs><style>.a{opacity:0;}.b,.c{fill:none;}.b{stroke:#000;stroke-linejoin:round;stroke-width:0.7px;}.c{stroke:#fff;stroke-miterlimit:10;stroke-width:1.2px;}.d{fill:#12c49b;}.e{fill:#353342;}</style></defs><g transform="translate(-19.756 9.532)"><rect class="a" width="18" height="18" transform="translate(19.756 -9.532)"/><rect class="a" width="18" height="18" transform="translate(19.756 -9.532)"/><path class="b" d="M32.993-.532"/><line class="c" y2="3.994" transform="translate(30.874 -2.53)"/><path class="b" d="M32.733-1.312"/><rect class="d" width="15.984" height="12.007" rx="1" transform="translate(20.764 -6.517)"/><circle class="e" cx="0.919" cy="0.919" r="0.919" transform="translate(24.433 -1.432)"/><circle class="e" cx="0.919" cy="0.919" r="0.919" transform="translate(27.837 -1.432)"/><circle class="e" cx="0.919" cy="0.919" r="0.919" transform="translate(31.242 -1.432)"/><path class="d" d="M29.044,7.254l1.863-2.92a.341.341,0,0,0-.288-.525H26.893a.341.341,0,0,0-.288.525l1.863,2.92A.342.342,0,0,0,29.044,7.254Z"/></g></svg>