<svg xmlns="http://www.w3.org/2000/svg" width="16" height="16" viewBox="0 0 16 16">
  <defs>
    <style>
      .cls-1 {
        fill: #e5e5e5;
        opacity: 0;
      }

      .cls-2 {
        fill: inherit;
      }
    </style>
  </defs>
  <g id="组_950" data-name="组 950" transform="translate(-1742.533 -465.497)">
    <rect id="矩形_1067" data-name="矩形 1067" class="cls-1" width="16" height="16" transform="translate(1742.533 465.497)"/>
    <path id="路径_4052" data-name="路径 4052" class="cls-2" d="M64.83,8.242V4.428a.316.316,0,0,0-.092-.224L61.338.581a.322.322,0,0,0-.2-.092H54.565a.881.881,0,0,0-.914.888V12.083a.888.888,0,0,0,.888.894h9.4a.888.888,0,0,0,.888-.894V8.242ZM60.885,1.8l2.63,2.63H61.542a.658.658,0,0,1-.658-.658Zm2.63,3.288v6.451a.125.125,0,0,1-.125.125H55.1a.132.132,0,0,1-.132-.125V1.929A.132.132,0,0,1,55.1,1.8h5.123V4.231a.855.855,0,0,0,.855.855ZM57.6,7.059V5.743L55.624,7.427v.618L57.6,9.689V8.374l-.658-.658Zm3.288,0,.658.658v.039l-.658.658V9.669l1.973-1.6V7.453l-1.973-1.71Zm-2.63,2.63H59.57l.658-3.946H58.912Z" transform="translate(1691.292 466.764)"/>
  </g>
</svg>
