<svg xmlns="http://www.w3.org/2000/svg" viewBox="0 0 16 16"><defs><style>.cls-1{opacity:0;}</style></defs><g id="图层_2" data-name="图层 2"><g id="图层_1-2" data-name="图层 1"><rect class="cls-1" width="16" height="16"/><path d="M13,3a7.08,7.08,0,1,0,0,10A7.1,7.1,0,0,0,13,3Zm-.85,9.17a5.88,5.88,0,1,1,0-8.32A5.9,5.9,0,0,1,12.16,12.16Z"/><path d="M6.29,6.12a8,8,0,0,0-.55-1.53H4.88a6.85,6.85,0,0,1,.49,1.53Z"/><path d="M8.15,10.43h1V8.35h1.26v.58c0,.29-.11.42-.37.4h-.4v.61h.77c.63,0,.93-.29.91-.94V7.71H9.16V7H11V6.37H9.16V5.66h2.2V5.05H9.16V4.44h-1v.61H6.53v.61H8.15v.71H6.84V7H8.15v.7H6.44v.64H8.15Z"/><path d="M6.1,9.67V6.73H4.48v.65h.65V9.91a.88.88,0,0,1-.68.95v.55a2.14,2.14,0,0,0,1.32-.67,1.44,1.44,0,0,0,1.31.55h4.47v-.58H7.14A1,1,0,0,1,6.1,9.67Z"/></g></g></svg>