<svg xmlns="http://www.w3.org/2000/svg" width="36" height="48.195" viewBox="0 0 36 48.195"><defs><style>.a{opacity:0.74;}.b,.c,.d{fill:#12c49b;}.c{opacity:0.5;}.d{opacity:0.3;}.e{opacity:0;}.f{fill:rgba(0,0,0,0);}.g{fill:#fff;}</style></defs><g transform="translate(0)"><g class="a"><path class="b" d="M-3053.7,374.953V354.725l-17.2-10.115-17.2,10.115v20.228l17.2,10.115Z" transform="translate(3088.9 -340.742)"/><g transform="translate(0 2.945)"><path class="c" d="M-3070.9,384.934l17.1-10.048V354.792l-17.1-10.048-17.1,10.048v20.095l17.1,10.048m0,1.058-18-10.577V354.263l18-10.576,18,10.576v21.152Z" transform="translate(3088.896 -343.687)"/></g><path class="d" d="M-3079.692,346.052l6.8-3.92,6.8,3.92v-1.386l-6.2-3.578-.6-.346-.6.346-6.2,3.578Z" transform="translate(3090.897 -340.742)"/><path class="d" d="M-3066.1,378.272l-6.8,3.92-6.8-3.92v1.386l6.2,3.578.6.346.6-.346,6.2-3.578Z" transform="translate(3090.895 -335.387)"/></g><g transform="translate(3.652 -9.851)"><rect class="e" width="24" height="24" transform="translate(2.613 21.949)"/><rect class="f" width="24" height="24" transform="translate(2.613 21.949)"/><rect class="f" width="23.995" height="23.995" transform="translate(2.615 21.951)"/><rect class="e" width="24" height="24" transform="translate(2.613 21.949)"/><rect class="e" width="24" height="24" transform="translate(2.613 21.949)"/><g transform="translate(233.152 5.83)"><path class="g" d="M-208.62,25.575l-8.969-7.344a1.5,1.5,0,0,0-1.9,0l-8.969,7.344a1.5,1.5,0,0,0,.95,2.66h.495v8.611a1.5,1.5,0,0,0,1.5,1.5h4.656V32.6a1.5,1.5,0,0,1,1.5-1.5h1.881a6.011,6.011,0,0,1,4.817-2.438,5.966,5.966,0,0,1,2.594.609V28.235h.495A1.5,1.5,0,0,0-208.62,25.575Zm-7.961,1.834h-4.357a.757.757,0,0,1-.757-.756.757.757,0,0,1,.757-.756h4.357a.757.757,0,0,1,.756.756A.757.757,0,0,1-216.581,27.409Z"/><path class="g" d="M-213.725,33.162a7.9,7.9,0,0,1,2.558-1.777l.214-.071h.071v-.071l-.071-.071a4.384,4.384,0,0,0-3.767.782,7.408,7.408,0,0,0-2.559,3.7v.071c0,.142,0,.213.142.284l1.564.426h.142c0-.071.071-.071.071-.142a7.7,7.7,0,0,1,.711-1.776l3.34,3.553c.071.071.071.071.142.071s.142,0,.142-.071l.782-.853a.216.216,0,0,0,0-.284Z"/></g></g></g></svg>