<svg xmlns="http://www.w3.org/2000/svg" xmlns:xlink="http://www.w3.org/1999/xlink" width="801.666" height="59.506" viewBox="0 0 801.666 59.506"><defs><style>.a{fill:url(#a);}.b{fill:#fff;}.c{fill:url(#e);}.d{filter:url(#b);}</style><linearGradient id="a" x1="0.5" x2="0.5" y2="1" gradientUnits="objectBoundingBox"><stop offset="0" stop-color="#021620" stop-opacity="0.6"/><stop offset="1" stop-color="#021620" stop-opacity="0.902"/></linearGradient><filter id="b" x="0.294" y="0.753" width="801.371" height="58.01" filterUnits="userSpaceOnUse"><feOffset dy="6" input="SourceAlpha"/><feGaussianBlur stdDeviation="3" result="c"/><feFlood flood-opacity="0.161" result="d"/><feComposite operator="out" in="SourceGraphic" in2="c"/><feComposite operator="in" in="d"/><feComposite operator="in" in2="SourceGraphic"/></filter><linearGradient id="e" x1="0.012" y1="1" x2="1" y2="1" gradientUnits="objectBoundingBox"><stop offset="0" stop-color="#41f8e6" stop-opacity="0"/><stop offset="0.523" stop-color="#44ffed"/><stop offset="1" stop-color="#41f8e6" stop-opacity="0"/></linearGradient></defs><g data-type="innerShadowGroup"><path class="a" d="M755.725,989.674H-45.646l59.462,5.859c23.77,2.342,45.935,14.75,62.19,34.815h0c8.957,11.056,21.511,17.336,34.657,17.336H599.415c13.146,0,25.7-6.28,34.658-17.336l.037-.045c16.268-20.082,38.455-32.493,62.246-34.821Z" transform="translate(45.94 -988.921)"/><g class="d" transform="matrix(1, 0, 0, 1, 0, 0)"><path class="b" d="M755.725,989.674H-45.646l59.462,5.859c23.77,2.342,45.935,14.75,62.19,34.815h0c8.957,11.056,21.511,17.336,34.657,17.336H599.415c13.146,0,25.7-6.28,34.658-17.336l.037-.045c16.268-20.082,38.455-32.493,62.246-34.821Z" transform="translate(45.94 -988.92)"/></g></g><path class="c" d="M610.3,1287.908H121.553a42.282,42.282,0,0,1-9.877-1.175,43.91,43.91,0,0,1-9.358-3.426,46.922,46.922,0,0,1-8.549-5.529,50.92,50.92,0,0,1-7.456-7.483c-16.159-19.947-38.065-32.214-61.681-34.541l-59.462-5.859.147-1.493,59.462,5.859a86,86,0,0,1,17.613,3.638,89.826,89.826,0,0,1,16.593,7.215,95.765,95.765,0,0,1,15.164,10.561,103.176,103.176,0,0,1,13.329,13.675c8.783,10.841,21.2,17.058,34.074,17.058H610.3c12.872,0,25.292-6.217,34.075-17.058l.037-.045h0a103.178,103.178,0,0,1,13.341-13.685,95.758,95.758,0,0,1,15.178-10.566,89.806,89.806,0,0,1,16.608-7.214,85.985,85.985,0,0,1,17.629-3.631l59.369-5.808.146,1.493-59.369,5.808c-23.638,2.313-45.563,14.582-61.736,34.547l-.038.046a50.931,50.931,0,0,1-7.456,7.483,46.927,46.927,0,0,1-8.55,5.529,43.912,43.912,0,0,1-9.358,3.426A42.283,42.283,0,0,1,610.3,1287.908Z" transform="translate(34.83 -1228.402)"/></svg>