<svg xmlns="http://www.w3.org/2000/svg" width="16" height="16" viewBox="0 0 16 16">
  <defs>
    <style>
      .cls-1 {
        fill: #fff;
        opacity: 0;
      }

      .cls-2 {
        fill: #f5c86e;
      }
    </style>
  </defs>
  <g id="组_908" data-name="组 908" transform="translate(-16 -10)">
    <rect id="矩形_1076" data-name="矩形 1076" class="cls-1" width="16" height="16" transform="translate(16 10)"/>
    <path id="路径_4019" data-name="路径 4019" class="cls-2" d="M30.523,69.11H18.374s-.966.15-.966-1.138V57.541a1.168,1.168,0,0,1,1.2-1.16h4.252s.515-.107.945.558c.408.644.644,1.052.644,1.052a.665.665,0,0,0,.494.172H30.43a.868.868,0,0,1,.966.966v8.9C31.4,68.036,31.554,69.11,30.523,69.11Zm-.909-8.168a.477.477,0,0,0-.472-.472h-9.45a.482.482,0,0,0-.494.472v.043a.486.486,0,0,0,.494.494h9.457a.482.482,0,0,0,.472-.494Z" transform="translate(-0.408 -44.375)"/>
  </g>
</svg>
