<svg xmlns="http://www.w3.org/2000/svg" xmlns:xlink="http://www.w3.org/1999/xlink" width="20" height="20" viewBox="0 0 20 20"><defs><style>.a{opacity:0;}.b{fill:url(#a);}.c{fill:#fff;}</style><linearGradient id="a" x1="0.5" x2="0.5" y2="1" gradientUnits="objectBoundingBox"><stop offset="0" stop-color="#11cf9c"/><stop offset="1" stop-color="#02cac8"/></linearGradient></defs><g transform="translate(-17 1.989)"><rect class="a" width="20" height="20" transform="translate(17 -1.989)"/><g transform="translate(-2.547 -15.562)"><path class="b" d="M30.688,28.4h-8V24.536a2.871,2.871,0,0,1-.415.125c-.033.008-.067.017-.1.024l-.047.007c-.073.011-.147.023-.223.03s-.169.013-.262.013a2.969,2.969,0,0,1-.523-.05v5.284a.786.786,0,0,0,.785.786H32.244A4.422,4.422,0,0,1,30.688,28.4Z"/><path class="b" d="M21.415,16.592c0,.011.009.022.012.033a.23.23,0,0,0,.014.039l.012.022a.782.782,0,0,0,.712.457H33.682a.785.785,0,0,0,0-1.57H22.166a.786.786,0,0,0-.786.784v0a.692.692,0,0,0,.009.111A.736.736,0,0,0,21.415,16.592Z"/><path class="b" d="M34.826,17.93H21.02l-1.473,3.926a2.094,2.094,0,0,0,4.188,0,2.094,2.094,0,0,0,4.187,0,2.094,2.094,0,0,0,4.188,0,2.081,2.081,0,0,0,.7,1.559h0a4.406,4.406,0,0,1,3.161-.439,2.09,2.09,0,0,0,.327-1.12Z"/><path class="c" d="M34.954,23.421A3.779,3.779,0,1,0,38.733,27.2,3.778,3.778,0,0,0,34.954,23.421Zm1.609,4.1H34.954a.326.326,0,0,1-.326-.326V25.034h.653v1.839h1.282Z"/></g></g></svg>