<svg xmlns="http://www.w3.org/2000/svg" xmlns:xlink="http://www.w3.org/1999/xlink" width="20" height="20" viewBox="0 0 20 20"><defs><style>.a{opacity:0;}.b{fill:url(#a);}.c{fill:#fff;}</style><linearGradient id="a" x1="0.5" x2="0.5" y2="1" gradientUnits="objectBoundingBox"><stop offset="0" stop-color="#11cf9c"/><stop offset="1" stop-color="#02cac8"/></linearGradient></defs><g transform="translate(-17 1.989)"><rect class="a" width="20" height="20" transform="translate(17 -1.989)"/><g transform="translate(14.34 9.789)"><path class="b" d="M20.49-3.786l-7.08-5.8a1.184,1.184,0,0,0-1.5,0l-7.08,5.8a1.184,1.184,0,0,0,.75,2.1h.391v6.8A1.184,1.184,0,0,0,7.155,6.3h11.01a1.184,1.184,0,0,0,1.184-1.184v-6.8h.391A1.184,1.184,0,0,0,20.49-3.786Z"/><path class="c" d="M16.364-3.356a.617.617,0,0,0-.405-.147h-.04c-.009,0-.1.007-.253.007a5.726,5.726,0,0,1-1.189-.121,5.03,5.03,0,0,1-1.472-.873.638.638,0,0,0-.661,0,3.835,3.835,0,0,1-1.438.873,5.811,5.811,0,0,1-1.2.121c-.15,0-.245-.006-.254-.007h-.04a.627.627,0,0,0-.408.147.526.526,0,0,0-.188.4v1.37c0,5.053,3.6,5.706,3.75,5.732a.739.739,0,0,0,.21,0c.153-.026,3.775-.677,3.775-5.732V-2.958A.528.528,0,0,0,16.364-3.356ZM15.309,1,15,.695a.818.818,0,0,0-.582-.238.827.827,0,0,0-.586,1.414l.3.307-.53.53-.344-.345A1.561,1.561,0,0,1,13.088.485l-.872-.871a1.559,1.559,0,0,1-.8.251A1.579,1.579,0,0,1,10.34-.559h0l-.026-.028L10.3-.6h0L9.995-.9l.533-.53.311.314a.834.834,0,0,0,1.166-.008.824.824,0,0,0,.241-.587.824.824,0,0,0-.241-.585L11.7-2.606l.53-.53.307.3,0,0,.035.035A1.564,1.564,0,0,1,13-1.715a1.552,1.552,0,0,1-.249.8l.871.87a1.542,1.542,0,0,1,.8-.249h0a1.564,1.564,0,0,1,1.077.424l.035.035,0,0,.3.306Z"/></g></g></svg>