<svg xmlns="http://www.w3.org/2000/svg" xmlns:xlink="http://www.w3.org/1999/xlink" width="18" height="18" viewBox="0 0 18 18"><defs><style>.a{fill:#4cccff;opacity:0;}.b{fill:url(#a);}</style><linearGradient id="a" x1="0.5" y1="-0.462" x2="0.5" y2="1" gradientUnits="objectBoundingBox"><stop offset="0" stop-color="#83e8ff"/><stop offset="1" stop-color="#4cccff"/></linearGradient></defs><g transform="translate(0 0.661)"><rect class="a" width="18" height="18" transform="translate(0 -0.661)"/><g transform="translate(0.964 1.951)"><path class="b" d="M15.542,13.2H14.32V6.951a1.085,1.085,0,0,0-1.085-1.085H10A1.085,1.085,0,0,0,8.913,6.951V13.2H1.431a.543.543,0,0,0-.543.543v.938a.543.543,0,0,0,.543.543H15.542a.543.543,0,0,0,.543-.543v-.938A.543.543,0,0,0,15.542,13.2Z" transform="translate(-0.888 -1.479)"/><path class="b" d="M7.688,6.211A1.085,1.085,0,0,1,8.774,5.126h1.519V2.909A1.086,1.086,0,0,0,9.207,1.824H3.6A1.086,1.086,0,0,0,2.514,2.909v9.565H7.688Z" transform="translate(-0.749 -1.824)"/></g></g></svg>