<svg xmlns="http://www.w3.org/2000/svg" width="20" height="20" viewBox="0 0 20 20"><defs><style>.a{opacity:0.8;}.b,.c{fill:#fff;}.b{opacity:0;}</style></defs><g class="a" transform="translate(-17.239 -7.131)"><rect class="b" width="20" height="20" transform="translate(17.239 7.131)"/><rect class="c" width="1.552" height="1.42" transform="translate(32.377 20.117)"/><path class="c" d="M32.377,24.454h1.464a1.183,1.183,0,0,0,.087-.434v-.984H32.377Z"/><rect class="c" width="2.377" height="1.418" transform="translate(28.499 23.036)"/><path class="c" d="M27,25.2V22.286a.75.75,0,0,1,.75-.749h3.128V19.368a.75.75,0,0,1,.75-.75h2.3v-1.4h.391a1.184,1.184,0,0,0,.75-2.1l-7.08-5.8a1.184,1.184,0,0,0-1.5,0l-7.08,5.8a1.184,1.184,0,0,0,.75,2.1h.391v6.8A1.184,1.184,0,0,0,21.734,25.2H27Zm-2.222-9.721a.631.631,0,0,1,.63-.63h3.631a.63.63,0,0,1,0,1.26H25.407A.63.63,0,0,1,24.777,15.483Z"/></g></svg>