<svg id="组_1318" data-name="组 1318" xmlns="http://www.w3.org/2000/svg" width="16" height="16" viewBox="0 0 16 16">
  <defs>
    <style>
      .cls-1, .cls-4 {
        fill: #fff;
      }

      .cls-1 {
        opacity: 0;
      }

      .cls-2 {
        fill: #ff7861;
      }

      .cls-3 {
        fill: #ffb0a4;
      }
    </style>
  </defs>
  <rect id="矩形_1076" data-name="矩形 1076" class="cls-1" width="16" height="16"/>
  <g id="组_1328" data-name="组 1328" transform="translate(1.403 0)">
    <path id="路径_4212" data-name="路径 4212" class="cls-2" d="M87.915,0h8.626l4.106,4.027V15.554a.454.454,0,0,1-.46.446H87.915a.454.454,0,0,1-.46-.446V.446A.454.454,0,0,1,87.915,0Z" transform="translate(-87.455)"/>
    <path id="路径_4213" data-name="路径 4213" class="cls-3" d="M668.969,0V3.58a.453.453,0,0,0,.46.446h3.646Z" transform="translate(-659.883)"/>
    <path id="路径_4214" data-name="路径 4214" class="cls-4" d="M246.579,374.14a1.073,1.073,0,0,1,0,1.3,1.418,1.418,0,0,1-.8.323H240.1a.635.635,0,0,0-.645.625v2.8a.622.622,0,0,0,.322.541.662.662,0,0,0,.645,0,.622.622,0,0,0,.322-.541v-2.179h5.091a.655.655,0,0,0,.091-.006,2.218,2.218,0,0,0,0-4.434.652.652,0,0,0-.091-.006H240.1a.625.625,0,1,0,0,1.25h5.687a1.419,1.419,0,0,1,.8.323Z" transform="translate(-237.077 -366.745)"/>
  </g>
</svg>
