<svg xmlns="http://www.w3.org/2000/svg" width="16" height="16" viewBox="0 0 16 16">
  <defs>
    <style>
      .cls-1 {
        fill: #e5e5e5;
        opacity: 0;
      }

      .cls-2 {
        fill: inherit;
      }
    </style>
  </defs>
  <g id="组_950" data-name="组 950" transform="translate(-1742.533 -465.497)">
    <rect id="矩形_1067" data-name="矩形 1067" class="cls-1" width="16" height="16" transform="translate(1742.533 465.497)"/>
    <path id="路径_4050" data-name="路径 4050" class="cls-2" d="M65.265,76a.677.677,0,0,1-.678-.677V72.551H62.508A.507.507,0,0,1,62,72.043v-5.2a1.827,1.827,0,0,1,1.827-1.827h.76V62.677A.678.678,0,0,1,65.265,62h7.471a.678.678,0,0,1,.678.677v2.341h.76A1.827,1.827,0,0,1,76,66.845v5.2a.507.507,0,0,1-.508.508H73.413v2.772a.678.678,0,0,1-.678.677Zm7.083-1.065V71.258H65.653v3.677h6.693Zm2.587-3.449v-4.64a.76.76,0,0,0-.76-.761H63.826a.76.76,0,0,0-.76.76v4.64h1.521V70.294a.1.1,0,0,1,.1-.1h8.623a.1.1,0,0,1,.1.1v1.191h1.521Zm-2.587-6.467V63.065H65.653v1.953h6.693ZM65.121,68.24a.532.532,0,0,1,0-1.064H69a.532.532,0,0,1,0,1.064H65.12Z" transform="translate(1681.533 404.497)"/>
  </g>
</svg>
