<svg xmlns="http://www.w3.org/2000/svg" xmlns:xlink="http://www.w3.org/1999/xlink" width="20" height="20" viewBox="0 0 20 20"><defs><style>.a{opacity:0;}.b{stroke:rgba(0,0,0,0);stroke-miterlimit:10;fill:url(#a);}.c{fill:#fff;}</style><linearGradient id="a" x1="0.5" x2="0.5" y2="1" gradientUnits="objectBoundingBox"><stop offset="0" stop-color="#11cf9c"/><stop offset="1" stop-color="#02cac8"/></linearGradient></defs><g transform="translate(-17 1.989)"><rect class="a" width="20" height="20" transform="translate(17 -1.989)"/><g transform="translate(-6.164 -14.135)"><path class="b" d="M-5932.005-2042.5l-.8-.3a6.251,6.251,0,0,1-3.957-4.578l-1.474-6.918a1.618,1.618,0,0,1,.83-1.765l6.066-3.17a3.253,3.253,0,0,1,3.013,0l6.066,3.173a1.61,1.61,0,0,1,.829,1.761l-1.474,6.918a6.251,6.251,0,0,1-3.958,4.578l-.8.3a6.2,6.2,0,0,1-2.168.391A6.206,6.206,0,0,1-5932.005-2042.5Zm1.356-15.4-6.064,3.17a.11.11,0,0,0-.058.121l1.476,6.92a4.762,4.762,0,0,0,3.01,3.484l.8.3a4.73,4.73,0,0,0,3.295,0l.8-.3a4.763,4.763,0,0,0,3.012-3.484l1.475-6.92a.109.109,0,0,0-.055-.121l-6.067-3.17a1.759,1.759,0,0,0-.813-.2A1.756,1.756,0,0,0-5930.649-2057.9Zm.813,9.936-3.471,1.824.662-3.864-2.808-2.738,3.881-.563,1.736-3.517,1.735,3.517,3.881.563-2.808,2.738.663,3.864Z" transform="translate(5963 2073)"/><path class="c" d="M33.164,19.742l.592,1.172,1.323.188-.958.912.226,1.288-1.184-.608L31.98,23.3l.226-1.288-.958-.912,1.323-.188Z"/></g></g></svg>