<svg xmlns="http://www.w3.org/2000/svg" xmlns:xlink="http://www.w3.org/1999/xlink" width="18.002" height="18.002" viewBox="0 0 18.002 18.002"><defs><style>.a{opacity:0;fill:url(#a);}.b{fill:url(#b);}</style><linearGradient id="a" x1="0.5" x2="0.5" y2="1" gradientUnits="objectBoundingBox"><stop offset="0" stop-color="#02e7fb"/><stop offset="1" stop-color="#01cffa"/></linearGradient><linearGradient id="b" x1="0.5" x2="0.5" y2="1" gradientUnits="objectBoundingBox"><stop offset="0" stop-color="#4cccff"/><stop offset="1" stop-color="#4c7af8"/></linearGradient></defs><g transform="translate(-2 -2)"><rect class="a" width="18.002" height="18.002" transform="translate(2 2)"/><path class="b" d="M14539.941-344a2,2,0,0,1-2-2v-3.059a2,2,0,0,1,2-2H14543a2,2,0,0,1,2,2V-346a2,2,0,0,1-2,2Zm-7.943,0a2,2,0,0,1-2-2v-3.059a2,2,0,0,1,2-2h3.06a2,2,0,0,1,2,2V-346a2,2,0,0,1-2,2Zm7.943-7.939a2,2,0,0,1-2-2V-357a2,2,0,0,1,2-2H14543a2,2,0,0,1,2,2v3.059a2,2,0,0,1-2,2Zm-7.943,0a2,2,0,0,1-2-2V-357a2,2,0,0,1,2-2h3.06a2,2,0,0,1,2,2v3.059a2,2,0,0,1-2,2Z" transform="translate(-14526.499 362.501)"/></g></svg>