<svg xmlns="http://www.w3.org/2000/svg" viewBox="0 0 16 16"><defs><style>.cls-1{opacity:0;}</style></defs><g id="图层_2" data-name="图层 2"><g id="图层_1-2" data-name="图层 1"><rect class="cls-1" width="16" height="16"/><path d="M5.42,12.19H3.82V9.1l-.33.1-.08,0h0l-.18,0H3a2.71,2.71,0,0,1-.41,0v4.22a.63.63,0,0,0,.62.63H6.67A3.52,3.52,0,0,1,5.42,12.19Z"/><path d="M2.8,2.74s0,0,0,0a0,0,0,0,1,0,0v0a.64.64,0,0,0,.57.36h9.22a.63.63,0,0,0,0-1.25H3.4a.62.62,0,0,0-.62.62h0v.08S2.79,2.71,2.8,2.74Z"/><path d="M13.53,3.81h-11L1.31,7A1.68,1.68,0,1,0,4.66,7,1.68,1.68,0,1,0,8,7a1.68,1.68,0,1,0,3.35,0,1.66,1.66,0,0,0,.56,1.25h0a3.54,3.54,0,0,1,2.53-.35,1.68,1.68,0,0,0,.26-.9Z"/><rect x="8" y="10.2" width="6.03" height="1.2"/><rect x="8" y="12.8" width="4.21" height="1.2"/></g></g></svg>