<svg xmlns="http://www.w3.org/2000/svg" width="41" height="47" viewBox="0 0 41 47"><defs><style>.a{fill:#fff;opacity:0.15;}.b{fill:#ffc901;opacity:0;}.c{fill:#12c49b;}.d{fill:none;}.e,.f{stroke:none;}.f{fill:#fff;}</style></defs><path class="a" d="M35.25,0,47,20.5,35.25,41H11.75L0,20.5,11.75,0Z" transform="translate(41) rotate(90)"/><g transform="translate(8 11)"><rect class="b" width="26" height="26"/><g transform="translate(2.042 1)"><rect class="c" width="20" height="1.199" transform="translate(0.708 22.051)"/><g class="d" transform="translate(-2.042 -1)"><path class="e" d="M21.751,15.754H16V13.9a2.438,2.438,0,0,1,.685-1.7l.3-.3c3.571-3.671,1.675-10.228-3.35-10.843A7.324,7.324,0,0,0,12.75,1l-.122,0c-5.4.09-7.881,7.017-4.071,10.935l.259.263A2.438,2.438,0,0,1,9.5,13.9v1.856H3.749A1.732,1.732,0,0,0,2.042,17.5v4.3H23.458V17.5A1.732,1.732,0,0,0,21.751,15.754Z"/><path class="f" d="M 22.0580005645752 20.39800071716309 L 22.0580005645752 17.50144004821777 C 22.0580005645752 17.3133602142334 21.91724014282227 17.15447044372559 21.75061988830566 17.15447044372559 L 14.59941959381104 17.15447044372559 L 14.59941959381104 13.89888000488281 C 14.59941959381104 12.89078044891357 14.98332977294922 11.94075012207031 15.68243026733398 11.22175979614258 L 15.97725963592529 10.91977977752686 C 17.62540054321289 9.225689888000488 17.64432907104492 7.008820056915283 17.11248016357422 5.499050140380859 C 16.51102066040039 3.791650056838989 15.14583969116211 2.649210214614868 13.46267032623291 2.443270206451416 C 13.22842597961426 2.414959669113159 12.99202251434326 2.400408506393433 12.75982761383057 2.400009155273438 L 12.65118026733398 2.401640176773071 C 10.8120698928833 2.432380199432373 9.271980285644531 3.522410154342651 8.53141975402832 5.317480087280273 C 8.148579597473145 6.245480060577393 8.029049873352051 7.252740383148193 8.185770034790039 8.230380058288574 C 8.350949287414551 9.260854721069336 8.825777053833008 10.20423984527588 9.558980941772461 10.95873355865479 L 9.819580078125 11.22381973266602 C 10.51667022705078 11.94076061248779 10.90058040618896 12.89078998565674 10.90058040618896 13.89888000488281 L 10.90058040618896 17.15447044372559 L 3.749389886856079 17.15447044372559 C 3.582770109176636 17.15447044372559 3.441999912261963 17.3133602142334 3.441999912261963 17.50144004821777 L 3.441999912261963 20.39800071716309 L 22.0580005645752 20.39800071716309 M 23.45800018310547 21.79800033569336 L 2.04200005531311 21.79800033569336 L 2.04200005531311 17.50144004821777 C 2.04200005531311 16.5405101776123 2.809429883956909 15.754469871521 3.749389886856079 15.754469871521 L 9.500579833984375 15.754469871521 L 9.500579833984375 13.89888000488281 C 9.500579833984375 13.26195049285889 9.254349708557129 12.65077972412109 8.815830230712891 12.19976997375488 L 8.55702018737793 11.93653011322021 C 4.746860027313232 8.019189834594727 7.230649948120117 1.092040181159973 12.6277904510498 1.001840114593506 L 12.75 1.00000011920929 C 13.04833984375 1.00000011920929 13.34130001068115 1.018410205841064 13.63064956665039 1.053380131721497 C 18.65575981140137 1.668230175971985 20.55184936523438 8.225359916687012 16.98072052001953 11.89603042602539 L 16.68417930603027 12.19976997375488 C 16.24564933776855 12.65077972412109 15.99942016601562 13.26195049285889 15.99942016601562 13.89888000488281 L 15.99942016601562 15.754469871521 L 21.75061988830566 15.754469871521 C 22.69058036804199 15.754469871521 23.45800018310547 16.5405101776123 23.45800018310547 17.50144004821777 L 23.45800018310547 21.79800033569336 Z"/></g></g></g></svg>