<svg xmlns="http://www.w3.org/2000/svg" width="18" height="18" viewBox="0 0 18 18">
  <defs>
    <style>
      .cls-1 {
        fill: #e5e5e5;
        opacity: 0;
      }

      .cls-2 {
        fill: inherit;
      }
    </style>
  </defs>
  <g id="组_885" data-name="组 885" transform="translate(-1743 -465.964)">
    <rect id="矩形_1067" data-name="矩形 1067" class="cls-1" width="18" height="18" transform="translate(1743 465.964)"/>
    <path id="路径_3998" data-name="路径 3998" class="cls-2" d="M123.824,149.871a.472.472,0,0,1-.447.494h-6.024a.472.472,0,0,1-.447-.494v-13.7a.472.472,0,0,1,.447-.494h6.024a.472.472,0,0,1,.447.494v13.7Zm7.338-13.2v12.709h-4.943V136.668h4.943m.541-.988h-6.024a.472.472,0,0,0-.447.494v13.7a.472.472,0,0,0,.447.494H131.7a.472.472,0,0,0,.447-.494v-13.7A.472.472,0,0,0,131.7,135.68Z" transform="translate(1627.473 331.941)"/>
  </g>
</svg>
