<svg xmlns="http://www.w3.org/2000/svg" xmlns:xlink="http://www.w3.org/1999/xlink" width="20" height="20" viewBox="0 0 20 20"><defs><style>.a,.e,.g{fill:#12c49b;}.b{fill:#fff;stroke:#707070;}.b,.g{opacity:0;}.c{opacity:0.2;}.d{clip-path:url(#a);}.e{opacity:0.8;}.f,.j{fill:none;}.f{stroke:#fff;stroke-width:0.1px;}.h{clip-path:url(#b);}.i{stroke:none;}</style><clipPath id="a"><rect class="a" width="6.135" height="9.752" rx="3.068"/></clipPath><clipPath id="b"><rect class="a" width="7.124" height="11.324" rx="3.562"/></clipPath></defs><g class="b"><rect class="i" width="20" height="20"/><rect class="j" x="0.5" y="0.5" width="19" height="19"/></g><g class="c" transform="translate(7.438 4.506)"><path class="a" d="M2.289,7.766V6.918H5.035V5.442A5.465,5.465,0,0,1,0,0H.846A4.617,4.617,0,0,0,5.457,4.611,4.617,4.617,0,0,0,10.07,0h.846A5.466,5.466,0,0,1,5.881,5.442V6.918H8.627v.847Z" transform="translate(0 6.172)"/><rect class="a" width="6.135" height="9.752" rx="3.068" transform="translate(2.39)"/><g class="d" transform="translate(2.39)"><rect class="e" width="6.135" height="9.752" rx="3.068" transform="translate(-1.814)"/></g><rect class="f" width="6.135" height="9.752" rx="3.068" transform="translate(2.39)"/></g><g transform="translate(1.646 1.557)"><rect class="g" width="7.124" height="11.324" rx="3.562"/><path class="a" d="M2.657,9.017V8.033H5.847V6.319A6.346,6.346,0,0,1,0,0H.982A5.361,5.361,0,0,0,6.337,5.354,5.361,5.361,0,0,0,11.693,0h.982A6.347,6.347,0,0,1,6.829,6.319V8.033h3.188v.984Z" transform="translate(0.033 7.869)"/><rect class="a" width="7.124" height="11.324" rx="3.562" transform="translate(2.809 0.702)"/><g class="h" transform="translate(2.809 0.702)"><rect class="e" width="7.124" height="11.324" rx="3.562" transform="translate(-2.107)"/></g><rect class="f" width="7.124" height="11.324" rx="3.562" transform="translate(2.809 0.702)"/></g></svg>