<svg id="组_1318" data-name="组 1318" xmlns="http://www.w3.org/2000/svg" width="16" height="16" viewBox="0 0 16 16">
  <defs>
    <style>
      .cls-1, .cls-4 {
        fill: #fff;
      }

      .cls-1 {
        opacity: 0;
      }

      .cls-2 {
        fill: #4a8dff;
      }

      .cls-3 {
        fill: #e5f0ff;
      }
    </style>
  </defs>
  <rect id="矩形_1076" data-name="矩形 1076" class="cls-1" width="16" height="16"/>
  <g id="组_1320" data-name="组 1320" transform="translate(1.403)">
    <path id="路径_4205" data-name="路径 4205" class="cls-2" d="M87.915,0h8.626l4.106,4.027V15.554a.454.454,0,0,1-.46.446H87.915a.454.454,0,0,1-.46-.446V.446A.454.454,0,0,1,87.915,0Z" transform="translate(-87.455)"/>
    <path id="路径_4206" data-name="路径 4206" class="cls-3" d="M668.969,0V3.58a.453.453,0,0,0,.46.446h3.645Z" transform="translate(-659.883)"/>
    <path id="路径_4207" data-name="路径 4207" class="cls-4" d="M248.163,378.484a.647.647,0,0,0,1.12-.421V371.42h-1.289v5.031l-2.562-2.722a.658.658,0,0,0-.952,0l-2.562,2.722V371.42H240.63v6.643a.647.647,0,0,0,1.12.421l3.206-3.406,3.206,3.406Z" transform="translate(-238.237 -365.617)"/>
  </g>
</svg>
