<svg xmlns="http://www.w3.org/2000/svg" width="20" height="20" viewBox="0 0 20 20"><defs><style>.a,.b{fill:#12c49b;}.b{opacity:0;}</style></defs><g transform="translate(-21.786 1.474)"><path class="a" d="M31.786-.215"/><path class="a" d="M30.292-1.13"/><rect class="b" width="20" height="20" transform="translate(21.786 -1.474)"/><rect class="a" width="6.446" height="4.256" rx="0.5" transform="translate(23.058 13.001)"/><path class="a" d="M25.306,15.243V7.208A2.479,2.479,0,0,1,26.1,5.39L31.374.5,31.9.817l-3.878,5.55a5.216,5.216,0,0,0-.94,2.987v5.889Z"/><path class="a" d="M30.5.4,31.862,1.65a2.567,2.567,0,0,0,.432.322l.968.574a2.546,2.546,0,0,0,.408.195l3.3,1.235v-.73L30.883-.224Z"/><path class="a" d="M36.8,4.785a.452.452,0,0,1-.172-.359V3.173l1.283-.29a.461.461,0,0,1,.5.221l1.067,1.859-.2.84-1.009.255S37.221,5.117,36.8,4.785Z"/><path class="a" d="M39.749,6.343l-5.6.585V8.354h1.316v2.523l-2.724.256-.424.622v1.04l.5.349.188,1.1-.547.366v.987l-.565.512.133,1.17h8.509V6.343Z"/></g></svg>