<svg xmlns="http://www.w3.org/2000/svg" width="20" height="20" viewBox="0 0 20 20"><defs><style>.a{fill:#ff7373;}</style></defs><path class="a" d="M108.02,119.76a9.97,9.97,0,1,1,3.893-.786A9.938,9.938,0,0,1,108.02,119.76Zm0-18.551a8.551,8.551,0,1,0,8.551,8.551A8.56,8.56,0,0,0,108.02,101.209Z" transform="translate(-98.02 -99.76)"/><path class="a" d="M309.554,322.556l-.175.56a.348.348,0,0,1-.335.243l-3.41-.013a16.31,16.31,0,0,1-2.115-.1,3.922,3.922,0,0,1-1.02-.306,2.77,2.77,0,0,1-.552-.335.353.353,0,0,0-.463.022q-.277.268-.593.584a.352.352,0,0,1-.572-.113l-.3-.727a.341.341,0,0,1,.09-.385q.332-.3.766-.655a.343.343,0,0,0,.125-.264v-2.036a.347.347,0,0,0-.349-.344h-.344a.347.347,0,0,1-.349-.344V317.8a.347.347,0,0,1,.349-.344h1.633a.347.347,0,0,1,.349.344v3.388a.342.342,0,0,0,.112.253,3.228,3.228,0,0,0,2.249.7l.91.015q1.2.013,3.651-.042A.345.345,0,0,1,309.554,322.556Zm-8.1-8.221q.5.652.93,1.248a.341.341,0,0,1-.089.485l-.549.366a.352.352,0,0,1-.495-.109q-.412-.675-.837-1.3a.342.342,0,0,1,.106-.486l.473-.287A.352.352,0,0,1,301.45,314.335Zm5.677,6.892q-.042-.213-.1-.49a.346.346,0,0,1,.349-.417q.19,0,.445,0a.255.255,0,0,0,.234-.144.344.344,0,0,0-.309-.506h-.933a.347.347,0,0,0-.349.344v1.6a.347.347,0,0,1-.349.344h-.62a.347.347,0,0,1-.349-.344v-1.6a.347.347,0,0,0-.349-.344H303a.347.347,0,0,1-.349-.344v-.437a.347.347,0,0,1,.349-.344h1.79a.347.347,0,0,0,.349-.344v-.01a.347.347,0,0,0-.349-.344h-1.288a.347.347,0,0,1-.349-.344v-.417a.347.347,0,0,1,.349-.344h1.288a.344.344,0,1,0,0-.689h-1.643a.347.347,0,0,1-.349-.344v-.437a.347.347,0,0,1,.349-.344h1.643a.347.347,0,0,0,.349-.344v-.262a.347.347,0,0,1,.349-.344h.62a.347.347,0,0,1,.349.344v.262a.347.347,0,0,0,.349.344h2.252a.347.347,0,0,1,.349.344v.437a.347.347,0,0,1-.349.344H306.81a.344.344,0,1,0,0,.689h1.662a.347.347,0,0,1,.349.344v.417a.347.347,0,0,1-.349.344H306.81a.347.347,0,0,0-.349.344v.01a.347.347,0,0,0,.349.344h2.313a.347.347,0,0,1,.349.354,8.134,8.134,0,0,1-.176,1.894,1.019,1.019,0,0,1-.467.536,3.7,3.7,0,0,1-1.353.172A.348.348,0,0,1,307.127,321.227Z" transform="translate(-295.115 -308.776)"/><path class="a" d="M220,220.714l13.169,13.169-1.027,1.027L218.97,221.741Z" transform="translate(-216.068 -217.812)"/></svg>