<svg xmlns="http://www.w3.org/2000/svg" width="20" height="20" viewBox="0 0 20 20"><defs><style>.a{opacity:1;}.b{fill:inherit;}.c{opacity:0;}</style></defs><g class="a" transform="translate(-19.375 -7.019)"><path class="b" d="M27.881,7.363"/><g class="c"><rect class="b" width="20" height="20" transform="translate(19.375 7.019)"/></g><rect class="b" width="1.499" height="4.187" transform="translate(25.689 9.777)"/><rect class="b" width="1.499" height="4.187" transform="translate(32.241 9.777)"/><path class="b" d="M35.8,11.291H22.947a1.249,1.249,0,0,0-1.25,1.25V23.012a1.25,1.25,0,0,0,1.25,1.25H35.8a1.25,1.25,0,0,0,1.25-1.25V12.541A1.25,1.25,0,0,0,35.8,11.291Zm-5.34,11.283h-1.5v-1.5h1.5Zm-1.5-2.193v-2.97h1.5v2.97Zm8.088-4.663H21.7v-1.5H37.053Z"/></g></svg>