<svg xmlns="http://www.w3.org/2000/svg" width="20" height="20" viewBox="0 0 20 20">
  <defs>
    <style>
      .cls-1 {
        fill: #fff;
      }

      .cls-2 {
        fill: #ffc600;
      }

      .cls-3 {
        fill: #90bafe;
      }

      .cls-4 {
        fill: #4087fb;
      }

      .cls-5 {
        fill: #ffe27f;
      }
    </style>
  </defs>
  <g id="组_930" data-name="组 930" transform="translate(-687 -467)">
    <rect id="矩形_1084" data-name="矩形 1084" class="cls-1" width="20" height="20" transform="translate(687 467)"/>
    <g id="组_928" data-name="组 928" transform="translate(690 468)">
      <path id="路径_3943" data-name="路径 3943" class="cls-2" d="M555.4,300.072l.042-7.5Zm-6.833,4.833,6.25-3.75Z" transform="translate(-540.446 -287.572)"/>
      <path id="路径_3944" data-name="路径 3944" class="cls-3" d="M512.042,343.145,512,350.6a1.176,1.176,0,0,0,.625-.167l6.208-3.75a1.6,1.6,0,0,0,.458-.458,1.176,1.176,0,0,0,.167-.625v-6.708l-6.833,4.125A1.33,1.33,0,0,1,512.042,343.145Z" transform="translate(-504.5 -333.103)"/>
      <path id="路径_3945" data-name="路径 3945" class="cls-4" d="M80.06,9.875,73.143,5.75V12.5a1.085,1.085,0,0,0,.167.625.977.977,0,0,0,.458.458l6.25,3.75a1.176,1.176,0,0,0,.625.167V10.041a1.042,1.042,0,0,1-.583-.167Zm7.917-5.5a.977.977,0,0,0-.458-.458L81.268.166c-.083-.042-.208-.083-.292-.125h-.083A.619.619,0,0,0,80.643,0a.376.376,0,0,0-.208.042H80.31a2.031,2.031,0,0,0-.292.125L73.81,3.916a1.6,1.6,0,0,0-.458.458L80.685,8.75Z" transform="translate(-73.143 0)"/>
      <path id="路径_3946" data-name="路径 3946" class="cls-1" d="M87.976,4.375,80.684,8.792v1.292a1.085,1.085,0,0,0,.625-.167L88.143,5.75V5a1.176,1.176,0,0,0-.167-.625Zm-7.292,5.667V8.75L73.309,4.375A3.472,3.472,0,0,0,73.143,5v.75l6.875,4.125a1.319,1.319,0,0,0,.667.167ZM80.018.167c.083-.042.208-.083.292-.125A2.031,2.031,0,0,0,80.018.167Zm.417-.125A.376.376,0,0,1,80.643,0,.376.376,0,0,0,80.434.042Zm.417,0Z" transform="translate(-73.143 0)"/>
      <path id="路径_3947" data-name="路径 3947" class="cls-2" d="M73.143,292.571v0Z" transform="translate(-73.143 -287.571)"/>
      <path id="路径_3948" data-name="路径 3948" class="cls-5" d="M914.286,768.458a1.6,1.6,0,0,0,.458-.458A2.392,2.392,0,0,1,914.286,768.458Z" transform="translate(-899.911 -754.875)"/>
    </g>
  </g>
</svg>
