<svg xmlns="http://www.w3.org/2000/svg" xmlns:xlink="http://www.w3.org/1999/xlink" width="65" height="75" viewBox="0 0 65 75"><defs><style>.a{fill:rgba(255,201,1,0.1);}.b,.e{fill:#fff;}.b{opacity:0;}.c{fill:url(#a);}.d{fill:none;}.f,.g{stroke:none;}.g{fill:#ffc901;}</style><linearGradient id="a" x1="0.5" x2="0.5" y2="1" gradientUnits="objectBoundingBox"><stop offset="0" stop-color="#fff"/><stop offset="1" stop-color="#ffc901"/></linearGradient></defs><g transform="translate(-273 -168)"><g class="a" transform="translate(338 168) rotate(90)"><path class="f" d="M 55.96121978759766 64.5 L 19.03877830505371 64.5 L 0.577239990234375 32.5 L 19.03877830505371 0.5 L 55.96121978759766 0.5 L 74.42276000976562 32.5 L 55.96121978759766 64.5 Z"/><path class="g" d="M 19.32756805419922 1 L 1.154487609863281 32.5 L 19.32756805419922 64 L 55.67243194580078 64 L 73.84551239013672 32.5 L 55.67243194580078 1 L 19.32756805419922 1 M 18.75 0 L 56.25 0 L 75 32.5 L 56.25 65 L 18.75 65 L 0 32.5 L 18.75 0 Z"/></g><g class="a" transform="translate(331 176) rotate(90)"><path class="f" d="M 43.96159362792969 50.5 L 15.03840446472168 50.5 L 0.577620267868042 25.5 L 15.03840446472168 0.5 L 43.96159362792969 0.5 L 58.42237854003906 25.5 L 43.96159362792969 50.5 Z"/><path class="g" d="M 15.32680892944336 1 L 1.155239105224609 25.5 L 15.32680892944336 50 L 43.67319107055664 50 L 57.84476089477539 25.5 L 43.67319107055664 1 L 15.32680892944336 1 M 14.75 0 L 44.25 0 L 59 25.5 L 44.25 51 L 14.75 51 L 0 25.5 L 14.75 0 Z"/></g><g transform="translate(288.584 190.03)"><rect class="b" width="32" height="32" transform="translate(0.416 -0.03)"/><path class="c" d="M-4137.675-1432.125a2.111,2.111,0,0,1-2.1-2.12v-12.168h-.695a2.122,2.122,0,0,1-1.334-3.76l12.583-10.377a2.1,2.1,0,0,1,2.668,0l12.584,10.377a2.122,2.122,0,0,1-1.334,3.76h-.7v1.459a8.305,8.305,0,0,0-3.638-.863,8.417,8.417,0,0,0-6.76,3.447h-2.637a2.11,2.11,0,0,0-2.1,2.12v8.125Zm5.356-16.524a1.065,1.065,0,0,0,1.061,1.068h6.114a1.065,1.065,0,0,0,1.061-1.068,1.066,1.066,0,0,0-1.061-1.069h-6.114A1.065,1.065,0,0,0-4132.319-1448.649Zm13.469,16.226-4.419-4.7a10.352,10.352,0,0,0-.941,2.352c0,.094-.092.094-.092.186h-.189l-2.068-.564c-.188-.093-.188-.188-.188-.375v-.095a9.808,9.808,0,0,1,3.386-4.89,5.8,5.8,0,0,1,4.984-1.034l.016.017.014.014.012.012.01.01.007.008.005.006,0,0h0l.023.024v.094h-.092l-.282.094a10.464,10.464,0,0,0-3.386,2.352l4.607,4.983a.288.288,0,0,1,0,.377l-1.034,1.127c0,.095-.1.095-.188.095S-4118.756-1432.329-4118.85-1432.424ZM-4118.311-1441.475ZM-4118.314-1441.479ZM-4118.319-1441.484ZM-4118.327-1441.492ZM-4118.336-1441.5ZM-4118.349-1441.514ZM-4118.363-1441.529Z" transform="translate(4144.084 1462.391)"/></g><g class="d" transform="translate(331 176) rotate(90)"><path class="f" d="M44.25,0,59,25.5,44.25,51H14.75L0,25.5,14.75,0Z"/><path class="g" d="M 15.32680892944336 1 L 1.155239105224609 25.5 L 15.32680892944336 50 L 43.67319107055664 50 L 57.84476089477539 25.5 L 43.67319107055664 1 L 15.32680892944336 1 M 14.75 0 L 44.25 0 L 59 25.5 L 44.25 51 L 14.75 51 L 0 25.5 L 14.75 0 Z"/></g><path class="e" d="M28.84,83.047V93.7h1V83.617l24.5-14.17V68.3Z" transform="translate(251.16 107.703)"/><path class="e" d="M19.61,106.447l1,.58,31.5-18.17V87.7Z" transform="translate(253.39 80.303)"/><path class="e" d="M41.55,135.307v3.13l-2.47,1.43.53.85,2.94-1.7v-3.71Z" transform="translate(288.45 81.283)"/></g></svg>