<svg id="组_3008" data-name="组 3008" xmlns="http://www.w3.org/2000/svg" width="22" height="22" viewBox="0 0 22 22">
  <defs>
    <style>
      .cls-1, .cls-2 {
        fill: inherit;
      }

      .cls-1 {
        opacity: 0;
      }
    </style>
  </defs>
  <rect id="矩形_2824" data-name="矩形 2824" class="cls-1" width="22" height="22"/>
  <g id="组_3937" data-name="组 3937" transform="translate(41.813 41.266)">
    <g id="组_3935" data-name="组 3935">
      <path id="路径_5380" data-name="路径 5380" class="cls-2" d="M-26.1-22.722a4.126,4.126,0,0,1-2.938-1.216,4.159,4.159,0,0,1,0-5.877,4.16,4.16,0,0,1,5.876,0h0a4.161,4.161,0,0,1,0,5.877A4.124,4.124,0,0,1-26.1-22.722Zm0-6.809a2.647,2.647,0,0,0-1.877.776,2.658,2.658,0,0,0,0,3.756,2.718,2.718,0,0,0,3.755,0,2.66,2.66,0,0,0,0-3.756A2.651,2.651,0,0,0-26.1-29.531Z"/>
    </g>
    <g id="组_3936" data-name="组 3936">
      <path id="路径_5381" data-name="路径 5381" class="cls-2" d="M-21.272-21.3a.748.748,0,0,1-.531-.22l-2.423-2.423a.75.75,0,0,1,0-1.061.749.749,0,0,1,1.06,0l2.424,2.424a.749.749,0,0,1,0,1.06A.747.747,0,0,1-21.272-21.3Z"/>
    </g>
    <path id="路径_5382" data-name="路径 5382" class="cls-2" d="M-39.015-38.718-41.1-23.5a.6.6,0,0,0,.595.682h8.791a.6.6,0,0,0,.591-.7l-2.635-15.217a.6.6,0,0,0-.591-.5h-4.073A.6.6,0,0,0-39.015-38.718Z"/>
    <path id="路径_5383" data-name="路径 5383" class="cls-2" d="M-23.836-32.959l-1.348-5.813a.6.6,0,0,0-.585-.465h-5.7a.6.6,0,0,0-.592.7l1.007,5.813a.6.6,0,0,0,.591.5h6.046A.6.6,0,0,0-23.836-32.959Z"/>
  </g>
</svg>
