<svg xmlns="http://www.w3.org/2000/svg" xmlns:xlink="http://www.w3.org/1999/xlink" width="20" height="20" viewBox="0 0 20 20"><defs><style>.a{opacity:0;}.b{fill:#fff;}.c{fill:url(#a);}</style><linearGradient id="a" x1="0.5" x2="0.5" y2="1" gradientUnits="objectBoundingBox"><stop offset="0" stop-color="#11cf9c"/><stop offset="1" stop-color="#02cac8"/></linearGradient></defs><rect class="a" width="20" height="20"/><g transform="translate(0.772 1.432)"><path class="b" d="M78.346,109.752l-8.477-6.142a.757.757,0,0,0-.88,0l-8.478,6.142a.75.75,0,1,0,.88,1.215l8.038-5.822,8.037,5.822a.75.75,0,1,0,.88-1.215Z" transform="translate(-60.201 -103.469)"/><path class="c" d="M75.62,111.409l-5.458-3.954a1.254,1.254,0,0,0-1.467,0l-5.458,3.954a1.248,1.248,0,0,0-.517,1.012v6.934a1.25,1.25,0,0,0,1.25,1.25H66.8v-3.466a.625.625,0,0,1,.625-.625h4.1a.625.625,0,0,1,.625.625v3.466h2.739a1.25,1.25,0,0,0,1.25-1.25v-6.934A1.248,1.248,0,0,0,75.62,111.409Z" transform="translate(-60.201 -103.469)"/></g></svg>